<svg
  width="66"
  height="67"
  viewBox="0 0 66 67"
  fill="none"
  xmlns="http://www.w3.org/2000/svg"
>
  <g filter="url(#filter0_d_7963_92904)">
    <rect x="2" y="-16" width="80" height="80" rx="40" fill="white" />
    <rect
      x="2.5"
      y="-15.5"
      width="79"
      height="79"
      rx="39.5"
      stroke="#D4D4D8"
      stroke-opacity="0.56"
    />
    <rect
      x="10"
      y="-8"
      width="64"
      height="64"
      rx="32"
      fill="url(#paint0_linear_7963_92904)"
      fill-opacity="0.08"
    />
    <rect
      x="10.5"
      y="-7.5"
      width="63"
      height="63"
      rx="31.5"
      stroke="black"
      stroke-opacity="0.03"
    />
    <path
      fill-rule="evenodd"
      clip-rule="evenodd"
      d="M36.2992 16.1984L36.1516 16.2008C36.3374 15.6737 36.6823 15.2171 37.1386 14.8943C37.595 14.5715 38.1402 14.3982 38.6992 14.3984H45.2992C45.8582 14.3984 46.4034 14.5717 46.8596 14.8945C47.3159 15.2173 47.6608 15.6737 47.8468 16.2008C47.7976 16.1984 47.7484 16.1984 47.6992 16.1984H36.2992ZM31.99 22.3892C31.4837 22.8956 31.1992 23.5824 31.1992 24.2984V30.8984C31.1992 31.6145 31.4837 32.3013 31.99 32.8076C32.4964 33.314 33.1831 33.5984 33.8992 33.5984H50.0992C50.4538 33.5984 50.8049 33.5286 51.1325 33.3929C51.46 33.2572 51.7577 33.0583 52.0084 32.8076C52.2591 32.5569 52.458 32.2593 52.5937 31.9317C52.7294 31.6041 52.7992 31.253 52.7992 30.8984V24.2984C52.7992 23.9439 52.7294 23.5928 52.5937 23.2652C52.458 22.9376 52.2591 22.64 52.0084 22.3892C51.7577 22.1385 51.46 21.9397 51.1325 21.804C50.8049 21.6683 50.4538 21.5984 50.0992 21.5984H33.8992C33.1831 21.5984 32.4964 21.8829 31.99 22.3892ZM33.7516 19.8008C33.8008 19.7984 33.8512 19.7984 33.8992 19.7984H50.0992C50.1484 19.7984 50.1976 19.7992 50.2468 19.8008C49.876 18.7508 48.8752 17.9984 47.6992 17.9984H36.2992C35.7402 17.9982 35.195 18.1715 34.7386 18.4943C34.2823 18.8171 33.9374 19.2737 33.7516 19.8008ZM42.3875 24.2419C42.3192 24.1963 42.2388 24.1719 42.1566 24.1719C42.0741 24.1716 41.9934 24.196 41.9247 24.2417C41.856 24.2875 41.8025 24.3526 41.7709 24.4289L40.9883 26.3121L38.9552 26.4747C38.8732 26.4813 38.795 26.512 38.7304 26.563C38.6659 26.614 38.6179 26.683 38.5925 26.7613C38.5672 26.8396 38.5656 26.9236 38.588 27.0028C38.6103 27.082 38.6557 27.1528 38.7183 27.2062L40.2668 28.5327L39.7939 30.5164C39.7749 30.5963 39.7799 30.6801 39.8085 30.7572C39.837 30.8343 39.8877 30.9012 39.9541 30.9495C40.0206 30.9978 40.0999 31.0253 40.182 31.0287C40.2641 31.032 40.3454 31.011 40.4155 30.9682L42.1555 29.9053L43.8972 30.9676C43.9674 31.0104 44.0486 31.0315 44.1307 31.0281C44.2129 31.0248 44.2921 30.9972 44.3586 30.9489C44.4251 30.9006 44.4758 30.8337 44.5043 30.7566C44.5328 30.6796 44.5379 30.5958 44.5188 30.5158L44.0454 28.5316L45.5945 27.2051C45.6569 27.1516 45.7021 27.0808 45.7243 27.0017C45.7466 26.9225 45.7449 26.8386 45.7195 26.7604C45.694 26.6822 45.6461 26.6133 45.5815 26.5624C45.517 26.5114 45.4389 26.4807 45.3569 26.4741L43.3233 26.3115L42.5407 24.4283C42.5092 24.3524 42.4559 24.2876 42.3875 24.2419Z"
      fill="#FF6C15"
    />
  </g>
  <defs>
    <filter
      id="filter0_d_7963_92904"
      x="0"
      y="-17"
      width="84"
      height="84"
      filterUnits="userSpaceOnUse"
      color-interpolation-filters="sRGB"
    >
      <feFlood flood-opacity="0" result="BackgroundImageFix" />
      <feColorMatrix
        in="SourceAlpha"
        type="matrix"
        values="0 0 0 0 0 0 0 0 0 0 0 0 0 0 0 0 0 0 127 0"
        result="hardAlpha"
      />
      <feOffset dy="1" />
      <feGaussianBlur stdDeviation="1" />
      <feColorMatrix
        type="matrix"
        values="0 0 0 0 0.0392157 0 0 0 0 0.0392157 0 0 0 0 0.0392157 0 0 0 0.04 0"
      />
      <feBlend
        mode="normal"
        in2="BackgroundImageFix"
        result="effect1_dropShadow_7963_92904"
      />
      <feBlend
        mode="normal"
        in="SourceGraphic"
        in2="effect1_dropShadow_7963_92904"
        result="shape"
      />
    </filter>
    <linearGradient
      id="paint0_linear_7963_92904"
      x1="10"
      y1="-8"
      x2="74"
      y2="-8"
      gradientUnits="userSpaceOnUse"
    >
      <stop stop-color="#FF6C15" />
      <stop offset="1" stop-color="#FF1814" />
    </linearGradient>
  </defs>
</svg>
