<svg
  width="66"
  height="67"
  viewBox="0 0 66 67"
  fill="none"
  xmlns="http://www.w3.org/2000/svg"
>
  <g filter="url(#filter0_d_8396_46540)">
    <rect x="2" y="-16" width="80" height="80" rx="40" fill="white" />
    <rect
      x="2.5"
      y="-15.5"
      width="79"
      height="79"
      rx="39.5"
      stroke="#D4D4D8"
      stroke-opacity="0.56"
    />
    <rect
      x="10"
      y="-8"
      width="64"
      height="64"
      rx="32"
      fill="url(#paint0_linear_8396_46540)"
      fill-opacity="0.08"
    />
    <rect
      x="10.5"
      y="-7.5"
      width="63"
      height="63"
      rx="31.5"
      stroke="black"
      stroke-opacity="0.03"
    />
    <path
      fill-rule="evenodd"
      clip-rule="evenodd"
      d="M43.0413 15.4604C42.6561 14.534 41.3433 14.534 40.9581 15.4604L38.7621 20.7416L33.0585 21.1988C32.0589 21.2792 31.6533 22.5272 32.4153 23.18L36.7593 26.9024L35.4321 32.4668C35.1993 33.4424 36.2613 34.214 37.1181 33.6908L41.9997 30.7088L46.8825 33.6908C47.7381 34.214 48.8001 33.4424 48.5673 32.4668L47.2401 26.9024L51.5841 23.18C52.3461 22.5272 51.9405 21.2792 50.9409 21.2L45.2385 20.7416L43.0413 15.4604Z"
      fill="#FF6C15"
    />
  </g>
  <defs>
    <filter
      id="filter0_d_8396_46540"
      x="0"
      y="-17"
      width="84"
      height="84"
      filterUnits="userSpaceOnUse"
      color-interpolation-filters="sRGB"
    >
      <feFlood flood-opacity="0" result="BackgroundImageFix" />
      <feColorMatrix
        in="SourceAlpha"
        type="matrix"
        values="0 0 0 0 0 0 0 0 0 0 0 0 0 0 0 0 0 0 127 0"
        result="hardAlpha"
      />
      <feOffset dy="1" />
      <feGaussianBlur stdDeviation="1" />
      <feColorMatrix
        type="matrix"
        values="0 0 0 0 0.0392157 0 0 0 0 0.0392157 0 0 0 0 0.0392157 0 0 0 0.04 0"
      />
      <feBlend
        mode="normal"
        in2="BackgroundImageFix"
        result="effect1_dropShadow_8396_46540"
      />
      <feBlend
        mode="normal"
        in="SourceGraphic"
        in2="effect1_dropShadow_8396_46540"
        result="shape"
      />
    </filter>
    <linearGradient
      id="paint0_linear_8396_46540"
      x1="10"
      y1="-8"
      x2="74"
      y2="-8"
      gradientUnits="userSpaceOnUse"
    >
      <stop stop-color="#FF6C15" />
      <stop offset="1" stop-color="#FF1814" />
    </linearGradient>
  </defs>
</svg>
