<svg
  width="32"
  height="32"
  viewBox="0 0 32 32"
  fill="none"
  xmlns="http://www.w3.org/2000/svg"
>
  <g id="Frame 2147224431">
    <rect
      width="32"
      height="32"
      rx="8"
      fill="url(#paint0_linear_11092_11816)"
    />
    <path
      id="Vector"
      fill-rule="evenodd"
      clip-rule="evenodd"
      d="M7 10.5831C7 10.1422 7.47248 9.83198 7.95834 10.0992C8.27417 10.2725 8.91667 10.6263 8.91667 10.6263C8.91667 10.6263 9.50085 10.9475 9.87501 11.1535C10.5704 11.5363 10.8333 12.2266 10.8333 12.8078V16.9361C10.8333 16.9361 12.1907 15.0021 13.4822 13.156C14.7757 11.31 17.0868 11.002 18.821 12.2154L12.3919 21.39C10.4855 24.1108 7.00001 23.1532 7.00001 20.2358L7 10.5831ZM25.7566 22.3064C25.7566 22.7473 25.2842 23.0575 24.7983 22.7903C24.4825 22.617 23.84 22.2631 23.84 22.2631C23.84 22.2631 23.2558 21.9419 22.8816 21.736C22.1863 21.3532 21.9233 20.6629 21.9233 20.0817V16.0827C21.9233 16.0827 20.566 18.0166 19.2745 19.8627C17.981 21.7087 15.6699 22.0167 13.9356 20.8033L20.3647 11.6287C22.2711 8.90796 25.7566 9.86556 25.7566 12.7829V22.3064Z"
      fill="white"
    />
  </g>
  <defs>
    <linearGradient
      id="paint0_linear_11092_11816"
      x1="28.3334"
      y1="32"
      x2="-2.93559"
      y2="25.2754"
      gradientUnits="userSpaceOnUse"
    >
      <stop stop-color="#00D395" />
      <stop offset="1" stop-color="#04DDDE" />
    </linearGradient>
  </defs>
</svg>
