<svg
  width="113"
  height="24"
  viewBox="0 0 113 24"
  fill="none"
  xmlns="http://www.w3.org/2000/svg"
>
  <g clip-path="url(#clip0_8366_11749)">
    <path
      d="M40.388 12.8766C40.388 13.2254 40.3196 13.5519 40.1829 13.8561C40.0508 14.1561 39.8687 14.4196 39.6366 14.6466C39.4087 14.8698 39.1394 15.0463 38.8287 15.1761C38.5157 15.3071 38.1794 15.3733 37.8401 15.3708H31.8059V14.124H37.8408C38.0143 14.124 38.1777 14.0915 38.3312 14.0263C38.4889 13.9617 38.6256 13.8726 38.7415 13.7591C38.8577 13.6452 38.9489 13.5133 39.0149 13.3636C39.0808 13.2109 39.1148 13.0463 39.1148 12.8801C39.1148 12.7138 39.0808 12.5493 39.0149 12.3966C38.8829 12.0945 38.6373 11.8564 38.3312 11.7338C38.1757 11.6686 38.0087 11.6354 37.8401 11.6361H31.8059V10.3894H36.5661C36.7405 10.3894 36.9043 10.3568 37.0573 10.2917C37.2149 10.227 37.3517 10.138 37.4675 10.0245C37.5838 9.911 37.675 9.77913 37.741 9.6289C37.8068 9.47622 37.8408 9.31169 37.8408 9.14541C37.8408 8.97914 37.8068 8.81461 37.741 8.66193C37.677 8.51061 37.5836 8.3735 37.4663 8.25853C37.3489 8.14356 37.2099 8.05302 37.0573 7.99216C36.9017 7.92719 36.7347 7.89421 36.5661 7.89518H31.1731V15.3708H29.8984V6.64844H36.5668C36.9152 6.64844 37.2447 6.71541 37.5554 6.84937C37.8569 6.9736 38.1313 7.15536 38.3633 7.38448C38.5949 7.60774 38.777 7.87123 38.9096 8.17495C39.0463 8.47913 39.1147 8.80146 39.1147 9.14193C39.1147 9.40565 39.0754 9.65518 38.9968 9.89053C38.9177 10.1217 38.8122 10.3366 38.6801 10.5352C38.9284 10.6203 39.1563 10.7398 39.3638 10.8938C39.5745 11.0482 39.7547 11.2268 39.9045 11.4296C40.058 11.6319 40.1759 11.8568 40.2582 12.1043C40.3452 12.3475 40.388 12.6049 40.388 12.8766ZM51.0959 15.3708H41.8796V6.64844H51.0959V7.89518H43.1536V14.124H51.0959V15.3708ZM50.0145 11.6361H43.7877V10.3894H50.0145V11.6361ZM63.1831 11.0096C63.1831 11.6143 63.0838 12.1819 62.8852 12.7126C62.702 13.2255 62.4189 13.6969 62.0522 14.0996C61.6879 14.496 61.2456 14.8129 60.7531 15.0303C60.2522 15.2573 59.695 15.3708 59.0815 15.3708H54.5884V14.124H59.0815C59.521 14.124 59.9147 14.0426 60.2626 13.8798C60.6147 13.718 60.9108 13.497 61.1508 13.217C61.395 12.9333 61.5815 12.6031 61.7103 12.2263C61.8429 11.8449 61.9091 11.4394 61.9091 11.0096C61.9091 10.5798 61.8429 10.1763 61.7103 9.79914C61.5896 9.43749 61.3996 9.10286 61.1508 8.81402C60.9085 8.52719 60.605 8.29832 60.2626 8.14425C59.9143 7.9782 59.5205 7.89518 59.0815 7.89518H53.9543V15.3708H52.6803V6.64844H59.0815C59.6954 6.64844 60.2526 6.76402 60.7531 6.99518C61.2461 7.21424 61.6884 7.53302 62.0522 7.93146C62.4189 8.33413 62.702 8.80556 62.8852 9.31844C63.0838 9.84588 63.1831 10.4096 63.1831 11.0096ZM75.0966 15.3708H73.3754L70.7026 12.8766H66.7998V11.6487H71.9145C72.1796 11.6487 72.4282 11.5998 72.6603 11.5022C72.8929 11.4008 73.0938 11.2649 73.2631 11.0947C73.4416 10.922 73.5832 10.7148 73.6794 10.4858C73.7756 10.2567 73.8243 10.0106 73.8226 9.76216C73.8226 9.50309 73.7729 9.25983 73.6733 9.03239C73.5772 8.8105 73.4378 8.61006 73.2631 8.44286C73.0906 8.27046 72.8858 8.13389 72.6603 8.041C72.4242 7.94223 72.1704 7.89261 71.9145 7.89518H66.0854V15.3708H64.8115V6.64844H71.9145C72.354 6.64844 72.7663 6.73146 73.1515 6.89751C73.5273 7.05342 73.8692 7.28089 74.1582 7.56727C74.4484 7.84634 74.6763 8.17472 74.8419 8.55239C75.0117 8.92914 75.0966 9.33262 75.0966 9.76286C75.0966 10.1522 75.0282 10.521 74.8915 10.8694C74.7573 11.2096 74.5659 11.5243 74.3256 11.8001C74.0856 12.0717 73.8019 12.2989 73.4745 12.4817C73.148 12.6613 72.7927 12.7826 72.4245 12.8403L75.0966 15.3708ZM87.3701 11.0096C87.3748 11.5901 87.2761 12.1668 87.0784 12.7126C86.8952 13.2255 86.6121 13.6969 86.2454 14.0996C85.8862 14.4961 85.4479 14.8132 84.9589 15.0303C84.458 15.2573 83.9008 15.3708 83.2873 15.3708H80.3229C79.7056 15.3708 79.1442 15.2573 78.6387 15.0303C78.1464 14.8128 77.7044 14.4959 77.3403 14.0996C76.9773 13.6953 76.6965 13.2242 76.5136 12.7126C76.3157 12.1668 76.2167 11.5901 76.2212 11.0096C76.2212 10.4096 76.3187 9.84588 76.5136 9.31844C76.6965 8.80684 76.9773 8.33575 77.3403 7.93146C77.7032 7.53234 78.1454 7.21343 78.6387 6.99518C79.1442 6.76402 79.7056 6.64844 80.3229 6.64844H83.2873C83.9008 6.64844 84.458 6.76402 84.9589 6.99518C85.4484 7.21396 85.8867 7.53291 86.2454 7.93146C86.6121 8.33413 86.8952 8.80556 87.0784 9.31844C87.2747 9.86053 87.3734 10.4331 87.3701 11.0096ZM86.0961 11.0096C86.0961 10.5798 86.0319 10.1763 85.9036 9.79914C85.7837 9.43712 85.5936 9.10234 85.344 8.81402C85.102 8.5296 84.8011 8.30109 84.4622 8.14425C84.118 7.9782 83.7263 7.89518 83.2873 7.89518H80.3229C79.8838 7.89518 79.4882 7.97844 79.1361 8.14495C78.7953 8.30167 78.4922 8.52985 78.2473 8.81402C78.0013 9.10483 77.8115 9.43889 77.6877 9.79914C77.5579 10.1894 77.4929 10.5983 77.4952 11.0096C77.4952 11.4394 77.5594 11.8449 77.6877 12.2263C77.8203 12.6031 78.0068 12.9333 78.2473 13.217C78.4915 13.4975 78.7877 13.7184 79.1361 13.8798C79.4882 14.0426 79.8838 14.124 80.3229 14.124H83.2873C83.7263 14.124 84.118 14.0426 84.4622 13.8798C84.8004 13.725 85.1013 13.4989 85.344 13.217C85.5887 12.9333 85.7752 12.6031 85.9036 12.2263C86.0341 11.8341 86.0991 11.423 86.0961 11.0096ZM98.3263 15.3708H92.5908C91.9731 15.3708 91.4117 15.2573 90.9066 15.0303C90.4141 14.8129 89.9718 14.496 89.6075 14.0996C89.2445 13.6953 88.9637 13.2242 88.7808 12.7126C88.5831 12.1668 88.4844 11.5901 88.4891 11.0096C88.4891 10.4096 88.5863 9.84588 88.7808 9.31844C88.9637 8.80684 89.2445 8.33575 89.6075 7.93146C89.9713 7.53302 90.4136 7.21424 90.9066 6.99518C91.4117 6.76402 91.9731 6.64844 92.5908 6.64844H98.3263V7.89518H92.5908C92.1512 7.89518 91.7554 7.97844 91.4033 8.14495C91.0626 8.30186 90.7595 8.53001 90.5145 8.81402C90.2687 9.10489 90.0792 9.43894 89.9557 9.79914C89.8258 10.1894 89.7608 10.5983 89.7631 11.0096C89.7631 11.4394 89.8273 11.8449 89.9557 12.2263C90.0882 12.6031 90.2745 12.9333 90.5145 13.217C90.7591 13.4975 91.0554 13.7184 91.4033 13.8798C91.7554 14.0426 92.1512 14.124 92.5908 14.124H98.3263V15.3708ZM110.234 15.3708H108.519L103.969 10.8882L101.148 12.8766V15.3708H99.8738V6.64844H101.148V11.5084L108.133 6.64844H109.991L104.939 10.2003L110.234 15.3708Z"
      fill="black"
    />
    <g filter="url(#filter0_d_8366_11749)">
      <path
        d="M4.73125 13.2316L2.79102 16.0795L2.91799 17.1323L5.44357 19.0844C5.44357 19.0844 8.17985 21.2123 9.65753 21.4216C10.1466 21.49 14.7799 17.943 17.8545 16.3572C20.3501 15.07 21.8047 14.5816 21.8047 14.5816L24.9987 15.1983L18.9087 9.48438C18.9087 9.48438 14.5189 12.1481 13.4668 13.2302C12.4133 14.3116 9.64776 16.2602 9.64776 16.2602L6.66171 15.3693L4.73125 13.2302V13.2316Z"
        fill="url(#paint0_linear_8366_11749)"
      />
      <path
        d="M6.88092 8.05784L5.04883 10.7411L6.8272 12.7971L9.55929 13.6302L14.037 9.89761L16.6707 8.40459L18.5139 7.59389L15.7051 5.33203C15.7051 5.33203 12.193 5.54831 10.9212 7.10622C10.9212 7.10622 8.46394 9.44273 8.06767 9.13994L6.88301 8.05784H6.88092Z"
        fill="url(#paint1_linear_8366_11749)"
      />
      <path
        d="M11.2996 0.488281L7.1582 5.98526C7.1582 5.98526 7.91867 7.10851 8.34285 6.8727C8.82006 6.60968 10.574 4.81386 11.3582 4.44828C12.928 3.71572 12.2331 3.93549 14.0387 3.47433L15.3224 3.69549L11.2996 0.488281Z"
        fill="url(#paint2_linear_8366_11749)"
      />
    </g>
  </g>
  <defs>
    <filter
      id="filter0_d_8366_11749"
      x="0.000317812"
      y="0.488281"
      width="27.7884"
      height="26.515"
      filterUnits="userSpaceOnUse"
      color-interpolation-filters="sRGB"
    >
      <feFlood flood-opacity="0" result="BackgroundImageFix" />
      <feColorMatrix
        in="SourceAlpha"
        type="matrix"
        values="0 0 0 0 0 0 0 0 0 0 0 0 0 0 0 0 0 0 127 0"
        result="hardAlpha"
      />
      <feOffset dy="2.7907" />
      <feGaussianBlur stdDeviation="1.39535" />
      <feComposite in2="hardAlpha" operator="out" />
      <feColorMatrix
        type="matrix"
        values="0 0 0 0 0 0 0 0 0 0 0 0 0 0 0 0 0 0 0.25 0"
      />
      <feBlend
        mode="normal"
        in2="BackgroundImageFix"
        result="effect1_dropShadow_8366_11749"
      />
      <feBlend
        mode="normal"
        in="SourceGraphic"
        in2="effect1_dropShadow_8366_11749"
        result="shape"
      />
    </filter>
    <linearGradient
      id="paint0_linear_8366_11749"
      x1="24.9987"
      y1="24.4627"
      x2="8.96823"
      y2="-1.5926"
      gradientUnits="userSpaceOnUse"
    >
      <stop offset="0.333" stop-color="#3FB0FF" />
      <stop offset="0.719" stop-color="#9236EA" />
      <stop offset="1" stop-color="#F29A6B" />
    </linearGradient>
    <linearGradient
      id="paint1_linear_8366_11749"
      x1="24.9981"
      y1="24.4567"
      x2="8.96767"
      y2="-1.59867"
      gradientUnits="userSpaceOnUse"
    >
      <stop offset="0.333" stop-color="#3FB0FF" />
      <stop offset="0.719" stop-color="#9236EA" />
      <stop offset="1" stop-color="#F29A6B" />
    </linearGradient>
    <linearGradient
      id="paint2_linear_8366_11749"
      x1="24.9998"
      y1="24.459"
      x2="8.96936"
      y2="-1.59637"
      gradientUnits="userSpaceOnUse"
    >
      <stop offset="0.333" stop-color="#3FB0FF" />
      <stop offset="0.719" stop-color="#9236EA" />
      <stop offset="1" stop-color="#F29A6B" />
    </linearGradient>
    <clipPath id="clip0_8366_11749">
      <rect
        width="112.326"
        height="30"
        fill="white"
        transform="translate(0 -3)"
      />
    </clipPath>
  </defs>
</svg>
