<svg
  width="62"
  height="24"
  viewBox="0 0 62 24"
  fill="none"
  xmlns="http://www.w3.org/2000/svg"
>
  <g clip-path="url(#clip0_8359_10079)">
    <path
      fill-rule="evenodd"
      clip-rule="evenodd"
      d="M10.1448 0H13.5264V3.39287H16.908V6.78574H13.5264H10.1448H6.76321H3.38161V10.1786V13.5715V16.9644V20.3572H0V16.9644V13.5715V10.1786V6.78574V3.39287H3.38161V0H6.76321V3.39287H10.1448V0ZM6.76321 20.3572V23.7501H3.38161V20.3572H6.76321ZM16.908 16.9644V20.3572H13.5264V23.7501H10.1448V20.3572H6.76321V16.9644H10.1448H13.5264H16.908ZM16.908 13.5715H20.2896V16.9644H16.908V13.5715ZM16.908 10.1786V13.5715H13.5264H10.1448H6.76321V10.1786H10.1448H13.5264H16.908ZM16.908 10.1786H20.2896V6.78574H16.908V10.1786Z"
      fill="black"
    />
    <path
      fill-rule="evenodd"
      clip-rule="evenodd"
      d="M36.353 6.96875H29.5898V18.8437H37.1985C39.0661 18.8437 40.5801 17.3247 40.5801 15.4509C40.5801 14.2173 39.9239 13.1375 38.9427 12.5436C39.437 11.9537 39.7346 11.1925 39.7346 10.3616C39.7346 8.48774 38.2207 6.96875 36.353 6.96875ZM31.2806 17.1474V13.7544H37.1985C38.1323 13.7544 38.8892 14.5139 38.8892 15.4509C38.8892 16.3878 38.1323 17.1474 37.1985 17.1474H31.2806ZM36.353 12.0581H31.2806V8.66514H36.353C37.2869 8.66514 38.0439 9.42464 38.0439 10.3616C38.0439 11.2985 37.2869 12.0581 36.353 12.0581ZM58.7562 6.96875H50.7249V18.8437H52.4157V13.7544H57.4881V12.0581H52.4157V8.66514H58.7562V6.96875ZM41.8482 18.8437V11.2098H43.539V18.8437H41.8482ZM60.0242 11.2098V18.8437H61.7151V11.2098H60.0242ZM46.0752 11.2098V8.66514H47.7659V11.2098H49.4568V12.9063H47.7659V16.7232C47.7659 16.9575 47.9553 17.1474 48.1887 17.1474H49.034V18.8437H48.1887C47.0216 18.8437 46.0752 17.8944 46.0752 16.7232V12.9063H44.8071V11.2098H46.0752ZM41.8482 8.66514V10.3616H43.539V8.66514H41.8482ZM60.0242 10.3616V8.66514H61.7151V10.3616H60.0242Z"
      fill="black"
    />
  </g>
  <defs>
    <clipPath id="clip0_8359_10079">
      <rect width="61.7143" height="24" fill="white" />
    </clipPath>
  </defs>
</svg>
