<svg
  width="70"
  height="24"
  viewBox="0 0 70 24"
  fill="none"
  xmlns="http://www.w3.org/2000/svg"
>
  <path
    d="M29.0889 5.25894V11.0457L28.7986 10.9489C28.9922 10.1102 29.3857 9.49738 29.9792 9.11031C30.5727 8.71033 31.2823 8.51035 32.1081 8.51035C33.1661 8.51035 34.0048 8.86516 34.6241 9.5748C35.2563 10.2715 35.5724 11.2134 35.5724 12.4004V19H33.5209V13.1359C33.5209 12.194 33.3596 11.4908 33.0371 11.0263C32.7145 10.5618 32.2113 10.3296 31.5275 10.3296C30.7792 10.3296 30.1856 10.5747 29.747 11.065C29.3083 11.5424 29.0889 12.2327 29.0889 13.1359V19H27.0375V5.25894H29.0889ZM37.2203 13.8713C37.2203 12.8004 37.4203 11.8585 37.8203 11.0457C38.2332 10.2328 38.8073 9.60705 39.5428 9.16837C40.2782 8.72969 41.1362 8.51035 42.1168 8.51035C42.9554 8.51035 43.7167 8.70388 44.4005 9.09096C45.0972 9.47803 45.652 10.0715 46.0649 10.8715C46.4778 11.6585 46.7036 12.6327 46.7423 13.7939L46.7617 14.4519H39.3879C39.4524 15.4067 39.7234 16.155 40.2008 16.6969C40.6782 17.2259 41.3168 17.4904 42.1168 17.4904C42.6329 17.4904 43.0974 17.3485 43.5102 17.0646C43.936 16.7808 44.2521 16.3937 44.4586 15.9034L46.6068 16.0583C46.3101 17.0259 45.7488 17.8001 44.9231 18.3807C44.1102 18.9484 43.1748 19.2322 42.1168 19.2322C41.1362 19.2322 40.2782 19.0129 39.5428 18.5742C38.8073 18.1355 38.2332 17.5098 37.8203 16.6969C37.4203 15.8841 37.2203 14.9422 37.2203 13.8713ZM44.594 12.923C44.4779 12.0069 44.1941 11.336 43.7425 10.9102C43.3038 10.4715 42.7619 10.2522 42.1168 10.2522C41.3684 10.2522 40.762 10.4909 40.2975 10.9683C39.8331 11.4327 39.5428 12.0843 39.4266 12.923H44.594ZM50.4237 8.74259L50.4624 10.4264C50.7076 9.81994 51.0817 9.349 51.5849 9.01354C52.101 8.67808 52.701 8.51035 53.3848 8.51035C54.1203 8.51035 54.746 8.69743 55.2621 9.0716C55.7782 9.44577 56.1459 9.96832 56.3653 10.6392C56.5975 9.94251 56.9717 9.41352 57.4878 9.05225C58.0168 8.69098 58.6684 8.51035 59.4425 8.51035C60.1263 8.51035 60.7134 8.66518 61.2037 8.97483C61.7069 9.27159 62.0875 9.71027 62.3455 10.2909C62.6165 10.8715 62.752 11.5747 62.752 12.4004V19H60.7005V13.0391C60.7005 12.1359 60.5456 11.4456 60.236 10.9683C59.9263 10.478 59.4812 10.2328 58.9006 10.2328C58.4232 10.2328 58.0103 10.3425 57.662 10.5618C57.3265 10.7812 57.0685 11.1037 56.8878 11.5295C56.7072 11.9424 56.6169 12.4456 56.6169 13.0391V19H54.6815V13.0391C54.6815 12.1359 54.5202 11.4456 54.1977 10.9683C53.888 10.478 53.4493 10.2328 52.8816 10.2328C52.4042 10.2328 51.9914 10.3425 51.643 10.5618C51.3075 10.7812 51.0495 11.1037 50.8688 11.5295C50.6882 11.9424 50.5979 12.4456 50.5979 13.0391V19H48.5464V8.74259H50.4237ZM67.3342 8.74259V19H65.2827V8.74259H67.3342ZM67.3923 5.2783V7.27172H65.244V5.2783H67.3923Z"
    fill="#000202"
  />
  <path
    d="M12.0893 2.01869C11.9849 2.00004 11.8867 2.0684 11.8683 2.17405L10.6096 9.40161H9.67022L8.41156 2.17405C8.39314 2.0684 8.2949 2.00004 8.19053 2.01869C3.72073 2.89494 0.29471 6.74798 0.0122785 11.4586C0.0122785 11.4648 0 11.6637 0 11.7631C0 11.7756 0 11.788 0 11.7942C0 11.8315 0 11.8688 0 11.9061C0 11.9185 0 11.9309 0 11.9496C0 11.9993 0 12.0428 0 12.0925C0 17.089 3.52426 21.2466 8.19667 22.1663C8.30104 22.185 8.39928 22.1166 8.4177 22.011L9.67636 14.7834H10.6158L11.8683 22.0172C11.8867 22.1229 11.9849 22.1912 12.0893 22.1726C16.5591 21.2901 19.979 17.4371 20.2676 12.7264C20.2676 12.7202 20.2798 12.5213 20.2798 12.4219C20.2798 12.4095 20.2798 12.397 20.2798 12.3908C20.2798 12.3535 20.2798 12.3162 20.2798 12.279C20.2798 12.2665 20.2798 12.2541 20.2798 12.2355C20.2798 12.1857 20.2798 12.1422 20.2798 12.0925C20.286 7.096 16.7617 2.93844 12.0893 2.01869Z"
    fill="#FF6C15"
  />
</svg>
