<svg
  width="63"
  height="18"
  viewBox="0 0 63 18"
  fill="none"
  xmlns="http://www.w3.org/2000/svg"
>
  <g clip-path="url(#clip0_13766_36761)">
    <path
      d="M10.4948 0.147414L9.39913 6.58828H8.56174L7.46609 0.147414C7.45044 0.0613267 7.37217 0.0065441 7.28609 0.0221963C3.06 0.820457 0 4.53002 0 8.99872C0 13.4674 3.06 17.177 7.29391 17.9752C7.38 17.9909 7.45826 17.9361 7.47391 17.85L8.56957 11.4092H9.40696L10.5026 17.85C10.5183 17.9361 10.5965 17.9909 10.6826 17.9752C14.9165 17.1848 17.9765 13.4674 17.9765 8.99872C17.9765 4.53002 14.9087 0.820457 10.6748 0.0221963C10.5887 0.0065441 10.5104 0.0613267 10.4948 0.147414Z"
      fill="#FF6A00"
    />
    <path
      d="M30.7178 5.60111C30.2169 5.31155 29.6378 5.17068 28.9725 5.17068C28.3073 5.17068 27.6421 5.33503 27.1569 5.6559C26.6717 5.97677 26.3273 6.42285 26.1082 6.98633H25.9986V2.09503H23.416V14.8672H26.0691V9.32633C26.0691 8.91155 26.1551 8.55937 26.3117 8.26981C26.4682 7.98024 26.6873 7.75329 26.9612 7.59677C27.2351 7.44024 27.556 7.36981 27.916 7.36981C28.456 7.36981 28.8786 7.53416 29.176 7.86285C29.4734 8.19155 29.6221 8.65329 29.6221 9.24024V14.8672H32.2751V8.77068C32.2751 8.01937 32.1421 7.37764 31.8682 6.83764C31.5943 6.29764 31.203 5.88285 30.7099 5.59329L30.7178 5.60111ZM41.4943 6.3759C41.0873 5.96894 40.6099 5.67155 40.0621 5.46807C39.5143 5.26459 38.9273 5.16285 38.2934 5.16285C37.3543 5.16285 36.5325 5.37416 35.836 5.78894C35.1395 6.20372 34.5995 6.78285 34.216 7.52633C33.8325 8.26981 33.6447 9.13851 33.6447 10.1168C33.6447 11.095 33.8325 12.0029 34.216 12.7385C34.5995 13.4742 35.1473 14.0455 35.8517 14.4446C36.5638 14.8437 37.4091 15.0472 38.3951 15.0472C39.3812 15.0472 39.8821 14.922 40.4847 14.6794C41.0873 14.4368 41.5804 14.0924 41.9717 13.6542C42.3551 13.2159 42.6134 12.6994 42.7386 12.1124L40.2812 11.9481C40.1873 12.1907 40.0543 12.3942 39.8821 12.5585C39.7099 12.7229 39.4986 12.8481 39.256 12.9342C39.0134 13.0202 38.7395 13.0594 38.4421 13.0594C37.996 13.0594 37.6125 12.9655 37.2917 12.7776C36.9708 12.5898 36.7204 12.3237 36.5404 11.9794C36.3604 11.635 36.2743 11.2281 36.2743 10.7507H42.7934V10.0229C42.7934 9.20894 42.676 8.49677 42.4491 7.88633C42.2221 7.2759 41.9012 6.7672 41.4943 6.36807V6.3759ZM36.2743 9.11503C36.2899 8.77068 36.376 8.45764 36.5404 8.16807C36.7125 7.85503 36.9551 7.61242 37.2682 7.42459C37.5812 7.23677 37.9334 7.15068 38.3404 7.15068C38.7473 7.15068 39.0682 7.23677 39.3578 7.40111C39.6473 7.57329 39.8821 7.80024 40.0465 8.09764C40.2108 8.39503 40.2969 8.73155 40.2969 9.11503H36.2821H36.2743ZM61.1769 4.05937C61.5682 4.05937 61.9125 3.92633 62.1864 3.66024C62.4682 3.39416 62.6091 3.08111 62.6091 2.70546C62.6091 2.32981 62.4682 2.02459 62.1864 1.75851C61.9047 1.49242 61.5682 1.35938 61.1769 1.35938C60.7856 1.35938 60.4412 1.49242 60.1673 1.75851C59.8856 2.02459 59.7447 2.33764 59.7447 2.70546C59.7447 3.07329 59.8856 3.39416 60.1673 3.66024C60.4491 3.92633 60.7856 4.05937 61.1769 4.05937ZM55.0804 5.16285C54.376 5.16285 53.7734 5.3272 53.2569 5.6559C52.7404 5.98459 52.3882 6.42285 52.1925 6.97851H52.0908C51.9343 6.42285 51.6291 5.97677 51.1673 5.6559C50.7056 5.3272 50.1499 5.16285 49.4925 5.16285C48.8351 5.16285 48.2873 5.3272 47.8178 5.64807C47.356 5.96894 47.0195 6.41503 46.8238 6.97851H46.7143V5.28807H44.1864V14.8672H46.8395V9.11503C46.8395 8.76285 46.9099 8.44981 47.043 8.19155C47.176 7.92546 47.3638 7.72198 47.5986 7.57329C47.8334 7.42459 48.0995 7.35416 48.3969 7.35416C48.8351 7.35416 49.1873 7.49503 49.4534 7.76894C49.7195 8.05068 49.8525 8.41851 49.8525 8.88807V14.8594H52.4273V9.01329C52.4273 8.51242 52.5604 8.11329 52.8343 7.80807C53.1082 7.50285 53.4838 7.34633 53.9612 7.34633C54.4386 7.34633 54.736 7.47937 55.0178 7.74546C55.2995 8.01155 55.4404 8.41068 55.4404 8.94285V14.8594H58.0934V8.41851C58.0934 7.37764 57.8117 6.57938 57.256 6.00807C56.7004 5.43677 55.9725 5.15503 55.0804 5.15503V5.16285ZM59.8386 14.8672H62.4917V5.28807H59.8386V14.8672Z"
      fill="#1D2E34"
    />
  </g>
  <defs>
    <clipPath id="clip0_13766_36761">
      <rect width="62.6087" height="18" fill="white" />
    </clipPath>
  </defs>
</svg>
