<svg
  width="54"
  height="20"
  viewBox="0 0 54 20"
  fill="none"
  xmlns="http://www.w3.org/2000/svg"
>
  <g clip-path="url(#clip0_10580_15058)">
    <path
      d="M10.7578 0.0482636L7.67072 1.79482C6.55487 2.42614 6.45557 3.99586 7.48302 4.76273L10.635 7.11535C11.277 7.5945 11.2151 8.5753 10.518 8.97005L7.67382 10.5808C6.55727 11.2131 6.45962 12.7846 7.48932 13.5503L10.4902 15.7816C10.8016 16.0132 10.9851 16.3783 10.9851 16.7663V16.8582C10.9851 17.1407 11.2901 17.3179 11.5355 17.178L14.6387 15.4093C15.7552 14.773 15.8467 13.198 14.8115 12.4367L11.6617 10.1202C11.0151 9.64465 11.0718 8.66105 11.7688 8.2629L14.6444 6.6201C15.7591 5.98335 15.8503 4.41047 14.8167 3.64914L11.8065 1.43202C11.4926 1.20074 11.3072 0.83399 11.3072 0.444013V0.368664C11.3072 0.0867079 11.0032 -0.0905776 10.7578 0.0482636Z"
      fill="#075A5A"
    />
    <path
      d="M3.98824 2.8217L0.901185 4.56826C-0.214673 5.19957 -0.313951 6.76932 0.713475 7.53617L3.86542 9.88877C4.5074 10.3679 4.44558 11.3487 3.7485 11.7435L0.90425 13.3542C-0.212276 13.9865 -0.309917 15.558 0.719755 16.3237L3.72064 18.5551C4.03201 18.7866 4.21553 19.1518 4.21553 19.5398V19.6317C4.21553 19.9141 4.52053 20.0914 4.76594 19.9515L7.8692 18.1827C8.9856 17.5464 9.07715 15.9715 8.0419 15.2101L4.8922 12.8936C4.24556 12.4181 4.30224 11.4345 4.99922 11.0363L7.8749 9.39357C8.98955 8.75677 9.08075 7.18392 8.04715 6.42257L5.037 4.20546C4.72301 3.97418 4.53763 3.60743 4.53763 3.21745V3.1421C4.53763 2.86015 4.23364 2.68286 3.98824 2.8217Z"
      fill="#075A5A"
    />
    <path
      d="M27.0578 15.4652C27.0115 15.4652 26.9674 15.4448 26.9375 15.4094L22.8661 10.605C22.7711 10.4929 22.5879 10.5601 22.5879 10.707V15.3074C22.5879 15.3945 22.5173 15.4652 22.4301 15.4652H20.8824C20.7953 15.4652 20.7246 15.3945 20.7246 15.3074V4.26327C20.7246 4.17612 20.7953 4.10547 20.8824 4.10547H22.4301C22.5173 4.10547 22.5879 4.17612 22.5879 4.26327V8.95674C22.5879 9.10424 22.7723 9.17109 22.8669 9.05784L26.9538 4.16214C26.9837 4.12623 27.0281 4.10547 27.0749 4.10547H28.9877C29.1237 4.10547 29.196 4.26612 29.1058 4.36794L24.3907 9.68784C24.3374 9.74799 24.3378 9.83864 24.3917 9.89829L29.182 15.2016C29.2737 15.3031 29.2017 15.4652 29.0649 15.4652H27.0578Z"
      fill="#075A5A"
    />
    <path
      d="M37.9847 10.7419C37.9847 11.0257 37.9693 11.2864 37.9385 11.5241C37.9286 11.601 37.8622 11.6573 37.7847 11.6573H31.2083C31.1164 11.6573 31.0436 11.7356 31.0552 11.8267C31.1365 12.4677 31.3978 12.9887 31.839 13.3899C32.3184 13.8257 32.9068 14.0437 33.6042 14.0437C34.5713 14.0437 35.2646 13.6532 35.6841 12.8724C35.7125 12.8195 35.7671 12.7851 35.8272 12.7851H37.5214C37.6289 12.7851 37.7049 12.8902 37.6662 12.9905C37.3823 13.7265 36.9109 14.339 36.2521 14.8282C35.5438 15.3512 34.6612 15.6127 33.6042 15.6127C32.7434 15.6127 31.9697 15.422 31.2832 15.0407C30.6076 14.6484 30.0737 14.1036 29.6814 13.4062C29.3001 12.6979 29.1094 11.8807 29.1094 10.9545C29.1094 10.0283 29.2946 9.21645 29.6651 8.51905C30.0465 7.8108 30.575 7.26595 31.2505 6.88455C31.937 6.5032 32.7216 6.3125 33.6042 6.3125C34.4542 6.3125 35.2115 6.49775 35.8762 6.8682C36.5409 7.2387 37.0584 7.76175 37.4289 8.43735C37.7994 9.10205 37.9847 9.87025 37.9847 10.7419ZM35.8852 10.4223C35.971 10.4191 36.0389 10.3479 36.0333 10.2622C35.9911 9.61185 35.748 8.88615 35.3041 8.5027C34.8246 8.08865 34.2308 7.8816 33.5225 7.8816C32.8796 7.8816 32.3293 8.08865 31.8717 8.5027C31.3901 8.93845 31.1788 9.7483 31.0795 10.4169C31.0652 10.5131 31.1426 10.5974 31.2398 10.5938L35.8852 10.4223Z"
      fill="#075A5A"
    />
    <path
      d="M46.0157 8.15175C46.358 7.52725 46.7621 7.02075 47.3069 6.73745C47.8517 6.45415 48.4674 6.3125 49.1539 6.3125C49.9384 6.3125 50.6521 6.50865 51.2951 6.9009C51.9486 7.2823 52.4611 7.82165 52.8316 8.51905C53.2021 9.21645 53.3871 10.0173 53.3871 10.9218C53.3871 11.8262 53.2021 12.638 52.8316 13.3572C52.4611 14.0655 51.9486 14.6212 51.2951 15.0244C50.6521 15.4166 49.9384 15.6128 49.1539 15.6128C48.4674 15.6128 47.8572 15.4766 47.3233 15.2042C46.7893 14.9208 46.2746 14.388 46.0157 13.7899V19.5902C46.0157 19.6774 45.945 19.7481 45.8579 19.7481H44.3101C44.223 19.7481 44.1523 19.6774 44.1523 19.5902V6.6174C44.1523 6.53025 44.223 6.4596 44.3101 6.4596H45.8579C45.945 6.4596 46.0157 6.53025 46.0157 6.6174V8.15175ZM51.4911 10.9218C51.4911 10.3007 51.3606 9.7667 51.0991 9.31995C50.8481 8.8623 50.5106 8.51905 50.0856 8.29025C49.6715 8.0505 49.2247 7.93065 48.7453 7.93065C48.2767 7.93065 47.83 8.0505 47.405 8.29025C46.9909 8.52995 46.6531 8.87865 46.3916 9.3363C46.141 9.79395 46.0157 10.3334 46.0157 10.9545C46.0157 11.5756 46.141 12.1204 46.3916 12.589C46.6531 13.0466 46.9909 13.3953 47.405 13.635C47.83 13.8748 48.2767 13.9946 48.7453 13.9946C49.2247 13.9946 49.6715 13.8748 50.0856 13.635C50.5106 13.3844 50.8481 13.0248 51.0991 12.5563C51.3606 12.0877 51.4911 11.5429 51.4911 10.9218Z"
      fill="#075A5A"
    />
    <path
      d="M41.3537 15.5974C40.4723 15.5974 40.2569 15.393 40.0265 15.1623C39.695 14.8412 39.5293 14.3154 39.5293 13.5847V4.025C39.5293 3.93784 39.5999 3.86719 39.6871 3.86719H41.1283C41.2155 3.86719 41.2861 3.93227 41.2861 4.01942C41.2861 5.20609 41.2861 12.9368 41.2861 13.2016C41.2861 13.4045 41.3918 13.5272 41.4519 13.5874C41.512 13.6476 41.6013 13.7452 41.9492 13.7356C42.159 13.7356 42.3555 13.7356 42.5539 13.7356C42.641 13.7356 42.7117 13.8062 42.7117 13.8934V15.4396C42.7117 15.5268 42.641 15.5974 42.5539 15.5974C42.3614 15.5974 42.1826 15.5974 42.0168 15.5974C41.8065 15.5974 41.6079 15.5974 41.3537 15.5974Z"
      fill="#075A5A"
    />
  </g>
  <defs>
    <clipPath id="clip0_10580_15058">
      <rect width="53.5" height="20" fill="white" />
    </clipPath>
  </defs>
</svg>
