<svg
  width="84"
  height="22"
  viewBox="0 0 84 22"
  fill="none"
  xmlns="http://www.w3.org/2000/svg"
>
  <g clip-path="url(#clip0_8359_10083)">
    <path
      d="M6.89404 4.65788L3.32422 7.15708V2.49922L6.89404 0L10.4516 2.49049L10.4525 9.65367L6.89404 7.15708V4.65788Z"
      fill="black"
    />
    <path
      d="M0 4.82031L3.32356 7.15452V16.8169L6.89336 14.3238V19.3074L3.32356 21.8067L0 19.462V4.82031Z"
      fill="black"
    />
    <path
      d="M6.89278 14.3247L10.4511 16.816V12.1494L6.89258 9.64844L6.89278 14.3247Z"
      fill="black"
    />
    <path
      d="M22.4637 5.58594H20.2344V16.8167H27.7949V14.9462H22.4637V5.58594Z"
      fill="black"
    />
    <path
      d="M38.913 9.64851V16.8169H41.1354V9.02941H45.5837V7.15625H41.4044C40.0281 7.15625 38.9121 8.27227 38.9121 9.64851H38.913Z"
      fill="black"
    />
    <path
      d="M56.2695 16.8334H58.4911C58.4911 16.8334 58.4911 11.9616 58.4911 9.02401L56.2695 7.46875V16.8334Z"
      fill="black"
    />
    <path
      d="M61.5416 7.15625H58.5V9.02329H60.7382C61.711 9.02329 62.4995 9.81179 62.4995 10.7846V16.8336H64.7341V10.3489C64.7341 8.58577 63.3046 7.15714 61.5424 7.15714L61.5416 7.15625Z"
      fill="black"
    />
    <path
      d="M83.236 9.48172C82.8524 8.75778 82.2879 8.18929 81.5434 7.77631C80.8098 7.36236 79.9449 7.15625 78.9481 7.15625C78.011 7.15625 77.1709 7.34579 76.4249 7.72474C75.6921 8.10376 75.1097 8.65479 74.6773 9.37866C74.2566 10.0904 74.0469 10.9348 74.0469 11.9111C74.0469 12.8874 74.2394 13.6968 74.6237 14.4435C75.0197 15.1901 75.5848 15.7761 76.3177 16.2004C77.0623 16.6135 77.9395 16.8204 78.9481 16.8204C79.8968 16.8204 80.7376 16.6248 81.4705 16.2345C82.2157 15.8442 82.7919 15.2809 83.2002 14.5456C83.6217 13.799 83.8307 12.9205 83.8307 11.9093C83.8307 11.0021 83.6327 10.1925 83.236 9.48V9.48172ZM80.8902 14.2025C80.4186 14.7884 79.771 15.0809 78.9467 15.0809C78.1224 15.0809 77.5112 14.7997 77.0052 14.2365C76.5109 13.6619 76.2634 12.8865 76.2634 11.9102C76.2634 11.0029 76.5047 10.2737 76.9873 9.72186C77.4816 9.17083 78.1347 8.89487 78.9467 8.89487C79.7593 8.89487 80.4069 9.17083 80.8902 9.72186C81.3722 10.2729 81.6135 11.0029 81.6135 11.9102C81.6135 12.8175 81.3722 13.6043 80.8902 14.2016V14.2025Z"
      fill="black"
    />
    <path
      d="M53.1839 7.77631C52.4845 7.36236 51.6593 7.15625 50.7074 7.15625C49.8133 7.15625 49.0116 7.34579 48.3008 7.72474C47.6013 8.10376 47.0459 8.65479 46.6329 9.37866C46.2312 10.0904 46.0312 10.9348 46.0312 11.9111C46.0312 12.8874 46.2146 13.6968 46.5814 14.4435C46.9595 15.1901 47.4983 15.7761 48.1978 16.2005C48.9086 16.6135 49.7451 16.8204 50.7083 16.8204C51.6139 16.8204 52.4164 16.6248 53.1159 16.2345C53.8267 15.8442 54.3768 15.2809 54.7663 14.5456C54.8099 14.4635 54.851 14.3797 54.8903 14.295H52.4819C52.04 14.8164 51.4506 15.0801 50.7083 15.0801C49.9661 15.0801 49.3382 14.7989 48.8553 14.2356C48.4728 13.7702 48.2484 13.1712 48.1759 12.442H54.2205V12.4402H55.3452C55.3592 12.2674 55.3679 12.0918 55.3679 11.9102C55.3679 11.0029 55.1784 10.1934 54.8003 9.48083C54.4336 8.75696 53.8948 8.18846 53.1839 7.77541V7.77631ZM48.8369 9.72276C49.3085 9.17173 49.932 8.89576 50.7066 8.89576C51.4811 8.89576 52.0994 9.17173 52.5604 9.72276C52.8347 10.0511 53.0259 10.4449 53.1368 10.8999H48.2606C48.3715 10.4449 48.5619 10.0511 48.8369 9.72276Z"
      fill="black"
    />
    <path
      d="M35.7364 7.77631C35.0037 7.36236 34.1392 7.15625 33.142 7.15625C32.205 7.15625 31.3649 7.34579 30.62 7.72474C30.3266 7.87668 30.0586 8.0566 29.8141 8.26354L31.4889 9.43717C31.9369 9.07829 32.487 8.89576 33.1411 8.89576C33.9541 8.89576 34.6003 9.17172 35.0832 9.72276C35.5652 10.2737 35.8071 11.0038 35.8071 11.9111C35.8071 12.8184 35.5652 13.6052 35.0832 14.2025C34.6126 14.7884 33.9654 15.0809 33.1411 15.0809C32.3168 15.0809 31.7064 14.7997 31.1999 14.2365C30.7056 13.6619 30.4585 12.8865 30.4585 11.9102C30.4585 11.677 30.4751 11.4561 30.5065 11.2465L28.6081 9.91134C28.3645 10.5017 28.2422 11.1671 28.2422 11.9102C28.2422 12.8525 28.4343 13.696 28.8186 14.4426C29.215 15.1892 29.7791 15.7752 30.5118 16.1996C31.2567 16.6126 32.1325 16.8196 33.142 16.8196C34.0912 16.8196 34.9313 16.624 35.6648 16.2337C36.4097 15.8433 36.986 15.28 37.3938 14.5448C37.8147 13.7982 38.0243 12.9197 38.0243 11.9085C38.0243 11.0012 37.8261 10.1917 37.4296 9.47911C37.0453 8.75517 36.4813 8.18667 35.7364 7.77362V7.77631Z"
      fill="black"
    />
    <path
      d="M65.5977 9.02934H70.9479L65.6012 14.9927V16.8169H73.5989V14.9456H68.2881L73.5989 9.05904V7.15625H65.5977V9.02934Z"
      fill="black"
    />
  </g>
  <defs>
    <clipPath id="clip0_8359_10083">
      <rect width="83.875" height="22" fill="white" />
    </clipPath>
  </defs>
</svg>
