<svg
  width="64"
  height="18"
  viewBox="0 0 64 18"
  fill="none"
  xmlns="http://www.w3.org/2000/svg"
>
  <g clip-path="url(#clip0_10504_13161)">
    <mask
      id="mask0_10504_13161"
      style="mask-type: luminance"
      maskUnits="userSpaceOnUse"
      x="0"
      y="0"
      width="64"
      height="18"
    >
      <path d="M63.75 0H0V18H63.75V0Z" fill="white" />
    </mask>
    <g mask="url(#mask0_10504_13161)">
      <path
        d="M36.5787 0V17.653H32.418V1.40402L36.5787 0Z"
        fill="url(#paint0_linear_10504_13161)"
      />
      <path
        d="M42.213 1.40402V3.52717H38.0352V0L42.213 1.40402ZM42.213 4.33192V17.653H38.0352V4.33192H42.213Z"
        fill="url(#paint1_linear_10504_13161)"
      />
      <path
        d="M51.938 8.56028H48.3595V7.85828C48.3902 7.46613 48.3497 7.07165 48.2396 6.69398C48.2396 6.52276 47.9999 6.45427 47.726 6.45427C47.5274 6.43247 47.3321 6.5171 47.2123 6.67686C47.0837 6.87473 47.0236 7.1093 47.0411 7.34462C47.0324 7.64948 47.0612 7.95427 47.1267 8.2521C47.2297 8.50597 47.4092 8.72138 47.6404 8.86853C48.1755 9.26228 48.7492 9.60068 49.3526 9.8787C50.2355 10.2323 51.0261 10.7828 51.6641 11.4882C52.0913 12.143 52.301 12.916 52.2634 13.697C52.3042 14.5348 52.1579 15.3712 51.8353 16.1454C51.5265 16.7203 51.0314 17.1732 50.4313 17.4296C49.6718 17.7426 48.8555 17.8942 48.0341 17.8748C47.1323 17.8902 46.2362 17.7272 45.3974 17.3953C44.755 17.1479 44.2211 16.6808 43.8906 16.0769C43.5868 15.3216 43.4467 14.5104 43.4797 13.697V12.9778H47.0753V13.8168C47.0389 14.2836 47.0853 14.7531 47.2123 15.2037C47.2909 15.4234 47.5117 15.5587 47.7431 15.529C47.967 15.5554 48.1899 15.4726 48.3424 15.3065C48.4909 15.0286 48.5507 14.7119 48.5136 14.3989C48.5692 13.9915 48.4911 13.5769 48.291 13.2176C47.5403 12.6799 46.7505 12.1991 45.9281 11.7793C45.0532 11.381 44.302 10.754 43.7536 9.96435C43.4819 9.3561 43.3475 8.6955 43.3598 8.0295C43.3138 7.21913 43.4605 6.40939 43.7879 5.66665C44.1155 5.12155 44.6248 4.70931 45.2261 4.50234C45.968 4.21425 46.7591 4.07463 47.5547 4.09141C48.3222 4.0748 49.0868 4.19064 49.8149 4.43385C50.3534 4.60334 50.8415 4.90332 51.236 5.30708C51.515 5.59673 51.7205 5.94902 51.8353 6.33441C51.9168 6.82081 51.9512 7.31393 51.938 7.8069V8.56028Z"
        fill="black"
      />
      <path
        d="M63.3583 4.33024L60.4132 9.63809L63.5295 17.6513H59.6428L57.3997 11.8469V17.6513H53.3418V1.40234H57.3997V8.25119L59.4886 4.36448L63.3583 4.33024Z"
        fill="black"
      />
      <path
        d="M9.663 4.62482C9.57337 3.95433 9.3141 3.31782 8.90963 2.77562C8.47298 2.19309 7.8789 1.74753 7.19738 1.49145C6.46282 1.19713 5.67712 1.05163 4.88588 1.0634C4.06506 1.04932 3.24981 1.20072 2.48877 1.50858C1.80746 1.77348 1.21421 2.22435 0.77655 2.80986C0.396668 3.36259 0.171982 4.00709 0.125909 4.67619C0.0251878 5.81473 -0.0148207 6.95783 0.00605315 8.10062V10.9087C-0.016397 12.0857 0.023611 13.2631 0.125909 14.4359C0.207753 15.1084 0.467854 15.7468 0.879285 16.2851C1.32053 16.8629 1.91316 17.3074 2.59151 17.5692C3.33346 17.8586 4.12377 18.0038 4.92013 17.9972C5.74856 18.0162 6.57154 17.8586 7.33436 17.5349C8.0118 17.2716 8.60408 16.8275 9.04658 16.2508C9.40058 15.688 9.61215 15.0474 9.663 14.3845C9.663 13.6996 9.78285 12.5524 9.78285 10.9601V8.13489C9.78285 6.4569 9.73147 5.29259 9.663 4.62482ZM5.55365 14.5728C5.59583 14.8337 5.48021 15.0949 5.25873 15.239C5.03726 15.3832 4.75162 15.3832 4.53015 15.239C4.30868 15.0949 4.19305 14.8337 4.23523 14.5728V4.47072C4.28753 4.14726 4.56679 3.90954 4.89444 3.90954C5.22209 3.90954 5.50135 4.14726 5.55365 4.47072V14.5728Z"
        fill="black"
      />
      <path
        d="M20.5528 6.00821C20.4796 5.68794 20.333 5.38902 20.1247 5.13498C19.8864 4.80576 19.56 4.55054 19.183 4.39873C18.7253 4.21877 18.2364 4.13147 17.7447 4.14189C17.2837 4.14057 16.8279 4.23991 16.4092 4.43297C15.9753 4.64139 15.5902 4.93894 15.2791 5.30621V1.40234H11.2383V17.6513H15.0223L15.2791 16.6411C15.5875 17.0244 15.9724 17.3392 16.4092 17.5657C16.8197 17.7852 17.2792 17.8971 17.7447 17.891C18.3576 17.9022 18.9578 17.7161 19.4569 17.3602C19.8964 17.0588 20.2219 16.6187 20.3815 16.1103C20.5214 15.3944 20.5789 14.6648 20.5528 13.9358V7.92591C20.5935 7.28732 20.5935 6.64679 20.5528 6.00821ZM16.5119 14.9118C16.5119 15.2522 16.2359 15.5281 15.8955 15.5281C15.5551 15.5281 15.2791 15.2522 15.2791 14.9118V7.06979C15.2791 6.72936 15.5551 6.45339 15.8955 6.45339C16.2359 6.45339 16.5119 6.72936 16.5119 7.06979V14.9118Z"
        fill="black"
      />
      <path
        d="M31.082 9.45248C31.1298 8.43428 30.9785 7.4165 30.6369 6.45613C30.332 5.72181 29.7811 5.11646 29.0787 4.74391C28.2164 4.2834 27.2477 4.05894 26.2707 4.09326C25.4186 4.07478 24.5741 4.25659 23.805 4.62405C23.1224 4.94354 22.576 5.496 22.2641 6.18217C21.9033 7.04857 21.7395 7.98428 21.7847 8.9217V12.8084C21.7611 13.5674 21.8301 14.3264 21.9901 15.0686C22.1398 15.5981 22.4027 16.0889 22.7606 16.5068C23.172 16.9705 23.6973 17.3187 24.2845 17.5171C25.0097 17.7754 25.7749 17.9029 26.5446 17.8937C27.2983 17.9124 28.0485 17.7845 28.7534 17.5171C29.3246 17.2667 29.8247 16.8784 30.2087 16.387C30.542 15.9667 30.7866 15.4833 30.9279 14.9659C31.0467 14.3396 31.0984 13.7025 31.082 13.0653V12.0893H27.2466V14.8289C27.2466 15.2166 26.9323 15.5309 26.5446 15.5309C26.1569 15.5309 25.8426 15.2166 25.8426 14.8289V11.2332H31.082V9.45248ZM27.024 7.44921V9.04155H25.8426V7.46634V7.03828C25.8426 6.71677 26.1033 6.45613 26.4248 6.45613C26.7492 6.456 27.0147 6.71402 27.024 7.03828V7.44921Z"
        fill="black"
      />
    </g>
  </g>
  <defs>
    <linearGradient
      id="paint0_linear_10504_13161"
      x1="33.2997"
      y1="0"
      x2="33.2997"
      y2="17.55"
      gradientUnits="userSpaceOnUse"
    >
      <stop stop-color="#FFE39D" />
      <stop offset="1" stop-color="#C59D4E" />
    </linearGradient>
    <linearGradient
      id="paint1_linear_10504_13161"
      x1="38.9205"
      y1="0"
      x2="38.9205"
      y2="17.55"
      gradientUnits="userSpaceOnUse"
    >
      <stop stop-color="#FFE39D" />
      <stop offset="1" stop-color="#C59D4E" />
    </linearGradient>
    <clipPath id="clip0_10504_13161">
      <rect width="63.75" height="18" fill="white" />
    </clipPath>
  </defs>
</svg>
