<svg
  width="56"
  height="16"
  viewBox="0 0 56 16"
  fill="none"
  xmlns="http://www.w3.org/2000/svg"
>
  <rect width="56" height="16" fill="#1E1E1E" />
  <path
    d="M-1724 -1454C-1724 -1455.1 -1723.1 -1456 -1722 -1456H14234C14235.1 -1456 14236 -1455.1 14236 -1454V2030C14236 2031.1 14235.1 2032 14234 2032H-1722C-1723.1 2032 -1724 2031.1 -1724 2030V-1454Z"
    fill="#444444"
  />
  <path
    d="M-1722 -1455H14234V-1457H-1722V-1455ZM14235 -1454V2030H14237V-1454H14235ZM14234 2031H-1722V2033H14234V2031ZM-1723 2030V-1454H-1725V2030H-1723ZM-1722 2031C-1722.55 2031 -1723 2030.55 -1723 2030H-1725C-1725 2031.66 -1723.66 2033 -1722 2033V2031ZM14235 2030C14235 2030.55 14234.6 2031 14234 2031V2033C14235.7 2033 14237 2031.66 14237 2030H14235ZM14234 -1455C14234.6 -1455 14235 -1454.55 14235 -1454H14237C14237 -1455.66 14235.7 -1457 14234 -1457V-1455ZM-1722 -1457C-1723.66 -1457 -1725 -1455.66 -1725 -1454H-1723C-1723 -1454.55 -1722.55 -1455 -1722 -1455V-1457Z"
    fill="white"
    fill-opacity="0.1"
  />
  <rect x="-64" y="-128" width="746" height="752" rx="16" fill="white" />
  <rect
    x="-63.5"
    y="-127.5"
    width="745"
    height="751"
    rx="15.5"
    stroke="#D4D4D8"
    stroke-opacity="0.56"
  />
  <mask id="path-5-inside-1_2690_5222" fill="white">
    <path d="M0 -16H618V32H0V-16Z" />
  </mask>
  <path
    d="M618 31H0V33H618V31Z"
    fill="#D4D4D8"
    fill-opacity="0.56"
    mask="url(#path-5-inside-1_2690_5222)"
  />
  <path
    d="M19.1544 12.1956C19.5146 13.3826 20.2993 14.104 21.8466 14.104C23.1189 14.104 24.03 13.5321 24.03 12.5347C24.03 11.5373 22.9704 11.2202 21.4011 10.8389L20.6164 10.6272C18.7721 10.1816 17.3934 9.35488 17.3934 7.42528C17.3934 5.49571 19.1745 4.16016 21.6549 4.16016C24.1354 4.16016 25.7258 5.21977 25.9797 7.40423H23.9447C23.6266 6.4078 22.8841 5.85694 21.5917 5.85694C20.2351 5.85694 19.5779 6.4078 19.5779 7.23463C19.5779 8.14571 20.2351 8.4006 21.5917 8.80398L22.7787 9.14312C25.0053 9.77931 26.1713 10.4576 26.1713 12.3229C26.1713 14.4642 24.327 15.842 21.7824 15.842C19.0681 15.842 17.4787 14.676 17.0332 12.1956H19.1534H19.1544Z"
    fill="black"
  />
  <path
    d="M38.5747 10.0543C38.5747 13.4468 36.4756 15.863 32.9135 15.863C29.3513 15.863 27.3164 13.4458 27.3164 10.0543C27.3164 6.66269 29.4787 4.16016 32.9556 4.16016C36.4325 4.16016 38.5738 6.59845 38.5738 10.0543H38.5747ZM29.5851 10.0332C29.5851 12.5136 30.7722 14.0829 32.8924 14.0829C35.0126 14.0829 36.2207 12.5136 36.2207 10.0332C36.2207 7.55272 34.9915 5.94122 32.8924 5.94122C30.7932 5.94122 29.5851 7.65808 29.5851 10.0332Z"
    fill="black"
  />
  <path d="M40.5273 0.429688H42.6686V15.5883H40.5273V0.429688Z" fill="black" />
  <path
    d="M48.2411 15.5841L44.0859 4.45312H46.5242L48.2632 9.52036L49.4923 13.2732H49.5345C50.0432 11.7249 50.4034 10.9202 50.9122 9.28762L52.5447 4.45413H54.8556L50.573 15.585H48.2411V15.5841Z"
    fill="black"
  />
  <path
    d="M5.85989 0.727902L0.727905 5.85989C0.325073 6.26275 0.325073 6.91585 0.727905 7.31868C1.13074 7.72151 1.78386 7.72151 2.18669 7.31868L7.3187 2.18668C7.72153 1.78385 7.72153 1.13074 7.3187 0.727902C6.91587 0.325074 6.2627 0.325074 5.85989 0.727902Z"
    fill="black"
  />
  <path
    d="M10.1334 5.00525L5.00134 10.1373C4.59851 10.5401 4.59851 11.1932 5.00134 11.596C5.40417 11.9989 6.05729 11.9989 6.46012 11.596L11.5921 6.46404C11.995 6.0612 11.995 5.40808 11.5921 5.00525C11.1893 4.60242 10.5362 4.60242 10.1334 5.00525Z"
    fill="black"
  />
  <path
    d="M6.45753 4.40759L1.32556 9.53958C0.92273 9.94241 0.92273 10.5955 1.32556 10.9984C1.72839 11.4012 2.38151 11.4012 2.78434 10.9984L7.9163 5.86637C8.31913 5.46354 8.31913 4.81042 7.9163 4.40759C7.51347 4.00476 6.86036 4.00476 6.45753 4.40759Z"
    fill="black"
  />
  <path
    d="M10.731 8.68103L5.599 13.813C5.19617 14.2159 5.19617 14.869 5.599 15.2718C6.00183 15.6746 6.65494 15.6746 7.05777 15.2718L12.1898 10.1398C12.5926 9.73697 12.5926 9.08386 12.1898 8.68103C11.7869 8.2782 11.1338 8.2782 10.731 8.68103Z"
    fill="black"
  />
</svg>
