<svg
  width="63"
  height="14"
  viewBox="0 0 63 14"
  fill="none"
  xmlns="http://www.w3.org/2000/svg"
>
  <g clip-path="url(#clip0_10580_15274)">
    <path
      fill-rule="evenodd"
      clip-rule="evenodd"
      d="M3.60234 0H13.1295C13.3569 0 13.5669 0.121609 13.6802 0.318901L16.4559 5.1492C16.5998 5.3997 16.557 5.71586 16.3517 5.91899L8.71165 13.4778C8.46416 13.7227 8.06605 13.7227 7.81856 13.4778L0.188803 5.9292C-0.0212829 5.72136 -0.0606227 5.39598 0.0938642 5.14391L3.06082 0.303403C3.17637 0.114888 3.38142 0 3.60234 0ZM11.8994 2.15656V3.51188H9.18547V4.45156C11.0916 4.55198 12.5216 4.9644 12.5322 5.45874L12.5322 6.48931C12.5215 6.98364 11.0916 7.39606 9.18547 7.49649V9.80256H7.3834V7.49649C5.47731 7.39606 4.04726 6.98364 4.03668 6.48931L4.03671 5.45874C4.04733 4.9644 5.47731 4.55198 7.3834 4.45156V3.51188H4.66948V2.15656H11.8994ZM8.28445 6.7885C10.3185 6.7885 12.0187 6.43976 12.4348 5.97404C12.082 5.5791 10.8057 5.26827 9.18547 5.1829V6.16676C8.89509 6.18206 8.59361 6.19012 8.28445 6.19012C7.97525 6.19012 7.67381 6.18206 7.3834 6.16676V5.1829C5.76315 5.26827 4.4869 5.5791 4.13406 5.97404C4.55014 6.43976 6.25032 6.7885 8.28445 6.7885Z"
      fill="#009393"
    />
    <path
      d="M20.174 2.61912L22.3763 2.37109V4.51033H24.2881V6.37053H22.361V9.25384C22.361 9.93592 22.6465 10.2769 23.2175 10.2769C23.5845 10.2769 23.8904 10.2149 24.1351 10.0909L24.6398 11.9511C24.1402 12.1475 23.61 12.2611 23.0492 12.2921C22.1622 12.3335 21.4587 12.1217 20.9387 11.6566C20.4289 11.1812 20.174 10.3803 20.174 9.25384V6.37053H18.8281V4.51033H20.174V2.61912Z"
      fill="#009393"
    />
    <path
      d="M32.5307 9.02463H26.979C27.0402 9.41735 27.2492 9.74287 27.6061 10.0013C27.9629 10.2493 28.437 10.3733 29.0284 10.3733C29.8746 10.3733 30.5272 10.1717 30.986 9.76872L32.2248 11.1639C31.4703 11.9183 30.3895 12.2955 28.9825 12.2955C27.6367 12.2955 26.5916 11.9286 25.8472 11.1949C25.1131 10.4611 24.7461 9.46902 24.7461 8.21854C24.7461 7.04043 25.108 6.08965 25.8319 5.36623C26.5558 4.63249 27.5296 4.26562 28.7531 4.26562C30.0888 4.26562 31.1083 4.679 31.8119 5.50575C32.5256 6.3325 32.7652 7.50546 32.5307 9.02463ZM26.979 7.39695H30.5578C30.5374 7.00426 30.3538 6.70456 30.0072 6.49787C29.6605 6.28084 29.2425 6.17232 28.7531 6.17232C28.3147 6.17232 27.9374 6.28084 27.6214 6.49787C27.3053 6.71487 27.0912 7.01458 26.979 7.39695Z"
      fill="#009393"
    />
    <path
      d="M34.3674 2.61912L36.5698 2.37109V4.51033H38.4813V6.37053H36.5544V9.25384C36.5544 9.93592 36.8399 10.2769 37.4108 10.2769C37.7779 10.2769 38.0839 10.2149 38.3283 10.0909L38.833 11.9511C38.3335 12.1475 37.8035 12.2611 37.2425 12.2921C36.3557 12.3335 35.6519 12.1217 35.1319 11.6566C34.6221 11.1812 34.3674 10.3803 34.3674 9.25384V6.37053H33.0215V4.51033H34.3674V2.61912Z"
      fill="#009393"
    />
    <path
      d="M39.6602 1.27344H41.8776V5.41237C42.4182 4.69929 43.1827 4.34277 44.1719 4.34277C46.1804 4.34277 47.1846 5.56739 47.1846 8.01668V12.1246H44.9825V8.03218C44.9825 7.5051 44.8497 7.09691 44.5847 6.80752C44.33 6.51817 43.9831 6.37349 43.5446 6.37349C43.0656 6.37349 42.6626 6.53882 42.3365 6.86953C42.0204 7.20024 41.8623 7.66012 41.8623 8.24918V12.1246H39.6602V1.27344Z"
      fill="#009393"
    />
    <path
      d="M55.8215 9.02463H50.2699C50.3311 9.41735 50.54 9.74287 50.8969 10.0013C51.2537 10.2493 51.728 10.3733 52.3194 10.3733C53.1655 10.3733 53.8181 10.1717 54.277 9.76872L55.5158 11.1639C54.7612 11.9183 53.6805 12.2955 52.2733 12.2955C50.9276 12.2955 49.8824 11.9286 49.138 11.1949C48.4038 10.4611 48.0371 9.46902 48.0371 8.21854C48.0371 7.04043 48.3991 6.08965 49.123 5.36623C49.8469 4.63249 50.8204 4.26562 52.0438 4.26562C53.3796 4.26562 54.3993 4.679 55.1027 5.50575C55.8163 6.3325 56.056 7.50546 55.8215 9.02463ZM50.2699 7.39695H53.8485C53.8283 7.00426 53.6446 6.70456 53.298 6.49787C52.9515 6.28084 52.5335 6.17232 52.0438 6.17232C51.6054 6.17232 51.2284 6.28084 50.9122 6.49787C50.596 6.71487 50.3819 7.01458 50.2699 7.39695Z"
      fill="#009393"
    />
    <path
      d="M56.7344 4.4829H58.7838L58.9522 5.31997C59.4313 4.63789 60.1043 4.29688 60.9709 4.29688C61.6846 4.29688 62.3013 4.52941 62.8213 4.99445L61.9038 6.76163C61.547 6.50327 61.144 6.3741 60.6957 6.3741C60.1958 6.3741 59.7778 6.53428 59.4415 6.85464C59.1052 7.16469 58.9368 7.59357 58.9368 8.14127V12.1252H56.7344V4.4829Z"
      fill="#009393"
    />
  </g>
  <defs>
    <clipPath id="clip0_10580_15274">
      <rect width="62.8293" height="14" fill="white" />
    </clipPath>
  </defs>
</svg>
