<svg
  width="64"
  height="20"
  viewBox="0 0 64 20"
  fill="none"
  xmlns="http://www.w3.org/2000/svg"
>
  <g clip-path="url(#clip0_12162_21913)">
    <path
      d="M20.4599 2.62461L22.6964 2.375V4.51167H24.6334V6.36877H22.6765V9.25431C22.6765 9.93324 22.966 10.2827 23.5451 10.2827C23.9145 10.2827 24.224 10.2228 24.4737 10.093L24.9829 11.9501C24.4737 12.1498 23.9345 12.2596 23.3654 12.2896C22.4668 12.3295 21.7479 12.1198 21.2287 11.6506C20.7095 11.1713 20.4499 10.3725 20.4499 9.24431V6.37877H19.082V4.51167H20.4499V2.62461H20.4599Z"
      fill="#D3B25B"
    />
    <path
      d="M27.358 7.39855H30.9924C30.9724 7.00916 30.7827 6.70962 30.4332 6.5C30.0838 6.28032 29.6545 6.17051 29.1652 6.17051C28.7159 6.17051 28.3365 6.28032 28.017 6.5C27.6875 6.71962 27.4679 7.01916 27.358 7.39855ZM32.9893 9.03604H27.358C27.4179 9.42544 27.6276 9.75493 27.9971 10.0145C28.3565 10.2641 28.8357 10.3839 29.4448 10.3839C30.3035 10.3839 30.9624 10.1842 31.4317 9.77488L32.6897 11.1727C31.921 11.9315 30.8326 12.3009 29.4049 12.3009C28.037 12.3009 26.9786 11.9315 26.2198 11.2026C25.471 10.4638 25.1016 9.47534 25.1016 8.2273C25.1016 7.04911 25.471 6.1006 26.1998 5.37172C26.9387 4.63288 27.9271 4.27344 29.1652 4.27344C30.5231 4.27344 31.5515 4.68279 32.2704 5.51153C32.9893 6.34023 33.2289 7.50841 32.9893 9.03604Z"
      fill="#D3B25B"
    />
    <path
      d="M34.8564 2.62461L37.0929 2.375V4.51167H39.0299V6.36877H37.0729V9.25431C37.0729 9.93324 37.3625 10.2827 37.9416 10.2827C38.311 10.2827 38.6205 10.2228 38.8701 10.093L39.3794 11.9501C38.8701 12.1498 38.331 12.2596 37.7619 12.2896C36.8633 12.3295 36.1444 12.1198 35.6252 11.6506C35.106 11.1713 34.8464 10.3725 34.8464 9.24431V6.37877H33.4785V4.51167H34.8464V2.62461H34.8564Z"
      fill="#D3B25B"
    />
    <path
      d="M40.219 1.27734H42.4655V5.4209C43.0146 4.71201 43.7934 4.35256 44.7919 4.35256C46.8288 4.35256 47.847 5.58066 47.847 8.02685V12.1404H45.6106V8.0468C45.6106 7.51764 45.4808 7.10829 45.2112 6.81871C44.9516 6.52918 44.6021 6.38941 44.1528 6.38941C43.6636 6.38941 43.2542 6.55913 42.9248 6.88862C42.6053 7.21811 42.4455 7.67736 42.4455 8.26648V12.1504H40.209V1.27734H40.219Z"
      fill="#D3B25B"
    />
    <path
      d="M50.9926 7.39855H54.6173C54.5973 7.00916 54.4075 6.70962 54.0582 6.5C53.7084 6.28032 53.2791 6.17051 52.7898 6.17051C52.3405 6.17051 51.9614 6.28032 51.6419 6.5C51.3224 6.71962 51.1024 7.01916 50.9926 7.39855ZM56.6238 9.03604H50.9926C51.0526 9.42544 51.2624 9.75493 51.6317 10.0145C51.9912 10.2641 52.4703 10.3839 53.0796 10.3839C53.9382 10.3839 54.5973 10.1842 55.0666 9.77488L56.3242 11.1727C55.5554 11.9315 54.4675 12.3009 53.0396 12.3009C51.6717 12.3009 50.6135 11.9315 49.8545 11.2026C49.1056 10.4638 48.7363 9.47534 48.7363 8.2273C48.7363 7.04911 49.1056 6.1006 49.8345 5.37172C50.5735 4.63288 51.5619 4.27344 52.8 4.27344C54.1577 4.27344 55.1861 4.68279 55.9052 5.51153C56.614 6.34023 56.8638 7.50841 56.6238 9.03604Z"
      fill="#D3B25B"
    />
    <path
      d="M57.5508 4.48267H59.6275L59.7973 5.32135C60.2866 4.64242 60.9657 4.29297 61.8443 4.29297C62.5731 4.29297 63.1922 4.52261 63.7215 4.99187L62.7926 6.75912C62.4336 6.49954 62.0238 6.36973 61.5647 6.36973C61.0554 6.36973 60.6364 6.52949 60.2968 6.84898C59.9573 7.15852 59.7875 7.58782 59.7875 8.13698V12.1208H57.5508V4.48267Z"
      fill="#D3B25B"
    />
    <path
      fill-rule="evenodd"
      clip-rule="evenodd"
      d="M8.40702 6.79944C10.4738 6.79944 12.1911 6.44995 12.6205 5.9807C12.261 5.5813 10.973 5.27181 9.32558 5.19191V6.18037C9.03605 6.20037 8.72651 6.20037 8.40702 6.20037C8.08749 6.20037 7.78795 6.19037 7.48842 6.17042V5.19191C5.84098 5.28177 4.553 5.5913 4.19356 5.9807C4.61291 6.44995 6.34023 6.79944 8.40702 6.79944ZM12.0713 2.15665V3.51453H9.31558V4.45307C11.2526 4.55292 12.7003 4.96228 12.7103 5.46149V6.48991C12.7003 6.98912 11.2526 7.39847 9.31558 7.49833V9.80474H7.48842V7.50833C5.55144 7.40846 4.1037 6.99912 4.09372 6.49991V5.46149C4.1037 4.96228 5.55144 4.55292 7.48842 4.45307V3.51453H4.73274V2.15665H12.0713ZM3.6544 0H13.3193C13.549 0 13.7587 0.119813 13.8785 0.319503L16.6941 5.152C16.8439 5.40158 16.794 5.72112 16.5843 5.92079L8.83633 13.489C8.58674 13.7386 8.17735 13.7386 7.92777 13.489L0.189791 5.93079C-0.0198832 5.72112 -0.059821 5.40158 0.089946 5.142L3.10526 0.299534C3.22507 0.119813 3.43474 0 3.6544 0Z"
      fill="#D3B25B"
    />
    <path
      d="M40.1387 17.0924C40.1387 15.3851 41.0572 14.6562 42.7047 14.6562C43.6931 14.6562 44.3122 14.9358 44.7216 15.3751L43.803 16.2937C43.5933 16.074 43.3337 15.8743 42.6947 15.8743C41.7562 15.8743 41.4566 16.3236 41.4566 17.1124C41.4566 17.991 41.6263 18.4304 42.6747 18.4304C43.4136 18.4304 43.6931 18.2507 43.6931 17.7914V17.7115H42.495V16.6431H44.9711V17.5218C44.9711 18.8996 44.3421 19.5386 42.6049 19.5386C40.6079 19.5386 40.1387 18.6401 40.1387 17.0924Z"
      fill="#D3B25B"
    />
    <path
      d="M45.5195 17.0924C45.5195 15.2753 46.5878 14.6562 48.0855 14.6562C49.5832 14.6562 50.6618 15.2753 50.6618 17.0924C50.6618 18.9196 49.5832 19.5386 48.0855 19.5386C46.5878 19.5486 45.5195 18.9196 45.5195 17.0924ZM49.3236 17.1224C49.3236 16.3836 49.0739 15.8743 48.0855 15.8743C47.0971 15.8743 46.8473 16.3936 46.8473 17.1224C46.8473 17.8513 47.0971 18.3804 48.0855 18.3804C49.0739 18.3804 49.3236 17.8613 49.3236 17.1224Z"
      fill="#D3B25B"
    />
    <path
      d="M51.5215 14.7383H52.8396V18.3327H55.0661V19.4709H51.5215V14.7383Z"
      fill="#D3B25B"
    />
    <path
      d="M55.793 14.7383H57.5702C59.4772 14.7383 60.3158 15.1876 60.3158 17.1046C60.3158 18.9817 59.4869 19.4709 57.5702 19.4709H55.793V14.7383ZM57.6497 18.3227C58.8381 18.3227 58.9776 17.9832 58.9776 17.1046C58.9776 16.226 58.8581 15.9264 57.5902 15.9264H57.1209V18.3227H57.6497Z"
      fill="#D3B25B"
    />
  </g>
  <defs>
    <clipPath id="clip0_12162_21913">
      <rect width="63.7209" height="20" fill="white" />
    </clipPath>
  </defs>
</svg>
