<svg
  width="95"
  height="18"
  viewBox="0 0 95 18"
  fill="none"
  xmlns="http://www.w3.org/2000/svg"
>
  <g clip-path="url(#clip0_11361_34168)">
    <path
      fill-rule="evenodd"
      clip-rule="evenodd"
      d="M92.0388 15.4136C91.2634 15.4136 90.6604 15.2183 90.2291 14.8278C89.7978 14.4314 89.5824 13.8427 89.5824 13.0616L89.5644 8.52376C89.5644 8.13856 89.7846 7.80355 90.1681 7.71057H88.4367V5.74333H89.5811L90.0456 2.55859H91.9598V5.74333H94.1281V7.71057H91.9598V12.3708C91.9598 12.7439 92.0214 13.0033 92.144 13.1491C92.2721 13.2947 92.5081 13.3676 92.8522 13.3676C93.1257 13.3676 93.368 13.3647 93.5778 13.3589C93.7875 13.353 93.98 13.3414 94.1544 13.3239V15.2824C93.9038 15.3524 93.5833 15.3903 93.1928 15.3961C92.8024 15.4078 92.4174 15.4136 92.0388 15.4136ZM84.2018 15.4391C83.4265 15.4391 82.7501 15.3255 82.1734 15.0982C81.5967 14.8708 81.1418 14.527 80.8095 14.0664C80.4834 13.6001 80.3028 13.0056 80.2675 12.2828H82.6102C82.6746 12.7607 82.8463 13.1076 83.126 13.3233C83.4064 13.5331 83.7678 13.638 84.2101 13.638C84.4788 13.638 84.7259 13.6089 84.9537 13.5506C85.1808 13.4923 85.3614 13.3932 85.4958 13.2533C85.6356 13.1134 85.7055 12.921 85.7055 12.6762C85.7055 12.4897 85.6619 12.3382 85.574 12.2216C85.4868 12.0992 85.3559 11.9971 85.1808 11.9156C85.0118 11.8281 84.8021 11.7465 84.5514 11.6707C84.3008 11.595 84.0121 11.5104 83.6861 11.4172C83.1087 11.2481 82.5784 11.047 82.0944 10.8139C81.6112 10.5749 81.2235 10.2601 80.9321 9.8696C80.6406 9.47907 80.4945 8.96898 80.4945 8.33947C80.4945 7.43601 80.8268 6.75109 81.4914 6.28477C82.1561 5.81263 83.0215 5.57655 84.0883 5.57655C84.7405 5.57655 85.3296 5.6669 85.8537 5.8476C86.3785 6.0283 86.8098 6.34015 87.1476 6.78315C87.4917 7.22617 87.7104 7.84107 87.8032 8.62802L85.4778 8.6193C85.4078 8.25791 85.2971 7.9868 85.1454 7.80611C85.0001 7.61961 84.8311 7.4943 84.6387 7.43019C84.4525 7.36601 84.2538 7.33396 84.044 7.33396C83.8114 7.33396 83.6016 7.3719 83.4147 7.44764C83.234 7.51763 83.0941 7.62251 82.9951 7.76243C82.8961 7.90234 82.8463 8.07134 82.8463 8.26954C82.8463 8.51434 82.9162 8.71837 83.0561 8.88161C83.2021 9.04479 83.4209 9.18761 83.7124 9.31001C84.0094 9.4266 84.3791 9.5519 84.8221 9.686C85.1489 9.77344 85.4985 9.87542 85.8717 9.992C86.2441 10.1086 86.5972 10.266 86.9295 10.4642C87.2611 10.6565 87.5325 10.9188 87.7423 11.251C87.9576 11.5775 88.0656 12.003 88.0656 12.5276C88.0656 13.4427 87.716 14.1568 87.0168 14.6697C86.3175 15.1827 85.3788 15.4391 84.2018 15.4391ZM72.9996 14.8539C73.676 15.2327 74.486 15.4222 75.4303 15.4222C76.1939 15.4222 76.8606 15.2998 77.4318 15.0549C78.0091 14.8101 78.4668 14.4575 78.8046 13.997C79.1487 13.5307 79.3467 12.9799 79.3993 12.3445H77.0821C77.0122 12.6709 76.8405 12.9477 76.5664 13.1751C76.2929 13.4025 75.8935 13.5161 75.3687 13.5161C74.7747 13.5161 74.2908 13.3121 73.9176 12.9041C73.5507 12.496 73.3374 11.8549 73.2793 10.9805H79.5564C79.5682 10.7882 79.5765 10.622 79.5828 10.4821C79.5945 10.3422 79.6001 10.1936 79.6001 10.0362C79.6001 9.0686 79.4401 8.25251 79.1196 7.58804C78.7991 6.9177 78.3297 6.4135 77.7121 6.07542C77.1001 5.73151 76.3511 5.55955 75.4649 5.55955C74.5559 5.55955 73.7577 5.75191 73.0695 6.13663C72.3876 6.52134 71.8545 7.08092 71.4696 7.81539C71.0909 8.54979 70.9012 9.4475 70.9012 10.5083C70.9012 11.5576 71.0819 12.4494 71.4433 13.1838C71.8047 13.9125 72.3239 14.4692 72.9996 14.8539ZM77.2483 9.50282H74.3108C73.9965 9.50282 73.7542 9.5582 73.5853 9.66897C73.4164 9.77974 73.3084 9.98667 73.262 10.2898C73.2911 9.40957 73.4718 8.72757 73.8041 8.24379C74.1419 7.75419 74.6639 7.50932 75.3687 7.50932C76.0098 7.50932 76.4764 7.67838 76.7678 8.01644C77.0648 8.35456 77.2254 8.84997 77.2483 9.50282ZM59.6991 15.2904V2.57748H62.6715L66.623 10.1931L67.6809 12.8598H67.7508L67.4011 9.79954V2.57748H69.7963V15.2904H66.8066L62.8813 7.70116L61.8672 5.20052H61.7798L62.0945 8.59299V15.2904H59.6991ZM50.8959 14.784C51.4438 15.1978 52.1082 15.4047 52.8892 15.4047C53.3204 15.4047 53.6847 15.3377 53.982 15.2036C54.285 15.0637 54.5356 14.883 54.7338 14.6615C54.932 14.4342 55.0893 14.1835 55.2059 13.9096C55.3224 13.6356 55.407 13.3646 55.4594 13.0965L55.4666 13.0652L55.4682 15.2911H57.8635V2.57496H55.4594L55.4625 7.01868C55.3962 6.85971 55.3078 6.69976 55.1971 6.53886C55.0048 6.25907 54.7309 6.02882 54.3754 5.84813C54.0198 5.6616 53.5681 5.56833 53.0203 5.56833C52.3209 5.56833 51.6856 5.75777 51.1144 6.13666C50.5433 6.51554 50.0887 7.06929 49.7507 7.79794C49.4126 8.52653 49.2436 9.41836 49.2436 10.4734C49.2436 11.4468 49.3835 12.3037 49.6632 13.044C49.943 13.7843 50.3539 14.3642 50.8959 14.784ZM55.4635 8.55367L55.4662 12.4537L55.4594 12.4407C55.4303 12.5631 55.3399 12.703 55.1884 12.8604C55.0427 13.0119 54.8416 13.146 54.5852 13.2625C54.3346 13.3733 54.0315 13.4287 53.676 13.4287C53.0523 13.4287 52.5627 13.181 52.2073 12.6855C51.8517 12.1842 51.674 11.4614 51.674 10.5171C51.674 9.49707 51.8634 8.75097 52.2422 8.27882C52.621 7.80667 53.1281 7.57059 53.7634 7.57059C54.1073 7.57059 54.3929 7.61427 54.6201 7.70171C54.8532 7.78915 55.0368 7.90864 55.1709 8.06019C55.3108 8.20592 55.407 8.37207 55.4594 8.55858L55.4635 8.55367ZM45.6539 15.2907V2.57748H48.0755V15.2907H45.6539ZM37.9931 14.8539C38.6691 15.2327 39.4792 15.4222 40.4234 15.4222C41.187 15.4222 41.8543 15.2998 42.4254 15.0549C43.0024 14.8101 43.4599 14.4575 43.798 13.997C44.1419 13.5307 44.34 12.9799 44.3925 12.3445H42.0757C42.0058 12.6709 41.8339 12.9477 41.5599 13.1751C41.286 13.4025 40.8868 13.5161 40.3622 13.5161C39.7677 13.5161 39.284 13.3121 38.911 12.9041C38.5438 12.496 38.3311 11.8549 38.2728 10.9805H44.5498C44.5615 10.7882 44.5702 10.622 44.576 10.4821C44.5877 10.3422 44.5935 10.1936 44.5935 10.0362C44.5935 9.0686 44.4333 8.25251 44.1127 7.58804C43.7921 6.9177 43.3229 6.4135 42.7052 6.07542C42.0932 5.73151 41.3443 5.55955 40.4584 5.55955C39.5492 5.55955 38.7507 5.75191 38.063 6.13663C37.3811 6.52134 36.8478 7.08092 36.4631 7.81539C36.0843 8.54979 35.8949 9.4475 35.8949 10.5083C35.8949 11.5576 36.0756 12.4494 36.4369 13.1838C36.7983 13.9125 37.317 14.4692 37.9931 14.8539ZM42.2418 9.50282H39.3044C38.9897 9.50282 38.7478 9.5582 38.5788 9.66897C38.4098 9.77974 38.302 9.98667 38.2553 10.2898C38.2845 9.40957 38.4652 8.72757 38.7973 8.24379C39.1354 7.75419 39.657 7.50932 40.3622 7.50932C41.0034 7.50932 41.4696 7.67838 41.761 8.01644C42.0582 8.35456 42.2185 8.84997 42.2418 9.50282ZM28.4597 15.2904V11.2248L32.2407 3.66955C32.311 3.81442 32.405 3.9459 32.5231 4.06398C32.8145 4.35542 33.17 4.50115 33.5897 4.50115C34.0035 4.50115 34.3561 4.35542 34.6475 4.06398C34.9448 3.77253 35.0934 3.39948 35.0934 2.94482C35.0934 2.81554 35.0814 2.6931 35.0573 2.57748H32.7872H32.1213H29.9809L28.416 6.19727L27.2795 8.75907H27.1484L26.0294 6.18853L24.4645 2.57748H21.6582L25.9857 11.2075V15.2904H28.4597ZM32.3745 15.2906V5.74272H34.7874L34.7787 15.2906H32.3745Z"
      fill="#1B2940"
    />
    <path
      fill-rule="evenodd"
      clip-rule="evenodd"
      d="M7.74577 0.216679C7.74577 0.127213 7.81874 0.0546875 7.90874 0.0546875H10.0275C10.1175 0.0546875 10.1905 0.127213 10.1905 0.216679V4.44162C10.1905 4.60268 10.4013 4.66505 10.49 4.53022L12.8959 0.869816C12.9463 0.793157 13.0506 0.773211 13.126 0.825792L14.8604 2.03506C14.9324 2.08524 14.9514 2.18311 14.9033 2.25627L12.8767 5.33954C12.8058 5.44728 12.8837 5.59013 13.0131 5.59013H17.7694C17.8594 5.59013 17.9324 5.66265 17.9324 5.75212V7.85798C17.9324 7.9475 17.8594 8.01998 17.7694 8.01998H15.8716C14.5403 8.01998 13.3641 7.23954 12.2045 6.47009C11.74 6.16191 11.2783 5.8555 10.8102 5.60168C10.2631 5.30494 9.63542 5.13629 8.96818 5.13629C8.30093 5.13629 7.67329 5.30494 7.12609 5.60168C6.65808 5.8555 6.19629 6.16191 5.73185 6.47009C4.57221 7.23954 3.39604 8.01998 2.06476 8.01998H0.166893C0.0768774 8.01998 0.00390625 7.9475 0.00390625 7.85798V5.75212C0.00390625 5.66265 0.0768774 5.59013 0.166893 5.59013H4.92631C5.0558 5.59013 5.13358 5.44728 5.06277 5.33954L3.03616 2.25627C2.98808 2.18311 3.00704 2.08524 3.07902 2.03506L4.81347 0.825792C4.88889 0.773211 4.99313 0.793157 5.04351 0.869816L7.44635 4.52544C7.53496 4.66027 7.74577 4.5979 7.74577 4.43684V0.216679ZM5.73185 11.4583C4.57221 10.6888 3.39604 9.90839 2.06476 9.90839H0.166893C0.0768774 9.90839 0.00390625 9.98094 0.00390625 10.0704V12.1763C0.00390625 12.2658 0.0768774 12.3383 0.166893 12.3383H4.92631C5.0558 12.3383 5.13358 12.4811 5.06277 12.5889L3.03616 15.6721C2.98808 15.7453 3.00704 15.8432 3.07902 15.8934L4.81347 17.1026C4.88889 17.1552 4.99313 17.1353 5.04351 17.0586L7.44635 13.403C7.53496 13.2682 7.74577 13.3305 7.74577 13.4916V17.7117C7.74577 17.8012 7.81874 17.8737 7.90874 17.8737H10.0275C10.1175 17.8737 10.1905 17.8012 10.1905 17.7117V13.4868C10.1905 13.3258 10.4013 13.2634 10.49 13.3982L12.8959 17.0586C12.9463 17.1353 13.0506 17.1552 13.126 17.1026L14.8604 15.8934C14.9324 15.8432 14.9514 15.7453 14.9033 15.6721L12.8767 12.5889C12.8058 12.4811 12.8837 12.3383 13.0131 12.3383H17.7694C17.8594 12.3383 17.9324 12.2658 17.9324 12.1763V10.0704C17.9324 9.98094 17.8594 9.90839 17.7694 9.90839H15.8716C14.5403 9.90839 13.3641 10.6888 12.2045 11.4583C11.74 11.7665 11.2783 12.0729 10.8102 12.3268C10.2631 12.6235 9.63542 12.7921 8.96818 12.7921C8.30093 12.7921 7.67329 12.6235 7.12609 12.3268C6.65807 12.0729 6.19628 11.7665 5.73185 11.4583ZM8.96818 12.123C10.7074 12.123 12.1173 10.7088 12.1173 8.96422C12.1173 7.21961 10.7074 5.80538 8.96818 5.80538C7.22896 5.80538 5.8191 7.21961 5.8191 8.96422C5.8191 10.7088 7.22896 12.123 8.96818 12.123Z"
      fill="#E8C787"
    />
  </g>
  <defs>
    <clipPath id="clip0_11361_34168">
      <rect width="94.1538" height="18" fill="white" />
    </clipPath>
  </defs>
</svg>
