<svg
  width="112"
  height="112"
  viewBox="0 0 112 112"
  fill="none"
  xmlns="http://www.w3.org/2000/svg"
>
  <rect x="32" y="32" width="48" height="48" rx="8" fill="#FFFBEB" />
  <path
    d="M33.7574 45.7574C34.8826 44.6321 36.4087 44 38 44H74C75.5913 44 77.1174 44.6321 78.2426 45.7574C79.3679 46.8826 80 48.4087 80 50V51.604C78.236 50.584 76.184 50 74 50H38C35.8935 49.9962 33.8236 50.5496 32 51.604V50C32 48.4087 32.6321 46.8826 33.7574 45.7574Z"
    fill="#FE9A00"
  />
  <g filter="url(#filter0_dd_17011_17062)">
    <rect x="42" y="40" width="28" height="28" rx="14" fill="white" />
    <rect x="44" y="42" width="24" height="24" rx="12" fill="#E9983D" />
    <path
      d="M62.767 52.3738C63.0418 50.6762 61.8403 49.8906 61.166 49.4569C60.4947 49.0233 59.4685 48.7114 59.4685 48.7114L60.1249 46.0678L58.6101 45.6876L57.9536 48.3312L56.7432 48.0252L57.3997 45.3817L55.867 45L55.2106 47.6436L52.0071 46.8386L51.618 48.4069C51.618 48.4069 53.1997 48.802 53.3734 48.848C53.5517 48.8911 53.5279 48.9817 53.513 49.0411C53.4982 49.1005 51.5229 57.0683 51.4932 57.1738C51.4695 57.2807 51.4517 57.3416 51.3046 57.3074L49.6249 56.8856L49.1927 58.6277L52.2937 59.4045L51.6655 61.9322L53.3185 62.3465L53.9467 59.8173L54.9759 60.0757L54.3477 62.605L55.922 63L56.5517 60.4723L57.7368 60.7693C58.5239 60.9668 61.515 61.004 62.1655 58.3767C62.8175 55.748 60.6626 54.6356 60.6626 54.6356C60.6626 54.6356 62.4893 54.0713 62.767 52.3738ZM59.1774 57.248C58.8655 58.5059 57.4621 58.6025 57.1427 58.5208L54.3284 57.8168L55.1601 54.4574L58.0784 55.1881C58.6383 55.3307 59.4908 55.9901 59.1774 57.248ZM59.6972 52.1317C59.3645 53.4713 58.0279 53.4104 57.6061 53.3064L55.5492 52.7911L56.3423 49.5936L58.2195 50.0629C58.5403 50.1431 60.0314 50.7936 59.6972 52.1317Z"
      fill="white"
    />
  </g>
  <path
    d="M32 38C32 36.4087 32.6321 34.8826 33.7574 33.7574C34.8826 32.6321 36.4087 32 38 32H74C75.5913 32 77.1174 32.6321 78.2426 33.7574C79.3679 34.8826 80 36.4087 80 38V39.604C78.1764 38.5496 76.1064 37.9962 74 38H38C35.816 38 33.764 38.584 32 39.604V38ZM56 64C57.7773 64.0002 59.504 63.4086 60.9077 62.3185C62.3114 61.2284 63.3121 59.702 63.752 57.98C64.024 56.908 64.896 56 66 56H74C75.5913 56 77.1174 56.6321 78.2426 57.7574C79.3679 58.8826 80 60.4087 80 62V74C80 75.5913 79.3679 77.1174 78.2426 78.2426C77.1174 79.3679 75.5913 80 74 80H38C36.4087 80 34.8826 79.3679 33.7574 78.2426C32.6321 77.1174 32 75.5913 32 74V62C32 60.4087 32.6321 58.8826 33.7574 57.7574C34.8826 56.6321 36.4087 56 38 56H46C47.104 56 47.976 56.908 48.248 57.98C48.6879 59.702 49.6886 61.2284 51.0923 62.3185C52.496 63.4086 54.2227 64.0002 56 64Z"
    fill="#FE9A00"
  />
  <defs>
    <filter
      id="filter0_dd_17011_17062"
      x="37"
      y="39"
      width="38"
      height="41"
      filterUnits="userSpaceOnUse"
      color-interpolation-filters="sRGB"
    >
      <feFlood flood-opacity="0" result="BackgroundImageFix" />
      <feColorMatrix
        in="SourceAlpha"
        type="matrix"
        values="0 0 0 0 0 0 0 0 0 0 0 0 0 0 0 0 0 0 127 0"
        result="hardAlpha"
      />
      <feMorphology
        radius="6"
        operator="erode"
        in="SourceAlpha"
        result="effect1_dropShadow_17011_17062"
      />
      <feOffset dy="7" />
      <feGaussianBlur stdDeviation="5.5" />
      <feComposite in2="hardAlpha" operator="out" />
      <feColorMatrix
        type="matrix"
        values="0 0 0 0 0 0 0 0 0 0 0 0 0 0 0 0 0 0 0.08 0"
      />
      <feBlend
        mode="normal"
        in2="BackgroundImageFix"
        result="effect1_dropShadow_17011_17062"
      />
      <feColorMatrix
        in="SourceAlpha"
        type="matrix"
        values="0 0 0 0 0 0 0 0 0 0 0 0 0 0 0 0 0 0 127 0"
        result="hardAlpha"
      />
      <feOffset dy="1" />
      <feGaussianBlur stdDeviation="1" />
      <feComposite in2="hardAlpha" operator="out" />
      <feColorMatrix
        type="matrix"
        values="0 0 0 0 0 0 0 0 0 0 0 0 0 0 0 0 0 0 0.08 0"
      />
      <feBlend
        mode="normal"
        in2="effect1_dropShadow_17011_17062"
        result="effect2_dropShadow_17011_17062"
      />
      <feBlend
        mode="normal"
        in="SourceGraphic"
        in2="effect2_dropShadow_17011_17062"
        result="shape"
      />
    </filter>
  </defs>
</svg>
