<svg
  width="278"
  height="120"
  viewBox="0 0 278 120"
  fill="none"
  xmlns="http://www.w3.org/2000/svg"
>
  <path
    d="M0 12.8C0 8.31958 0 6.07937 0.871948 4.36808C1.63893 2.86278 2.86278 1.63893 4.36808 0.871948C6.07937 0 8.31958 0 12.8 0H265.2C269.68 0 271.921 0 273.632 0.871948C275.137 1.63893 276.361 2.86278 277.128 4.36808C278 6.07937 278 8.31958 278 12.8V116.8C278 117.92 278 118.48 277.782 118.908C277.59 119.284 277.284 119.59 276.908 119.782C276.48 120 275.92 120 274.8 120H3.20002C2.0799 120 1.51984 120 1.09202 119.782C0.715695 119.59 0.409734 119.284 0.217987 118.908C0 118.48 0 117.92 0 116.8V12.8Z"
    fill="#ECF8F9"
  />
  <g clip-path="url(#clip0_15646_20055)">
    <rect
      x="-1.25"
      y="-1.25"
      width="21.5"
      height="21.5"
      rx="10.75"
      transform="matrix(-4.37114e-08 -1 -1 4.37114e-08 148.5 69.5)"
      fill="white"
    />
    <rect
      x="-1.25"
      y="-1.25"
      width="21.5"
      height="21.5"
      rx="10.75"
      transform="matrix(-4.37114e-08 -1 -1 4.37114e-08 148.5 69.5)"
      stroke="#1B292E"
      stroke-width="2.5"
    />
    <path
      d="M134 60C134 57.2386 136.239 55 139 55C141.761 55 144 57.2386 144 60C144 62.7614 141.761 65 139 65C136.239 65 134 62.7614 134 60Z"
      fill="#FF5F00"
    />
    <path
      d="M143.12 25.0389L145.15 27.2489C147.16 29.4289 150.17 30.4089 153.08 29.8289L156.02 29.2389C159.2 28.5989 162.25 30.8189 162.62 34.0389L162.97 37.0189C163.32 39.9689 165.17 42.5189 167.87 43.7589L170.6 45.0089C173.55 46.3589 174.71 49.9389 173.12 52.7689L171.65 55.3889C170.2 57.9789 170.2 61.1389 171.65 63.7289L173.12 66.3489C174.71 69.1789 173.54 72.7589 170.6 74.1089L167.87 75.3589C165.17 76.5989 163.32 79.1489 162.97 82.0989L162.62 85.0789C162.24 88.2989 159.2 90.5089 156.02 89.8789L153.08 89.2889C150.17 88.7089 147.16 89.6789 145.15 91.8689L143.12 94.0789C140.92 96.4589 137.16 96.4589 134.96 94.0789L132.93 91.8689C130.92 89.6889 127.91 88.7089 125 89.2889L122.06 89.8789C118.88 90.5189 115.83 88.2989 115.46 85.0789L115.11 82.0989C114.76 79.1489 112.91 76.5989 110.21 75.3589L107.48 74.1089C104.53 72.7589 103.37 69.1789 104.96 66.3489L106.43 63.7289C107.88 61.1389 107.88 57.9789 106.43 55.3889L104.96 52.7689C103.37 49.9389 104.54 46.3589 107.48 45.0089L110.21 43.7589C112.91 42.5189 114.76 39.9689 115.11 37.0189L115.46 34.0389C115.84 30.8189 118.88 28.6089 122.06 29.2389L125 29.8289C127.91 30.4089 130.92 29.4389 132.93 27.2489L134.96 25.0389C137.16 22.6589 140.92 22.6589 143.12 25.0389Z"
      stroke="#1D2E34"
      stroke-width="2.5"
      stroke-miterlimit="10"
    />
    <path
      d="M139.04 82.0917C151.488 82.0917 161.58 72.0002 161.58 59.5517C161.58 47.1032 151.488 37.0117 139.04 37.0117C126.592 37.0117 116.5 47.1032 116.5 59.5517C116.5 72.0002 126.592 82.0917 139.04 82.0917Z"
      stroke="#1D2E34"
      stroke-width="2.5"
      stroke-miterlimit="10"
    />
  </g>
  <defs>
    <clipPath id="clip0_15646_20055">
      <rect
        width="72.09"
        height="75.09"
        fill="white"
        transform="translate(103 22)"
      />
    </clipPath>
  </defs>
</svg>
