<svg
  width="112"
  height="112"
  viewBox="0 0 112 112"
  fill="none"
  xmlns="http://www.w3.org/2000/svg"
>
  <g transform="translate(24 24)">
    <rect x="8" y="8" width="48" height="48" rx="8" fill="#EFF6FF" />
    <path
      d="M9.75736 21.7574C10.8826 20.6321 12.4087 20 14 20H50C51.5913 20 53.1174 20.6321 54.2426 21.7574C55.3679 22.8826 56 24.4087 56 26V27.604C54.236 26.584 52.184 26 50 26H14C11.8935 25.9962 9.82357 26.5496 8 27.604V26C8 24.4087 8.63214 22.8826 9.75736 21.7574Z"
      fill="#2B7FFF"
    />
    <g clip-path="url(#clip0_17011_17034)">
      <rect
        x="44.1436"
        y="16.6309"
        width="20"
        height="20"
        rx="10"
        transform="rotate(16 44.1436 16.6309)"
        fill="white"
      />
      <rect
        x="45.1234"
        y="18.3984"
        width="17.1417"
        height="17.1417"
        rx="8.57083"
        transform="rotate(16 45.1234 18.3984)"
        fill="#50AF95"
      />
      <path
        fill-rule="evenodd"
        clip-rule="evenodd"
        d="M51.8929 29.734C51.8334 29.7216 51.5273 29.6533 50.8559 29.4608C50.3219 29.3077 49.9474 29.1829 49.8162 29.1385C47.7785 28.456 46.3412 27.655 46.4646 27.2249C46.5879 26.7948 48.2311 26.8778 50.3212 27.3773L49.9188 28.7807C50.0509 28.8291 50.4308 28.9627 50.9648 29.1159C51.6056 29.2996 51.9341 29.3649 51.9934 29.3761L52.3957 27.9732C54.4287 28.6554 55.8626 29.4554 55.7396 29.8845C55.6165 30.3136 53.9771 30.2323 51.8911 29.7329L51.8929 29.734ZM52.4393 27.8286L52.7994 26.5727L55.6733 27.3968L56.2224 25.4817L48.3979 23.2381L47.8488 25.1532L50.7222 25.9771L50.3622 27.2325C47.9959 26.6701 46.1069 26.6291 45.9479 27.1834C45.789 27.7378 47.4128 28.7036 49.7174 29.4811L48.5634 33.5055L50.6402 34.101L51.7946 30.0751C54.1555 30.636 56.0415 30.6766 56.2003 30.1227C56.3591 29.5688 54.7397 28.6043 52.4389 27.828L52.4393 27.8286Z"
        fill="white"
      />
    </g>
    <g clip-path="url(#clip1_17011_17034)">
      <rect
        x="0.630859"
        y="22.1445"
        width="20"
        height="20"
        rx="10"
        transform="rotate(-16 0.630859 22.1445)"
        fill="white"
      />
      <g clip-path="url(#clip2_17011_17034)">
        <path
          d="M15.3623 37.2375C19.9271 35.9286 22.5465 31.2031 21.2375 26.6383C19.9286 22.0734 15.2031 19.4541 10.6383 20.763C6.07342 22.0719 3.45405 26.7974 4.763 31.3623C6.07195 35.9271 10.7974 38.5465 15.3623 37.2375Z"
          fill="#2775CA"
        />
        <path
          d="M15.6397 29.6565C15.2952 28.4553 14.4564 28.2501 12.9656 28.4919C11.8966 28.6498 11.6119 28.4343 11.4741 27.9538C11.3363 27.4732 11.591 27.066 12.2774 26.8691C12.8952 26.692 13.2975 26.7995 13.6167 27.2651C13.6806 27.3582 13.8033 27.3973 13.9062 27.3678L14.4553 27.2103C14.5926 27.171 14.6661 27.0385 14.6267 26.9012L14.6169 26.8669C14.263 26.1512 13.4779 25.7449 12.6689 25.9026L12.4327 25.0789C12.3933 24.9416 12.2608 24.8681 12.0794 24.883L11.5646 25.0306C11.4273 25.07 11.3538 25.2025 11.3687 25.384L11.595 26.1734C10.6048 26.6059 10.1495 27.4793 10.3956 28.3374C10.7203 29.47 11.5347 29.7193 13.0254 29.4776C14.0357 29.3736 14.4036 29.491 14.5611 30.0402C14.7186 30.5894 14.3463 31.1047 13.6942 31.2916C12.8018 31.5475 12.3846 31.2585 12.134 30.7732C12.0604 30.6458 11.9377 30.6066 11.8348 30.6362L11.2512 30.8035C11.114 30.8428 11.0405 30.9753 11.0799 31.1126L11.0898 31.147C11.473 31.9656 12.1994 32.426 13.3812 32.2728L13.6174 33.0966C13.6568 33.2338 13.7893 33.3072 13.9707 33.2924L14.4855 33.1448C14.6228 33.1054 14.6963 32.9729 14.6814 32.7915L14.4452 31.9677C15.4257 31.5008 15.9054 30.5832 15.6397 29.6565Z"
          fill="white"
        />
        <path
          d="M12.6572 34.4117C9.7045 34.2184 7.47537 31.6261 7.71294 28.6978C7.81442 27.1086 8.63212 25.6856 9.89166 24.7673C10.0093 24.6593 10.0484 24.5366 9.99917 24.365L9.8614 23.8845C9.82202 23.7472 9.72388 23.6639 9.57674 23.669C9.54239 23.6788 9.47377 23.6985 9.44925 23.7426C6.48394 25.7072 5.69319 29.6856 7.6578 32.6509C8.82672 34.3957 10.7258 35.4484 12.8249 35.5151C12.9819 35.5443 13.0996 35.4363 13.0945 35.2892C13.119 35.2451 13.1091 35.2107 13.0895 35.1421L12.9517 34.6615C12.9221 34.5586 12.7798 34.4509 12.6572 34.4117ZM13.2247 22.66C13.0677 22.6308 12.9501 22.7388 12.9552 22.8859C12.9307 22.9301 12.9405 22.9644 12.9602 23.0331L13.098 23.5136C13.1374 23.6509 13.2797 23.7586 13.4024 23.7978C16.355 23.9911 18.5842 26.5834 18.3466 29.5117C18.2451 31.1008 17.4274 32.5239 16.1679 33.4422C16.0502 33.5502 16.0111 33.6728 16.0603 33.8445L16.1981 34.325C16.2375 34.4623 16.3356 34.5456 16.4828 34.5405C16.5171 34.5306 16.5857 34.511 16.6103 34.4668C19.5756 32.5022 20.3663 28.5239 18.4017 25.5586C17.2229 23.7794 15.2895 22.7365 13.2247 22.66Z"
          fill="white"
        />
      </g>
    </g>
    <g filter="url(#filter0_dd_17011_17034)">
      <rect x="18" y="16" width="28" height="28" rx="14" fill="white" />
      <path
        d="M32 42C38.6274 42 44 36.6274 44 30C44 23.3726 38.6274 18 32 18C25.3726 18 20 23.3726 20 30C20 36.6274 25.3726 42 32 42Z"
        fill="#627EEA"
      />
      <path
        d="M32.3735 21V27.6525L37.9963 30.165L32.3735 21Z"
        fill="white"
        fill-opacity="0.602"
      />
      <path d="M32.3735 21L26.75 30.165L32.3735 27.6525V21Z" fill="white" />
      <path
        d="M32.3735 34.4749V38.9952L38 31.2109L32.3735 34.4749Z"
        fill="white"
        fill-opacity="0.602"
      />
      <path
        d="M32.3735 38.9952V34.4742L26.75 31.2109L32.3735 38.9952Z"
        fill="white"
      />
      <path
        d="M32.3735 33.4281L37.9963 30.1633L32.3735 27.6523V33.4281Z"
        fill="white"
        fill-opacity="0.2"
      />
      <path
        d="M26.75 30.1633L32.3735 33.4281V27.6523L26.75 30.1633Z"
        fill="white"
        fill-opacity="0.602"
      />
    </g>
    <path
      d="M8 14C8 12.4087 8.63214 10.8826 9.75736 9.75736C10.8826 8.63214 12.4087 8 14 8H50C51.5913 8 53.1174 8.63214 54.2426 9.75736C55.3679 10.8826 56 12.4087 56 14V15.604C54.1764 14.5496 52.1065 13.9962 50 14H14C11.816 14 9.764 14.584 8 15.604V14ZM32 40C33.7773 40.0002 35.504 39.4086 36.9077 38.3185C38.3114 37.2284 39.3121 35.702 39.752 33.98C40.024 32.908 40.896 32 42 32H50C51.5913 32 53.1174 32.6321 54.2426 33.7574C55.3679 34.8826 56 36.4087 56 38V50C56 51.5913 55.3679 53.1174 54.2426 54.2426C53.1174 55.3679 51.5913 56 50 56H14C12.4087 56 10.8826 55.3679 9.75736 54.2426C8.63214 53.1174 8 51.5913 8 50V38C8 36.4087 8.63214 34.8826 9.75736 33.7574C10.8826 32.6321 12.4087 32 14 32H22C23.104 32 23.976 32.908 24.248 33.98C24.6879 35.702 25.6886 37.2284 27.0923 38.3185C28.496 39.4086 30.2227 40.0002 32 40Z"
      fill="#2B7FFF"
    />
  </g>
  <defs>
    <filter
      id="filter0_dd_17011_17034"
      x="13"
      y="15"
      width="38"
      height="41"
      filterUnits="userSpaceOnUse"
      color-interpolation-filters="sRGB"
    >
      <feFlood flood-opacity="0" result="BackgroundImageFix" />
      <feColorMatrix
        in="SourceAlpha"
        type="matrix"
        values="0 0 0 0 0 0 0 0 0 0 0 0 0 0 0 0 0 0 127 0"
        result="hardAlpha"
      />
      <feMorphology
        radius="6"
        operator="erode"
        in="SourceAlpha"
        result="effect1_dropShadow_17011_17034"
      />
      <feOffset dy="7" />
      <feGaussianBlur stdDeviation="5.5" />
      <feComposite in2="hardAlpha" operator="out" />
      <feColorMatrix
        type="matrix"
        values="0 0 0 0 0 0 0 0 0 0 0 0 0 0 0 0 0 0 0.08 0"
      />
      <feBlend
        mode="normal"
        in2="BackgroundImageFix"
        result="effect1_dropShadow_17011_17034"
      />
      <feColorMatrix
        in="SourceAlpha"
        type="matrix"
        values="0 0 0 0 0 0 0 0 0 0 0 0 0 0 0 0 0 0 127 0"
        result="hardAlpha"
      />
      <feOffset dy="1" />
      <feGaussianBlur stdDeviation="1" />
      <feComposite in2="hardAlpha" operator="out" />
      <feColorMatrix
        type="matrix"
        values="0 0 0 0 0 0 0 0 0 0 0 0 0 0 0 0 0 0 0.08 0"
      />
      <feBlend
        mode="normal"
        in2="effect1_dropShadow_17011_17034"
        result="effect2_dropShadow_17011_17034"
      />
      <feBlend
        mode="normal"
        in="SourceGraphic"
        in2="effect2_dropShadow_17011_17034"
        result="shape"
      />
    </filter>
    <clipPath id="clip0_17011_17034">
      <rect
        x="44.1436"
        y="16.6309"
        width="20"
        height="20"
        rx="10"
        transform="rotate(16 44.1436 16.6309)"
        fill="white"
      />
    </clipPath>
    <clipPath id="clip1_17011_17034">
      <rect
        x="0.630859"
        y="22.1445"
        width="20"
        height="20"
        rx="10"
        transform="rotate(-16 0.630859 22.1445)"
        fill="white"
      />
    </clipPath>
    <clipPath id="clip2_17011_17034">
      <rect
        width="17.1385"
        height="17.1385"
        fill="white"
        transform="translate(2.40088 23.125) rotate(-16)"
      />
    </clipPath>
  </defs>
</svg>
