<svg
  width="908"
  height="151"
  viewBox="0 0 908 151"
  fill="none"
  xmlns="http://www.w3.org/2000/svg"
>
  <g clip-path="url(#clip0_15643_19311)">
    <rect width="908" height="151" rx="4" fill="#ECF8F9" />
    <path
      d="M0.000327828 -115.809L92.9283 -27.1875C126.672 4.99259 126.672 57.1613 92.9283 89.3337L0.000327828 177.955"
      stroke="white"
      stroke-width="16"
      stroke-linecap="round"
    />
    <path
      d="M0.000681099 -115.809L143.241 20.7927C175.521 51.5766 175.521 101.479 143.241 132.256L0.000681099 268.857"
      stroke="#FF5F00"
      stroke-width="16"
      stroke-linecap="round"
      stroke-linejoin="round"
    />
    <path
      d="M0.000168059 -147.281L159.496 4.82266C200.936 44.3421 200.936 108.42 159.496 147.947L1.66417 298.464"
      stroke="#2599EE"
      stroke-width="16"
      stroke-linecap="round"
      stroke-linejoin="round"
    />
    <path
      d="M897.576 -115.809L804.648 -27.1875C770.904 4.99259 770.904 57.1613 804.648 89.3337L897.576 177.955"
      stroke="white"
      stroke-width="16"
      stroke-linecap="round"
    />
    <path
      d="M897.576 -115.809L754.336 20.7927C722.056 51.5766 722.056 101.479 754.336 132.256L897.576 268.857"
      stroke="#1D2E34"
      stroke-width="16"
      stroke-linecap="round"
      stroke-linejoin="round"
    />
    <path
      d="M897.576 -147.281L738.08 4.82266C696.64 44.3421 696.64 108.42 738.08 147.947L895.912 298.464"
      stroke="#FF5F00"
      stroke-width="16"
      stroke-linecap="round"
      stroke-linejoin="round"
    />
    <g clip-path="url(#clip1_15643_19311)">
      <path
        d="M398.161 52.3996L395.221 69.5753H392.974L390.034 52.3996C389.992 52.17 389.782 52.024 389.551 52.0657C378.211 54.1944 370 64.0866 370 76.0031C370 87.9196 378.211 97.8118 389.572 99.9405C389.803 99.9822 390.013 99.8361 390.055 99.6066L392.995 82.4309H395.242L398.182 99.6066C398.224 99.8361 398.434 99.9822 398.665 99.9405C410.026 97.8327 418.237 87.9196 418.237 76.0031C418.237 64.0866 410.005 54.1944 398.644 52.0657C398.413 52.024 398.203 52.17 398.161 52.3996Z"
        fill="#FF5F00"
      />
      <path
        d="M452.426 66.9441C451.082 66.1719 449.528 65.7963 447.743 65.7963C445.958 65.7963 444.173 66.2346 442.871 67.0902C441.569 67.9459 440.645 69.1354 440.057 70.638H439.763V57.5946H432.833V91.6537H439.952V76.878C439.952 75.7719 440.183 74.8328 440.603 74.0606C441.023 73.2885 441.611 72.6832 442.346 72.2659C443.081 71.8485 443.942 71.6606 444.908 71.6606C446.357 71.6606 447.491 72.0989 448.289 72.9754C449.087 73.8519 449.486 75.0832 449.486 76.6485V91.6537H456.605V75.3963C456.605 73.3928 456.248 71.6815 455.513 70.2415C454.778 68.8015 453.728 67.6954 452.405 66.9232L452.426 66.9441ZM481.343 69.0102C480.251 67.925 478.97 67.1319 477.5 66.5893C476.03 66.0467 474.455 65.7754 472.754 65.7754C470.234 65.7754 468.029 66.3389 466.16 67.445C464.291 68.5511 462.842 70.0954 461.813 72.078C460.784 74.0606 460.28 76.3772 460.28 78.9859C460.28 81.5945 460.784 84.0154 461.813 85.9772C462.842 87.9389 464.312 89.4624 466.202 90.5267C468.113 91.5911 470.381 92.1337 473.027 92.1337C475.673 92.1337 477.017 91.7998 478.634 91.1528C480.251 90.5059 481.574 89.5876 482.624 88.4189C483.653 87.2502 484.346 85.8728 484.682 84.3076L478.088 83.8693C477.836 84.5163 477.479 85.0589 477.017 85.4972C476.555 85.9354 475.988 86.2693 475.337 86.4989C474.686 86.7285 473.951 86.8328 473.153 86.8328C471.956 86.8328 470.927 86.5824 470.066 86.0815C469.205 85.5806 468.533 84.8711 468.05 83.9528C467.567 83.0346 467.336 81.9493 467.336 80.6763H484.829V78.7354C484.829 76.565 484.514 74.6659 483.905 73.038C483.296 71.4102 482.435 70.0537 481.343 68.9893V69.0102ZM467.336 76.3146C467.378 75.3963 467.609 74.5615 468.05 73.7893C468.512 72.9545 469.163 72.3076 470.003 71.8067C470.843 71.3059 471.788 71.0763 472.88 71.0763C473.972 71.0763 474.833 71.3059 475.61 71.7441C476.387 72.2032 477.017 72.8085 477.458 73.6015C477.899 74.3946 478.13 75.2919 478.13 76.3146H467.336ZM534.158 62.8328C535.208 62.8328 536.132 62.478 536.867 61.7685C537.623 61.0589 538.001 60.2241 538.001 59.2224C538.001 58.2206 537.623 57.4067 536.867 56.6972C536.111 55.9876 535.208 55.6328 534.158 55.6328C533.108 55.6328 532.184 55.9876 531.449 56.6972C530.693 57.4067 530.315 58.2415 530.315 59.2224C530.315 60.2032 530.693 61.0589 531.449 61.7685C532.205 62.478 533.108 62.8328 534.158 62.8328ZM517.799 65.7754C515.909 65.7754 514.292 66.2137 512.906 67.0902C511.52 67.9667 510.575 69.1354 510.05 70.6172H509.777C509.357 69.1354 508.538 67.9459 507.299 67.0902C506.06 66.2137 504.569 65.7754 502.805 65.7754C501.041 65.7754 499.571 66.2137 498.311 67.0693C497.072 67.925 496.169 69.1145 495.644 70.6172H495.35V66.1093H488.567V91.6537H495.686V76.3146C495.686 75.3754 495.875 74.5406 496.232 73.8519C496.589 73.1424 497.093 72.5998 497.723 72.2032C498.353 71.8067 499.067 71.6189 499.865 71.6189C501.041 71.6189 501.986 71.9946 502.7 72.725C503.414 73.4763 503.771 74.4572 503.771 75.7093V91.6328H510.68V76.0432C510.68 74.7076 511.037 73.6432 511.772 72.8293C512.507 72.0154 513.515 71.598 514.796 71.598C516.077 71.598 516.875 71.9528 517.631 72.6624C518.387 73.3719 518.765 74.4363 518.765 75.8554V91.6328H525.884V74.4572C525.884 71.6815 525.128 69.5528 523.637 68.0293C522.146 66.5059 520.193 65.7546 517.799 65.7546V65.7754ZM530.567 91.6537H537.686V66.1093H530.567V91.6537Z"
        fill="#1D2E34"
      />
    </g>

    <!-- Animated circles moving along the paths -->
    <!-- Left side circles (only on colored paths) -->
    <circle fill="#fff" r="6">
      <animateMotion
        begin="1s"
        dur="7s"
        keyPoints="1;0"
        keyTimes="0;1"
        repeatCount="indefinite"
      >
        <mpath href="#leftPath2" />
      </animateMotion>
    </circle>

    <circle fill="#fff" r="6">
      <animateMotion
        begin="2s"
        dur="9s"
        keyPoints="1;0"
        keyTimes="0;1"
        repeatCount="indefinite"
      >
        <mpath href="#leftPath3" />
      </animateMotion>
    </circle>

    <!-- Right side circles (only on colored paths) -->
    <circle fill="#fff" r="6">
      <animateMotion
        begin="1.5s"
        dur="7s"
        keyPoints="1;0"
        keyTimes="0;1"
        repeatCount="indefinite"
      >
        <mpath href="#rightPath2" />
      </animateMotion>
    </circle>

    <circle fill="#fff" r="6">
      <animateMotion
        begin="2.5s"
        dur="9s"
        keyPoints="1;0"
        keyTimes="0;1"
        repeatCount="indefinite"
      >
        <mpath href="#rightPath3" />
      </animateMotion>
    </circle>
  </g>
  <defs>
    <clipPath id="clip0_15643_19311">
      <rect width="908" height="151" rx="4" fill="white" />
    </clipPath>
    <clipPath id="clip1_15643_19311">
      <rect
        width="168"
        height="48"
        fill="white"
        transform="translate(370 52)"
      />
    </clipPath>

    <!-- Path definitions for animation -->
    <path
      d="M0.000327828 -115.809L92.9283 -27.1875C126.672 4.99259 126.672 57.1613 92.9283 89.3337L0.000327828 177.955"
      id="leftPath1"
    />
    <path
      d="M0.000681099 -115.809L143.241 20.7927C175.521 51.5766 175.521 101.479 143.241 132.256L0.000681099 268.857"
      id="leftPath2"
    />
    <path
      d="M0.000168059 -147.281L159.496 4.82266C200.936 44.3421 200.936 108.42 159.496 147.947L1.66417 298.464"
      id="leftPath3"
    />
    <path
      d="M897.576 -115.809L804.648 -27.1875C770.904 4.99259 770.904 57.1613 804.648 89.3337L897.576 177.955"
      id="rightPath1"
    />
    <path
      d="M897.576 -115.809L754.336 20.7927C722.056 51.5766 722.056 101.479 754.336 132.256L897.576 268.857"
      id="rightPath2"
    />
    <path
      d="M897.576 -147.281L738.08 4.82266C696.64 44.3421 696.64 108.42 738.08 147.947L895.912 298.464"
      id="rightPath3"
    />
  </defs>
</svg>
