<svg
  width="278"
  height="120"
  viewBox="0 0 278 120"
  fill="none"
  xmlns="http://www.w3.org/2000/svg"
>
  <path
    d="M0 12.8C0 8.31958 0 6.07937 0.871948 4.36808C1.63893 2.86278 2.86278 1.63893 4.36808 0.871948C6.07937 0 8.31958 0 12.8 0H265.2C269.68 0 271.921 0 273.632 0.871948C275.137 1.63893 276.361 2.86278 277.128 4.36808C278 6.07937 278 8.31958 278 12.8V116.8C278 117.92 278 118.48 277.782 118.908C277.59 119.284 277.284 119.59 276.908 119.782C276.48 120 275.92 120 274.8 120H3.20002C2.0799 120 1.51984 120 1.09202 119.782C0.715695 119.59 0.409734 119.284 0.217987 118.908C0 118.48 0 117.92 0 116.8V12.8Z"
    fill="#ECF8F9"
  />
  <g clip-path="url(#clip0_15646_20028)">
    <rect
      x="105.581"
      y="32.2376"
      width="21.5"
      height="21.5"
      rx="10.75"
      transform="rotate(40 105.581 32.2376)"
      fill="white"
    />
    <rect
      x="105.581"
      y="32.2376"
      width="21.5"
      height="21.5"
      rx="10.75"
      transform="rotate(40 105.581 32.2376)"
      stroke="#1B292E"
      stroke-width="2.5"
    />
    <path
      d="M103.692 51.2142C105.807 52.9892 108.961 52.7133 110.736 50.5979C112.511 48.4826 112.235 45.3288 110.12 43.5538C108.004 41.7788 104.851 42.0547 103.076 44.1701C101.301 46.2854 101.577 49.4392 103.692 51.2142Z"
      fill="#2599EE"
    />
  </g>
  <rect
    x="105.581"
    y="32.2376"
    width="85.5"
    height="21.5"
    rx="10.75"
    transform="rotate(40 105.581 32.2376)"
    stroke="#1B292E"
    stroke-width="2.5"
  />
  <g clip-path="url(#clip1_15646_20028)">
    <rect
      x="1.76104"
      y="-0.154071"
      width="21.5"
      height="21.5"
      rx="10.75"
      transform="matrix(0.766044 0.642788 0.642788 -0.766044 154.118 72.1194)"
      fill="white"
    />
    <rect
      x="1.76104"
      y="-0.154071"
      width="21.5"
      height="21.5"
      rx="10.75"
      transform="matrix(0.766044 0.642788 0.642788 -0.766044 154.118 72.1194)"
      stroke="#1B292E"
      stroke-width="2.5"
    />
    <path
      d="M173.727 68.2137C175.843 69.9887 176.119 73.1424 174.344 75.2578C172.569 77.3732 169.415 77.6491 167.299 75.8741C165.184 74.0991 164.908 70.9453 166.683 68.8299C168.458 66.7146 171.612 66.4386 173.727 68.2137Z"
      fill="#FF5F00"
    />
  </g>
  <rect
    x="1.76104"
    y="-0.154071"
    width="85.5"
    height="21.5"
    rx="10.75"
    transform="matrix(0.766044 0.642788 0.642788 -0.766044 105.092 30.9826)"
    stroke="#1B292E"
    stroke-width="2.5"
  />
  <defs>
    <clipPath id="clip0_15646_20028">
      <rect
        x="105.427"
        y="30.4766"
        width="88"
        height="24"
        rx="12"
        transform="rotate(40 105.427 30.4766)"
        fill="white"
      />
    </clipPath>
    <clipPath id="clip1_15646_20028">
      <rect
        width="88"
        height="24"
        rx="12"
        transform="matrix(0.766044 0.642788 0.642788 -0.766044 104.581 32.3867)"
        fill="white"
      />
    </clipPath>
  </defs>
</svg>
