<svg
  width="112"
  height="112"
  viewBox="0 0 112 112"
  fill="none"
  xmlns="http://www.w3.org/2000/svg"
>
  <g filter="url(#filter0_i_17011_17075)">
    <path
      d="M74.9613 31.6597C77.1704 35.486 75.8594 40.3788 72.0331 42.5879L26.9998 68.5879L18.9998 54.7315L64.0331 28.7315C67.8594 26.5223 72.7522 27.8333 74.9613 31.6597Z"
      fill="url(#paint0_linear_17011_17075)"
    />
    <path
      d="M74.9613 31.6597C77.1704 35.486 75.8594 40.3788 72.0331 42.5879L26.9998 68.5879L18.9998 54.7315L64.0331 28.7315C67.8594 26.5223 72.7522 27.8333 74.9613 31.6597Z"
      fill="url(#paint1_linear_17011_17075)"
      fill-opacity="0.72"
    />
  </g>
  <path
    d="M71.8329 42.2411L27.1463 68.0409L19.5467 54.878L64.2333 29.0782C67.8683 26.9796 72.5159 28.2249 74.6146 31.8599C76.7132 35.4949 75.4679 40.1425 71.8329 42.2411Z"
    stroke="url(#paint2_linear_17011_17075)"
    stroke-width="0.8"
  />
  <path
    d="M72.0332 42.5869C75.8595 40.3777 77.1705 35.485 74.9614 31.6587C72.7522 27.8323 67.8595 26.5213 64.0332 28.7305C60.2068 30.9396 58.8958 35.8323 61.105 39.6587C63.3141 43.485 68.2068 44.796 72.0332 42.5869Z"
    fill="#E9983D"
  />
  <path
    d="M70.7597 33.0216C70.3941 32.0595 69.5363 32.0118 69.057 31.9888C68.5793 31.9649 67.954 32.1103 67.954 32.1103L67.5031 30.5436L66.6042 30.7999L67.055 32.3666L66.3361 32.5702L65.8852 31.0036L64.9766 31.2644L65.4274 32.8311L63.5261 33.3725L63.7937 34.3019C63.7937 34.3019 64.7318 34.0333 64.8356 34.0052C64.9409 33.9742 64.9557 34.0282 64.9658 34.0635C64.9759 34.0987 66.3365 38.8198 66.3526 38.8833C66.3723 38.9459 66.3813 38.9828 66.2949 39.0091L65.298 39.2931L65.5953 40.3254L67.4351 39.8L67.8659 41.2982L68.8467 41.0183L68.4154 39.5193L69.0262 39.3453L69.4575 40.8443L70.3917 40.5779L69.9617 39.0793L70.6649 38.8786C71.132 38.7454 72.6935 37.8695 72.2444 36.3131C71.7957 34.7554 70.3458 34.8237 70.3458 34.8237C70.3458 34.8237 71.1238 33.9845 70.7597 33.0216ZM70.3578 36.6223C70.5726 37.3676 69.874 37.8377 69.6841 37.8909L68.0146 38.3682L67.4404 36.378L69.1717 35.8834C69.5046 35.7898 70.1438 35.8765 70.3578 36.6223ZM69.0961 33.8147C69.3246 34.6087 68.6135 34.9771 68.3638 35.0494L67.1434 35.3979L66.5976 33.5032L67.711 33.1846C67.9013 33.1302 68.8689 33.0212 69.0961 33.8147Z"
    fill="white"
  />
  <rect
    x="81.6934"
    y="39.3203"
    width="20"
    height="20"
    rx="10"
    transform="rotate(150 81.6934 39.3203)"
    stroke="#E9983D"
    stroke-linecap="round"
    stroke-dasharray="3 3"
  />
  <g filter="url(#filter1_i_17011_17075)">
    <path
      d="M92.444 57.043L47.4106 83.043C43.5843 85.2521 38.6916 83.9411 36.4824 80.1148C34.2733 76.2884 35.5843 71.3957 39.4106 69.1866L84.444 43.1866L92.444 57.043Z"
      fill="url(#paint3_linear_17011_17075)"
    />
    <path
      d="M92.444 57.043L47.4106 83.043C43.5843 85.2521 38.6916 83.9411 36.4824 80.1148C34.2733 76.2884 35.5843 71.3957 39.4106 69.1866L84.444 43.1866L92.444 57.043Z"
      fill="url(#paint4_linear_17011_17075)"
      fill-opacity="0.72"
    />
  </g>
  <path
    d="M47.2105 82.6962C43.5754 84.7949 38.9279 83.5496 36.8292 79.9146C34.7305 76.2795 35.9758 71.632 39.6108 69.5333L84.2974 43.7335L91.897 56.8964L47.2105 82.6962Z"
    stroke="url(#paint5_linear_17011_17075)"
    stroke-width="0.8"
  />
  <path
    d="M47.4107 83.0439C51.2371 80.8348 52.5481 75.942 50.339 72.1157C48.1298 68.2894 43.2371 66.9784 39.4107 69.1875C35.5844 71.3966 34.2734 76.2894 36.4825 80.1157C38.6917 83.942 43.5844 85.253 47.4107 83.0439Z"
    fill="#FF4600"
  />
  <path
    d="M46.1373 73.4786C45.7717 72.5165 44.9138 72.4688 44.4346 72.4458C43.9568 72.4219 43.3316 72.5674 43.3316 72.5674L42.8807 71.0007L41.9817 71.2569L42.4326 72.8236L41.7137 73.0273L41.2628 71.4606L40.3541 71.7214L40.805 73.2881L38.9036 73.8295L39.1713 74.7589C39.1713 74.7589 40.1094 74.4903 40.2132 74.4622C40.3185 74.4312 40.3333 74.4853 40.3433 74.5205C40.3534 74.5557 41.714 79.2768 41.7302 79.3404C41.7499 79.4029 41.7589 79.4398 41.6724 79.4661L40.6756 79.7501L40.9729 80.7824L42.8127 80.257L43.2435 81.7552L44.2243 81.4754L43.793 79.9764L44.4038 79.8023L44.8351 81.3013L45.7693 81.035L45.3392 79.5363L46.0424 79.3356C46.5095 79.2024 48.071 78.3266 47.622 76.7701C47.1732 75.2125 45.7234 75.2808 45.7234 75.2808C45.7234 75.2808 46.5013 74.4416 46.1373 73.4786ZM45.7354 77.0793C45.9501 77.8246 45.2516 78.2947 45.0616 78.3479L43.3922 78.8252L42.8179 76.8351L44.5493 76.3405C44.8821 76.2468 45.5213 76.3335 45.7354 77.0793ZM44.4737 74.2718C44.7021 75.0657 43.9911 75.4341 43.7414 75.5065L42.521 75.8549L41.9751 73.9602L43.0886 73.6417C43.2789 73.5872 44.2464 73.4782 44.4737 74.2718Z"
    fill="#FFF6ED"
  />
  <rect
    x="29.0677"
    y="72.2721"
    width="21"
    height="21"
    rx="10.5"
    transform="rotate(-30 29.0677 72.2721)"
    stroke="#FF4600"
  />
  <defs>
    <filter
      id="filter0_i_17011_17075"
      x="18.9998"
      y="27.6582"
      width="57.0347"
      height="40.9297"
      filterUnits="userSpaceOnUse"
      color-interpolation-filters="sRGB"
    >
      <feFlood flood-opacity="0" result="BackgroundImageFix" />
      <feBlend
        mode="normal"
        in="SourceGraphic"
        in2="BackgroundImageFix"
        result="shape"
      />
      <feColorMatrix
        in="SourceAlpha"
        type="matrix"
        values="0 0 0 0 0 0 0 0 0 0 0 0 0 0 0 0 0 0 127 0"
        result="hardAlpha"
      />
      <feOffset />
      <feGaussianBlur stdDeviation="1" />
      <feComposite in2="hardAlpha" operator="arithmetic" k2="-1" k3="1" />
      <feColorMatrix
        type="matrix"
        values="0 0 0 0 1 0 0 0 0 1 0 0 0 0 1 0 0 0 0.64 0"
      />
      <feBlend
        mode="normal"
        in2="shape"
        result="effect1_innerShadow_17011_17075"
      />
    </filter>
    <filter
      id="filter1_i_17011_17075"
      x="35.4093"
      y="43.1875"
      width="57.0347"
      height="40.9277"
      filterUnits="userSpaceOnUse"
      color-interpolation-filters="sRGB"
    >
      <feFlood flood-opacity="0" result="BackgroundImageFix" />
      <feBlend
        mode="normal"
        in="SourceGraphic"
        in2="BackgroundImageFix"
        result="shape"
      />
      <feColorMatrix
        in="SourceAlpha"
        type="matrix"
        values="0 0 0 0 0 0 0 0 0 0 0 0 0 0 0 0 0 0 127 0"
        result="hardAlpha"
      />
      <feOffset />
      <feGaussianBlur stdDeviation="1" />
      <feComposite in2="hardAlpha" operator="arithmetic" k2="-1" k3="1" />
      <feColorMatrix
        type="matrix"
        values="0 0 0 0 1 0 0 0 0 1 0 0 0 0 1 0 0 0 0.64 0"
      />
      <feBlend
        mode="normal"
        in2="shape"
        result="effect1_innerShadow_17011_17075"
      />
    </filter>
    <linearGradient
      id="paint0_linear_17011_17075"
      x1="22.9998"
      y1="61.6597"
      x2="74.9613"
      y2="31.6597"
      gradientUnits="userSpaceOnUse"
    >
      <stop stop-color="#D9D9D9" stop-opacity="0" />
      <stop offset="1" stop-color="#D9D9D9" stop-opacity="0.4" />
    </linearGradient>
    <linearGradient
      id="paint1_linear_17011_17075"
      x1="33.3921"
      y1="55.6597"
      x2="46.3825"
      y2="48.1597"
      gradientUnits="userSpaceOnUse"
    >
      <stop stop-color="white" stop-opacity="0" />
      <stop offset="0.504808" stop-color="white" stop-opacity="0.72" />
      <stop offset="1" stop-color="white" stop-opacity="0" />
    </linearGradient>
    <linearGradient
      id="paint2_linear_17011_17075"
      x1="22.9998"
      y1="61.6597"
      x2="74.9613"
      y2="31.6597"
      gradientUnits="userSpaceOnUse"
    >
      <stop stop-color="#D4D4D4" stop-opacity="0" />
      <stop offset="1" stop-color="#D9D9D9" stop-opacity="0.2" />
    </linearGradient>
    <linearGradient
      id="paint3_linear_17011_17075"
      x1="36.4824"
      y1="80.1148"
      x2="88.444"
      y2="50.1148"
      gradientUnits="userSpaceOnUse"
    >
      <stop stop-color="#FF4600" stop-opacity="0.24" />
      <stop offset="1" stop-color="#FF4600" stop-opacity="0" />
    </linearGradient>
    <linearGradient
      id="paint4_linear_17011_17075"
      x1="62.4632"
      y1="65.1148"
      x2="78.4847"
      y2="55.8648"
      gradientUnits="userSpaceOnUse"
    >
      <stop stop-color="white" stop-opacity="0" />
      <stop offset="0.504808" stop-color="white" stop-opacity="0.72" />
      <stop offset="1" stop-color="white" stop-opacity="0" />
    </linearGradient>
    <linearGradient
      id="paint5_linear_17011_17075"
      x1="36.4824"
      y1="80.1148"
      x2="88.444"
      y2="50.1148"
      gradientUnits="userSpaceOnUse"
    >
      <stop stop-color="#FF4600" stop-opacity="0.16" />
      <stop offset="1" stop-color="#FF4600" stop-opacity="0" />
    </linearGradient>
  </defs>
</svg>
