<svg
  width="278"
  height="120"
  viewBox="0 0 278 120"
  fill="none"
  xmlns="http://www.w3.org/2000/svg"
>
  <path
    d="M0 12.8C0 8.31958 0 6.07937 0.871948 4.36808C1.63893 2.86278 2.86278 1.63893 4.36808 0.871948C6.07937 0 8.31958 0 12.8 0H265.2C269.68 0 271.921 0 273.632 0.871948C275.137 1.63893 276.361 2.86278 277.128 4.36808C278 6.07937 278 8.31958 278 12.8V116.8C278 117.92 278 118.48 277.782 118.908C277.59 119.284 277.284 119.59 276.908 119.782C276.48 120 275.92 120 274.8 120H3.20002C2.0799 120 1.51984 120 1.09202 119.782C0.715695 119.59 0.409734 119.284 0.217987 118.908C0 118.48 0 117.92 0 116.8V12.8Z"
    fill="#ECF8F9"
  />
  <rect
    x="88.25"
    y="60.25"
    width="101.5"
    height="21.5"
    rx="10.75"
    stroke="#1B292E"
    stroke-width="2.5"
  />
  <path
    d="M179 76C181.761 76 184 73.7614 184 71C184 68.2386 181.761 66 179 66C176.239 66 174 68.2386 174 71C174 73.7614 176.239 76 179 76Z"
    fill="#2599EE"
  />
  <rect
    x="88.25"
    y="60.25"
    width="21.5"
    height="21.5"
    rx="10.75"
    fill="white"
  />
  <rect
    x="88.25"
    y="60.25"
    width="21.5"
    height="21.5"
    rx="10.75"
    stroke="#1B292E"
    stroke-width="2.5"
  />
  <rect
    x="-1.25"
    y="1.25"
    width="101.5"
    height="21.5"
    rx="10.75"
    transform="matrix(-1 0 0 1 188.5 37)"
    stroke="#1B292E"
    stroke-width="2.5"
  />
  <path
    d="M99 54C96.2386 54 94 51.7614 94 49C94 46.2386 96.2386 44 99 44C101.761 44 104 46.2386 104 49C104 51.7614 101.761 54 99 54Z"
    fill="#FF5F00"
  />
  <rect
    x="-1.25"
    y="1.25"
    width="21.5"
    height="21.5"
    rx="10.75"
    transform="matrix(-1 0 0 1 188.5 37)"
    fill="white"
  />
  <rect
    x="-1.25"
    y="1.25"
    width="21.5"
    height="21.5"
    rx="10.75"
    transform="matrix(-1 0 0 1 188.5 37)"
    stroke="#1B292E"
    stroke-width="2.5"
  />
</svg>
