<svg
  width="16"
  height="16"
  viewBox="0 0 16 16"
  fill="none"
  xmlns="http://www.w3.org/2000/svg"
>
  <path
    fill-rule="evenodd"
    clip-rule="evenodd"
    d="M15 8C15 8.982 14.528 9.854 13.798 10.402C13.8646 10.8633 13.8226 11.3337 13.6753 11.7758C13.5281 12.218 13.2798 12.6197 12.95 12.949C12.6207 13.2791 12.2189 13.5277 11.7765 13.6751C11.3341 13.8225 10.8635 13.8646 10.402 13.798C10.1228 14.1715 9.76025 14.4746 9.34325 14.6833C8.92625 14.8919 8.4663 15.0004 8 15C7.5337 15.0004 7.07375 14.8919 6.65675 14.6833C6.23975 14.4746 5.87722 14.1715 5.598 13.798C5.13675 13.8646 4.66634 13.8226 4.22417 13.6753C3.78201 13.5281 3.3803 13.2798 3.051 12.95C2.72092 12.6207 2.47228 12.2189 2.32488 11.7765C2.17749 11.3341 2.13541 10.8635 2.202 10.402C1.82854 10.1228 1.52542 9.76025 1.31674 9.34325C1.10807 8.92625 0.999611 8.4663 1 8C1 7.018 1.472 6.146 2.202 5.598C2.13545 5.13675 2.17745 4.66634 2.32466 4.22417C2.47187 3.78201 2.72024 3.3803 3.05 3.051C3.37931 2.72092 3.78115 2.47228 4.2235 2.32488C4.66586 2.17749 5.13652 2.13541 5.598 2.202C5.87716 1.82849 6.23969 1.52532 6.6567 1.31664C7.07371 1.10796 7.53369 0.999534 8 1C8.982 1 9.854 1.472 10.402 2.202C10.8633 2.13545 11.3337 2.17745 11.7758 2.32466C12.218 2.47187 12.6197 2.72024 12.949 3.05C13.644 3.745 13.927 4.695 13.798 5.598C14.1715 5.87722 14.4746 6.23975 14.6833 6.65675C14.8919 7.07375 15.0004 7.5337 15 8ZM11.709 5.157C11.8664 5.27861 11.9691 5.45776 11.9944 5.65504C12.0197 5.85233 11.9656 6.05159 11.844 6.209L7.594 11.709C7.52681 11.7959 7.44134 11.8671 7.34363 11.9173C7.24592 11.9676 7.13836 11.9958 7.02856 11.9999C6.91876 12.004 6.8094 11.9839 6.70822 11.9411C6.60703 11.8982 6.51649 11.8337 6.443 11.752L4.193 9.252C4.12464 9.17927 4.07148 9.09363 4.03664 9.00009C4.00181 8.90656 3.98599 8.80701 3.99012 8.70728C3.99425 8.60755 4.01825 8.50965 4.06071 8.41931C4.10316 8.32898 4.16322 8.24803 4.23737 8.1812C4.31151 8.11438 4.39825 8.06303 4.4925 8.03016C4.58674 7.99729 4.6866 7.98356 4.78622 7.98979C4.88584 7.99601 4.98322 8.02205 5.07265 8.06639C5.16207 8.11073 5.24175 8.17247 5.307 8.248L6.957 10.08L10.657 5.291C10.7788 5.13375 10.958 5.0313 11.1553 5.00617C11.3525 4.98104 11.5517 5.0353 11.709 5.157Z"
    fill="#FF4600"
  />
</svg>
