<svg
  xmlns="http://www.w3.org/2000/svg"
  width="30"
  height="27"
  viewBox="0 0 30 27"
  fill="none"
>
  <g clip-path="url(#clip0_16253_10629)">
    <path
      fill-rule="evenodd"
      clip-rule="evenodd"
      d="M24.7997 0L15.8225 2.41851e-06C8.6574 4.158e-06 2.84897 5.80838 2.84889 12.9735L2.84885 16.3777C2.84885 16.4651 2.91971 16.536 3.00713 16.536H4.81737C4.90479 16.536 4.97567 16.4651 4.97567 16.3777L4.9757 12.9735C4.97577 6.983 9.832 2.12682 15.8225 2.12682L27.9385 2.12681C28.0598 2.12681 28.1355 1.99639 28.071 1.89376C27.3815 0.796433 26.3489 0.000948447 24.8025 0H24.7997ZM29.2241 5.23512C29.2113 5.1595 29.1455 5.10449 29.0689 5.10449L15.8229 5.1045C11.3593 5.1045 7.741 8.72287 7.741 13.1864L7.74093 16.3779C7.74093 16.4653 7.8118 16.5361 7.89927 16.5361H9.2346C9.58433 16.5361 9.8678 16.2527 9.8678 15.903V13.1864C9.8678 9.89747 12.534 7.23133 15.8229 7.23133H29.2691C29.3595 7.23133 29.4317 7.15573 29.4265 7.06547C29.3971 6.55191 29.3389 5.91483 29.2241 5.23512ZM0.357889 21.5621C0.281198 21.5621 0.21544 21.5071 0.202661 21.4315C0.087788 20.7518 0.0296668 20.1147 0.000261516 19.6011C-0.00490717 19.5109 0.0672053 19.4353 0.157619 19.4353H13.6039C16.8928 19.4353 19.5589 16.7691 19.5589 13.4802V10.7637C19.5589 10.4139 19.8425 10.1305 20.1921 10.1305H21.5275C21.6149 10.1305 21.6858 10.2013 21.6858 10.2888V13.4802C21.6857 17.9437 18.0674 21.5621 13.6039 21.5621H0.357889ZM13.6043 26.6666H4.62706H4.62429C3.07785 26.6657 2.04525 25.8702 1.35575 24.7729C1.29127 24.6702 1.36696 24.5398 1.48817 24.5398H13.6043C19.5947 24.5398 24.451 19.6836 24.4511 13.6931V10.2889C24.4511 10.2015 24.5219 10.1306 24.6093 10.1306H26.4196C26.507 10.1306 26.5779 10.2015 26.5779 10.2889V13.6932C26.5778 20.8582 20.7693 26.6666 13.6043 26.6666Z"
      fill="white"
    />
  </g>
  <defs>
    <clipPath id="clip0_16253_10629">
      <rect width="30" height="26.6667" fill="white" />
    </clipPath>
  </defs>
</svg>
