<svg
  width="80"
  height="80"
  viewBox="0 0 80 80"
  fill="none"
  xmlns="http://www.w3.org/2000/svg"
>
  <path
    d="M32.5 12V68"
    stroke="#E5E5E5"
    stroke-linecap="round"
    stroke-dasharray="5 4"
  />
  <path
    d="M16.5 12V68"
    stroke="#E5E5E5"
    stroke-linecap="round"
    stroke-dasharray="5 4"
  />
  <path
    d="M48.5 12V68"
    stroke="#E5E5E5"
    stroke-linecap="round"
    stroke-dasharray="5 4"
  />
  <path
    d="M64.5 12V68"
    stroke="#E5E5E5"
    stroke-linecap="round"
    stroke-dasharray="5 4"
  />
  <path
    d="M64.5 26.5L16 68.5H64.5V26.5Z"
    fill="url(#paint0_linear_16122_3301)"
  />
  <path
    d="M15.509 67.433C15.1959 67.7042 15.1619 68.1779 15.433 68.491C15.7042 68.8041 16.1779 68.8381 16.491 68.567L16 68L15.509 67.433ZM65.2481 26.0537C65.2778 25.6406 64.9669 25.2816 64.5537 25.2519L57.8211 24.7684C57.4079 24.7387 57.049 25.0496 57.0193 25.4627C56.9896 25.8759 57.3005 26.2348 57.7136 26.2645L63.6982 26.6943L63.2684 32.6789C63.2387 33.0921 63.5496 33.4511 63.9627 33.4807C64.3759 33.5104 64.7349 33.1995 64.7645 32.7864L65.2481 26.0537ZM16 68L16.491 68.567L64.991 26.567L64.5 26L64.009 25.433L15.509 67.433L16 68Z"
    fill="#FF6C15"
  />
  <rect x="2" y="2" width="16" height="16" rx="8" fill="#FFEBD4" />
  <path
    d="M9.98047 14.1172C8.27148 14.1172 7.28027 13.0332 7.28027 11.6367H8.53516C8.53516 12.5449 9.06738 13.0771 9.96582 13.0771C10.8105 13.0771 11.3965 12.6133 11.3965 11.8955C11.3965 11.2217 10.7715 10.7773 9.84375 10.7773H9.21387V9.78613H9.84375C10.6787 9.78613 11.2256 9.38574 11.2256 8.76074C11.2256 8.06738 10.7129 7.62793 9.95117 7.62793C9.16504 7.62793 8.65723 8.11133 8.65723 8.8877H7.43164C7.43164 7.56445 8.43262 6.60742 9.95117 6.60742C11.3916 6.60742 12.4463 7.45703 12.4463 8.64355C12.4463 9.43457 11.8994 10.0254 11.084 10.2207V10.2354C12.0703 10.3721 12.6709 11.085 12.6709 11.9492C12.6709 13.2139 11.5479 14.1172 9.98047 14.1172Z"
    fill="#FF6C15"
  />
  <defs>
    <linearGradient
      id="paint0_linear_16122_3301"
      x1="39.2513"
      y1="27"
      x2="39.2513"
      y2="69"
      gradientUnits="userSpaceOnUse"
    >
      <stop offset="0.0584984" stop-color="#FF6C15" stop-opacity="0.16" />
      <stop offset="1" stop-color="#FFEBD4" stop-opacity="0" />
    </linearGradient>
  </defs>
</svg>
