<svg
  xmlns="http://www.w3.org/2000/svg"
  width="13"
  height="12"
  viewBox="0 0 13 12"
  fill="none"
>
  <path
    opacity="0.9"
    d="M1.52246 8.15403V11.6469C1.52246 11.8619 1.70442 11.9511 1.76104 11.9714C1.81763 11.9958 2.00771 12.0485 2.17754 11.8903L4.6586 9.50602C4.99096 9.1866 5.53395 8.44612 5.53395 8.44612C5.6957 8.11754 5.69566 7.80109 5.53795 7.48467C5.30341 7.0141 4.70495 6.53538 3.80317 6.08105L2.26246 6.94109C1.80554 7.2007 1.52246 7.6591 1.52246 8.15403Z"
    fill="#260F01"
  />
  <path
    d="M0 0.386369V4.04963C0 4.50803 0.307333 4.9137 0.74408 5.04352C2.2322 5.47352 4.82428 6.39849 5.45107 7.75749C5.53195 7.936 5.58049 8.11043 5.59665 8.29299C6.01319 7.53437 6.20324 6.66217 6.11428 5.77778C5.99298 4.52427 5.32978 3.38431 4.29457 2.65814L0.602539 0.0739977C0.537832 0.0253169 0.460999 0.000976562 0.384166 0.000976562C0.319458 0.000976562 0.262834 0.0131467 0.202206 0.0456005C0.0808748 0.114565 0 0.240327 0 0.386369Z"
    fill="url(#paint0_linear_16382_11693)"
  />
  <path
    opacity="0.9"
    d="M11.3428 8.15403V11.6469C11.3428 11.8619 11.1608 11.9511 11.1042 11.9714C11.0476 11.9958 10.8575 12.0485 10.6877 11.8903L8.20664 9.50602C7.87428 9.1866 7.33129 8.44612 7.33129 8.44612C7.16954 8.11754 7.16955 7.80109 7.32725 7.48467C7.56179 7.0141 8.16029 6.53538 9.06208 6.08105L10.6027 6.94109C11.0637 7.2007 11.3428 7.6591 11.3428 8.15403Z"
    fill="#260F01"
  />
  <path
    d="M12.8706 0.385393V4.04863C12.8706 4.50703 12.5633 4.91271 12.1266 5.04253C10.6384 5.47257 8.04635 6.39749 7.41952 7.7565C7.33865 7.93501 7.29014 8.10944 7.27394 8.29199C6.85744 7.53338 6.6674 6.66118 6.75635 5.77682C6.87765 4.52328 7.54085 3.38331 8.57606 2.65718L12.2681 0.0730211C12.3328 0.0243403 12.4096 0 12.4865 0C12.5512 0 12.6078 0.0121701 12.6684 0.044624C12.7898 0.113588 12.8706 0.239347 12.8706 0.385393Z"
    fill="url(#paint1_linear_16382_11693)"
  />
  <defs>
    <linearGradient
      id="paint0_linear_16382_11693"
      x1="6.33265"
      y1="8.2397"
      x2="0"
      y2="8.2397"
      gradientUnits="userSpaceOnUse"
    >
      <stop offset="0.239583" stop-color="#FF6C15" />
      <stop offset="1" stop-color="#260F01" />
    </linearGradient>
    <linearGradient
      id="paint1_linear_16382_11693"
      x1="6.75202"
      y1="8.23874"
      x2="12.8221"
      y2="8.23874"
      gradientUnits="userSpaceOnUse"
    >
      <stop offset="0.286458" stop-color="#FF6C15" />
      <stop offset="1" stop-color="#260F01" />
    </linearGradient>
  </defs>
</svg>
