<svg
  xmlns="http://www.w3.org/2000/svg"
  width="16"
  height="16"
  viewBox="0 0 16 16"
  fill="none"
>
  <path
    d="M3 2C2.73478 2 2.48043 2.10536 2.29289 2.29289C2.10536 2.48043 2 2.73478 2 3V4C2 4.26522 2.10536 4.51957 2.29289 4.70711C2.48043 4.89464 2.73478 5 3 5H13C13.2652 5 13.5196 4.89464 13.7071 4.70711C13.8946 4.51957 14 4.26522 14 4V3C14 2.73478 13.8946 2.48043 13.7071 2.29289C13.5196 2.10536 13.2652 2 13 2H3Z"
    fill="#737373"
  />
  <path
    fill-rule="evenodd"
    clip-rule="evenodd"
    d="M3 6H13V12C13 12.5304 12.7893 13.0391 12.4142 13.4142C12.0391 13.7893 11.5304 14 11 14H5C4.46957 14 3.96086 13.7893 3.58579 13.4142C3.21071 13.0391 3 12.5304 3 12V6ZM6 8.75C6 8.55109 6.07902 8.36032 6.21967 8.21967C6.36032 8.07902 6.55109 8 6.75 8H9.25C9.44891 8 9.63968 8.07902 9.78033 8.21967C9.92098 8.36032 10 8.55109 10 8.75C10 8.94891 9.92098 9.13968 9.78033 9.28033C9.63968 9.42098 9.44891 9.5 9.25 9.5H6.75C6.55109 9.5 6.36032 9.42098 6.21967 9.28033C6.07902 9.13968 6 8.94891 6 8.75Z"
    fill="#737373"
  />
</svg>
