<svg
  width="71"
  height="18"
  viewBox="0 0 71 18"
  fill="none"
  xmlns="http://www.w3.org/2000/svg"
>
  <g clip-path="url(#clip0_10580_15336)">
    <path
      d="M16.8147 4.53132L16.4245 3.84976C16.394 3.79641 16.3516 3.75081 16.3007 3.71651C16.2497 3.6822 16.1915 3.66012 16.1306 3.65197C16.0696 3.64382 16.0077 3.64982 15.9495 3.66952C15.8913 3.68921 15.8384 3.72206 15.7949 3.76551L14.9037 4.65674C14.8381 4.7224 14.7972 4.80878 14.7881 4.90117C14.779 4.99355 14.8021 5.08625 14.8536 5.16348C15.1793 5.66075 15.4401 6.19759 15.6296 6.76097C15.9837 7.81365 16.0822 8.93545 15.9172 10.0337C15.7521 11.132 15.3282 12.1753 14.6803 13.0774C14.0325 13.9795 13.1794 14.7146 12.1914 15.2219C11.2034 15.7292 10.1089 15.9942 8.99828 15.995C7.85412 15.9983 6.72694 15.7184 5.71714 15.1804L7.22786 13.6704C7.98452 13.9568 8.7994 14.0553 9.60252 13.9574C10.4056 13.8595 11.173 13.5681 11.8387 13.1083C12.5044 12.6485 13.0485 12.034 13.4244 11.3175C13.8003 10.6011 13.9966 9.80412 13.9966 8.99506C13.9963 8.82217 13.9868 8.64943 13.9681 8.47755C13.9089 7.90053 13.7494 7.33828 13.4969 6.81608C13.4686 6.75936 13.4274 6.71014 13.3765 6.67243C13.3256 6.63473 13.2664 6.60963 13.204 6.59919C13.1415 6.58874 13.0774 6.59325 13.017 6.61235C12.9566 6.63144 12.9016 6.66457 12.8565 6.70903L11.9519 7.61356C11.9038 7.6616 11.8686 7.72113 11.8499 7.78653C11.8312 7.85193 11.8294 7.92103 11.8449 7.98728L11.9209 8.31223C12.0546 8.88066 12.0193 9.47574 11.8196 10.0244C11.6198 10.5731 11.2642 11.0516 10.7964 11.401C10.3285 11.7505 9.76884 11.9557 9.18602 11.9916C8.60319 12.0274 8.02257 11.8923 7.51543 11.6029L7.11764 11.3748C7.04151 11.3309 6.95303 11.3133 6.86589 11.3248C6.77875 11.3362 6.69781 11.3761 6.63561 11.4382L2.94528 15.1241C2.90503 15.1643 2.87383 15.2127 2.85377 15.2659C2.83371 15.3192 2.82526 15.3761 2.82898 15.4329C2.8327 15.4897 2.8485 15.545 2.87533 15.5952C2.90216 15.6454 2.9394 15.6893 2.98455 15.7239L3.52803 16.1407C5.09521 17.3486 7.01965 18.0008 8.99828 17.9947C13.9605 17.9947 17.998 13.9573 17.998 8.99506C17.9984 7.42957 17.5905 5.89104 16.8147 4.53132Z"
      fill="url(#paint0_linear_10580_15336)"
    />
    <path
      d="M14.468 1.85017C12.901 0.642393 10.9768 -0.00985481 8.99836 -0.00386537C4.03549 -0.00386537 -0.00195299 4.03358 -0.00195299 8.99645C-0.00222582 10.5619 0.405595 12.1004 1.18128 13.4602L1.57147 14.1418C1.60191 14.1957 1.64448 14.2419 1.69583 14.2766C1.74717 14.3113 1.80588 14.3336 1.86731 14.3417C1.92875 14.3498 1.99123 14.3435 2.04981 14.3233C2.1084 14.3031 2.16149 14.2696 2.2049 14.2254L3.09549 13.3348C3.16112 13.2691 3.20197 13.1827 3.21109 13.0903C3.22021 12.998 3.19705 12.9053 3.14553 12.828C2.82013 12.3306 2.55939 11.7938 2.36959 11.2305C2.01546 10.178 1.91676 9.05639 2.08162 7.95821C2.24649 6.86003 2.67019 5.81682 3.31775 4.91469C3.96531 4.01256 4.81816 3.27739 5.80588 2.76987C6.79361 2.26235 7.88788 1.99705 8.99836 1.99585C10.1423 1.9927 11.2693 2.27254 12.2789 2.81044L10.7662 4.32115C10.0096 4.03453 9.19473 3.9359 8.39158 4.03372C7.58842 4.13155 6.82103 4.4229 6.15533 4.88276C5.48962 5.34261 4.94552 5.95722 4.56977 6.67376C4.19401 7.3903 3.99785 8.18736 3.99812 8.99645C3.99812 9.07943 4.02029 9.45822 4.02726 9.52346C4.08839 10.0969 4.24781 10.6555 4.49852 11.1748C4.52633 11.2324 4.56751 11.2825 4.61862 11.3209C4.66974 11.3594 4.72931 11.385 4.79235 11.3957C4.8554 11.4065 4.9201 11.4019 4.98105 11.3826C5.042 11.3632 5.09743 11.3295 5.14271 11.2844L6.04724 10.3805C6.09562 10.3321 6.1308 10.2721 6.14942 10.2062C6.16805 10.1403 6.16951 10.0708 6.15366 10.0042L6.07891 9.68182C6.02639 9.45713 5.99961 9.22719 5.9991 8.99645C5.9991 8.47148 6.13697 7.95571 6.39893 7.50076C6.66088 7.04582 7.03773 6.66765 7.49176 6.40411C7.94579 6.14057 8.46108 6.0009 8.98605 5.99907C9.51102 5.99725 10.0273 6.13333 10.4831 6.39371L10.8815 6.62175C10.9576 6.6655 11.046 6.683 11.133 6.67155C11.22 6.66011 11.3008 6.62034 11.3629 6.5584L15.0507 2.87061C15.091 2.83033 15.1222 2.78191 15.1423 2.7286C15.1623 2.67529 15.1708 2.61831 15.1671 2.56148C15.1633 2.50464 15.1475 2.44925 15.1207 2.399C15.0939 2.34876 15.0566 2.30482 15.0115 2.27013L14.468 1.85017Z"
      fill="url(#paint1_linear_10580_15336)"
    />
    <path
      d="M29.6267 11.4782C29.5594 11.4236 29.4748 11.3947 29.3882 11.3967C29.3015 11.3986 29.2183 11.4313 29.1536 11.489C28.5753 11.9381 27.9045 12.3536 26.9239 12.3536C25.1294 12.3536 23.6694 10.8416 23.6694 8.98251C23.6694 7.12341 25.1231 5.59876 26.9106 5.59876C27.6891 5.59876 28.5252 5.92498 29.1422 6.46592C29.1766 6.50652 29.2197 6.53894 29.2682 6.56085C29.3167 6.58276 29.3695 6.59361 29.4228 6.5926C29.4684 6.58872 29.5126 6.57498 29.5524 6.55234C29.5922 6.52971 29.6267 6.49871 29.6533 6.46148L30.2374 5.86037C30.2743 5.82413 30.3035 5.78071 30.3231 5.73279C30.3428 5.68486 30.3524 5.63343 30.3514 5.58166C30.3493 5.52908 30.3364 5.4775 30.3134 5.43018C30.2904 5.38286 30.2578 5.34083 30.2177 5.30675C29.2042 4.41996 28.1775 4.02344 26.8973 4.02344C24.1647 4.02344 21.9414 6.26069 21.9414 9.01038C21.9424 10.3248 22.4648 11.5852 23.3938 12.515C24.3229 13.4448 25.5829 13.9681 26.8973 13.9701C28.1832 13.9701 29.3379 13.5064 30.2374 12.6272C30.276 12.5878 30.3064 12.5411 30.3266 12.4897C30.3469 12.4383 30.3566 12.3834 30.3552 12.3283C30.3547 12.2838 30.3451 12.2399 30.327 12.1993C30.3089 12.1586 30.2827 12.1221 30.25 12.092L29.6267 11.4782Z"
      fill="#3D3652"
    />
    <path
      d="M33.877 4.15625H32.9902C32.8908 4.15902 32.7962 4.2001 32.7264 4.27092C32.6565 4.34174 32.6167 4.43682 32.6152 4.5363V13.4568C32.6175 13.5557 32.6576 13.65 32.7274 13.7202C32.7972 13.7903 32.8913 13.831 32.9902 13.8337H33.877C33.976 13.831 34.0701 13.7903 34.14 13.7202C34.2099 13.6501 34.2502 13.5558 34.2526 13.4568V4.53314C34.2504 4.4341 34.2101 4.33973 34.1402 4.26956C34.0703 4.1994 33.976 4.15883 33.877 4.15625Z"
      fill="#3D3652"
    />
    <path
      d="M44.3369 7.16121C44.3369 5.50544 42.9725 4.15625 41.2964 4.15625H37.6523C37.5524 4.15758 37.457 4.19821 37.3869 4.26934C37.3167 4.34047 37.2773 4.43638 37.2773 4.5363V13.4568C37.2782 13.5562 37.3179 13.6513 37.388 13.7217C37.4581 13.7922 37.553 13.8324 37.6523 13.8337H38.5233C38.6222 13.8308 38.7161 13.7901 38.7859 13.72C38.8557 13.6499 38.8959 13.5557 38.8983 13.4568V10.1402H40.7263L42.4746 13.6456C42.5063 13.7032 42.5528 13.7512 42.6095 13.7846C42.6661 13.8181 42.7306 13.8357 42.7964 13.8356H43.8415C43.9075 13.8379 43.973 13.8226 44.0312 13.7913C44.0894 13.76 44.1382 13.7139 44.1728 13.6576C44.2064 13.598 44.2241 13.5307 44.2241 13.4622C44.2241 13.3937 44.2064 13.3264 44.1728 13.2668L42.3992 9.95904C43.5989 9.4238 44.3369 8.36345 44.3369 7.16121ZM42.7026 7.18845C42.7026 8.029 42.0097 8.73907 41.1894 8.73907H38.9249V5.70497H41.1887C42.009 5.70497 42.702 6.38463 42.702 7.18845H42.7026Z"
      fill="#3D3652"
    />
    <path
      d="M53.8566 11.4782C53.7893 11.4236 53.7047 11.3947 53.6181 11.3967C53.5314 11.3986 53.4482 11.4313 53.3835 11.489C52.8051 11.9381 52.1343 12.3536 51.1538 12.3536C49.3593 12.3536 47.8993 10.8416 47.8993 8.98251C47.8993 7.12341 49.3561 5.59876 51.1405 5.59876C51.9183 5.59876 52.7551 5.92498 53.3721 6.46592C53.4065 6.50655 53.4495 6.539 53.4981 6.56092C53.5466 6.58283 53.5994 6.59365 53.6527 6.5926C53.6983 6.58872 53.7425 6.57498 53.7823 6.55234C53.8221 6.52971 53.8566 6.49871 53.8832 6.46149L54.4672 5.86037C54.5041 5.82407 54.5332 5.78064 54.5527 5.73271C54.5722 5.68479 54.5817 5.63339 54.5806 5.58166C54.5787 5.52913 54.5658 5.47758 54.5429 5.43026C54.5201 5.38294 54.4876 5.34089 54.4476 5.30675C53.4341 4.41996 52.4074 4.02344 51.1272 4.02344C48.394 4.0228 46.1738 6.26006 46.1738 9.00975C46.1748 10.3243 46.6973 11.5847 47.6265 12.5146C48.5557 13.4444 49.8158 13.9676 51.1304 13.9695C52.4156 13.9695 53.5703 13.5058 54.4704 12.6266C54.5091 12.5871 54.5395 12.5402 54.5597 12.4887C54.58 12.4373 54.5897 12.3823 54.5882 12.327C54.5875 12.2826 54.5779 12.2389 54.5598 12.1984C54.5417 12.1579 54.5156 12.1215 54.4831 12.0914L53.8566 11.4782Z"
      fill="#3D3652"
    />
    <path
      d="M61.9897 12.3414H58.4805V4.5363C58.4791 4.43682 58.4393 4.34174 58.3694 4.27092C58.2995 4.2001 58.205 4.15902 58.1055 4.15625H57.2187C57.1188 4.15758 57.0235 4.19821 56.9533 4.26934C56.8831 4.34047 56.8437 4.43638 56.8438 4.5363V13.46C56.8446 13.5594 56.8843 13.6545 56.9544 13.7249C57.0245 13.7954 57.1194 13.8355 57.2187 13.8369H61.9872C62.0866 13.8357 62.1817 13.7956 62.2519 13.7251C62.3222 13.6547 62.3619 13.5595 62.3628 13.46V12.7182C62.362 12.6192 62.3225 12.5244 62.2528 12.454C62.1831 12.3836 62.0887 12.3432 61.9897 12.3414Z"
      fill="#3D3652"
    />
    <path
      d="M69.9323 5.6676C70.0322 5.66627 70.1276 5.62564 70.1978 5.55451C70.268 5.48338 70.3073 5.38747 70.3073 5.28754V4.5363C70.3073 4.43638 70.268 4.34047 70.1978 4.26934C70.1276 4.19821 70.0322 4.15758 69.9323 4.15625H64.5742C64.4743 4.15758 64.3789 4.19821 64.3087 4.26934C64.2386 4.34047 64.1992 4.43638 64.1992 4.5363V13.46C64.2 13.5594 64.2398 13.6545 64.3098 13.7249C64.3799 13.7954 64.4748 13.8355 64.5742 13.8369H69.9323C70.0317 13.8355 70.1266 13.7954 70.1967 13.7249C70.2668 13.6545 70.3065 13.5594 70.3073 13.46V12.7182C70.3065 12.6189 70.2668 12.5238 70.1967 12.4533C70.1266 12.3829 70.0317 12.3427 69.9323 12.3414H65.8202V9.68477H69.2755C69.3755 9.6836 69.471 9.64305 69.5414 9.5719C69.6117 9.50075 69.6511 9.40475 69.6511 9.30472V8.55348C69.6489 8.45444 69.6086 8.36007 69.5387 8.2899C69.4687 8.21974 69.3745 8.17917 69.2755 8.17659H65.8202V5.6676H69.9323Z"
      fill="#3D3652"
    />
  </g>
  <defs>
    <linearGradient
      id="paint0_linear_10580_15336"
      x1="5.82419"
      y1="18.568"
      x2="18.4939"
      y2="5.89825"
      gradientUnits="userSpaceOnUse"
    >
      <stop stop-color="#B090F5" />
      <stop offset="1" stop-color="#5FBFFF" />
    </linearGradient>
    <linearGradient
      id="paint1_linear_10580_15336"
      x1="-0.00195299"
      y1="7.16966"
      x2="15.1679"
      y2="7.16966"
      gradientUnits="userSpaceOnUse"
    >
      <stop stop-color="#68D7FA" />
      <stop offset="1" stop-color="#7EF1B3" />
    </linearGradient>
    <clipPath id="clip0_10580_15336">
      <rect width="70.31" height="18" fill="white" />
    </clipPath>
  </defs>
</svg>
