<svg
  width="80"
  height="20"
  viewBox="0 0 80 20"
  fill="none"
  xmlns="http://www.w3.org/2000/svg"
>
  <g id="ethereum 1" clip-path="url(#clip0_10734_11768)">
    <g id="Group">
      <path
        id="Vector"
        d="M22.8092 11.5025C22.8092 11.6422 22.6915 11.7599 22.5445 11.7599H17.6695C17.7945 12.9658 18.6989 14.0687 19.9783 14.0687C20.8533 14.0687 21.5003 13.7378 21.9856 13.0393C22.0371 12.9658 22.1106 12.9143 22.1989 12.9143C22.3386 12.9143 22.4415 13.0172 22.4415 13.1569C22.4415 13.2084 22.4268 13.2452 22.4048 13.2819C21.9121 14.1349 20.9342 14.554 19.9783 14.554C18.3386 14.554 17.1621 13.0834 17.1621 11.5172C17.1621 9.9437 18.3312 8.48047 19.9783 8.48047C21.618 8.48047 22.8018 9.93635 22.8092 11.5025ZM22.2871 11.2746C22.1842 10.0687 21.2577 8.96577 19.9783 8.96577C18.6989 8.96577 17.7945 10.0687 17.6695 11.2746H22.2871Z"
        fill="#3B3B3B"
      />
      <path
        id="Vector_2"
        d="M28.7355 8.59851C28.8752 8.59851 28.9782 8.72351 28.9782 8.84116C28.9782 8.98087 28.8752 9.08381 28.7355 9.08381H27.4267V14.2235C27.4267 14.3485 27.3238 14.4662 27.1841 14.4662C27.0443 14.4662 26.9414 14.3412 26.9414 14.2235V9.08381H25.6841C25.5443 9.08381 25.4414 8.98087 25.4414 8.84116C25.4414 8.71616 25.5443 8.59851 25.6841 8.59851H26.9414V6.72351C26.9414 6.59851 27.037 6.48087 27.162 6.46616C27.3164 6.45145 27.4341 6.56175 27.4341 6.70881V8.59851H28.7355Z"
        fill="#3B3B3B"
      />
      <path
        id="Vector_3"
        d="M36.7145 11.0834V14.1937C36.7145 14.3334 36.5895 14.4363 36.4719 14.4363C36.3321 14.4363 36.2292 14.3334 36.2292 14.1937V11.0834C36.2292 10.0319 35.6336 8.98782 34.4645 8.98782C32.9645 8.98782 32.3174 10.2966 32.4057 11.6422C32.4057 11.679 32.4204 11.8334 32.4204 11.8555V14.1864C32.4204 14.3114 32.3248 14.429 32.1998 14.4437C32.0454 14.4584 31.9277 14.3481 31.9277 14.2011V3.97311C31.9277 3.84811 32.0307 3.73047 32.1704 3.73047C32.3101 3.73047 32.413 3.85547 32.413 3.97311V9.75252C32.8321 9.00252 33.5821 8.49517 34.4571 8.49517C35.8983 8.49517 36.7145 9.75253 36.7145 11.0834Z"
        fill="#3B3B3B"
      />
      <path
        id="Vector_4"
        d="M45.4713 11.5025C45.4713 11.6422 45.3536 11.7599 45.2066 11.7599H40.3316C40.4566 12.9658 41.361 14.0687 42.6404 14.0687C43.5154 14.0687 44.1625 13.7378 44.6478 13.0393C44.6992 12.9658 44.7727 12.9143 44.861 12.9143C45.0007 12.9143 45.1036 13.0172 45.1036 13.1569C45.1036 13.2084 45.0889 13.2452 45.0669 13.2819C44.5742 14.1349 43.5963 14.554 42.6404 14.554C41.0007 14.554 39.8242 13.0834 39.8242 11.5172C39.8242 9.9437 40.9933 8.48047 42.6404 8.48047C44.2728 8.48047 45.4639 9.93635 45.4713 11.5025ZM44.9419 11.2746C44.8389 10.0687 43.9125 8.96577 42.633 8.96577C41.3536 8.96577 40.4492 10.0687 40.3242 11.2746H44.9419Z"
        fill="#3B3B3B"
      />
      <path
        id="Vector_5"
        d="M51.4636 8.8256C51.4636 8.98001 51.3753 9.06824 51.2356 9.0903C49.8018 9.30354 49.1548 10.4727 49.1548 11.833V14.1638C49.1548 14.2888 49.0592 14.4065 48.9342 14.4212C48.7798 14.4359 48.6621 14.3256 48.6621 14.1785V8.86236C48.6621 8.73736 48.7577 8.61971 48.8827 8.60501C49.0371 8.5903 49.1548 8.70059 49.1548 8.84765V9.92854C49.5592 9.24471 50.3606 8.59766 51.1989 8.59766C51.3239 8.59766 51.4636 8.68589 51.4636 8.8256Z"
        fill="#3B3B3B"
      />
      <path
        id="Vector_6"
        d="M59.4791 11.5025C59.4791 11.6422 59.3614 11.7599 59.2144 11.7599H54.3394C54.4644 12.9658 55.3688 14.0687 56.6482 14.0687C57.5232 14.0687 58.1703 13.7378 58.6556 13.0393C58.707 12.9658 58.7806 12.9143 58.8688 12.9143C59.0085 12.9143 59.1114 13.0172 59.1114 13.1569C59.1114 13.2084 59.0967 13.2452 59.0747 13.2819C58.582 14.1349 57.6041 14.554 56.6482 14.554C55.0085 14.554 53.832 13.0834 53.832 11.5172C53.832 9.9437 55.0012 8.48047 56.6482 8.48047C58.2879 8.48047 59.4717 9.93635 59.4791 11.5025ZM58.957 11.2746C58.8541 10.0687 57.9276 8.96577 56.6482 8.96577C55.3688 8.96577 54.4644 10.0687 54.3394 11.2746H58.957Z"
        fill="#3B3B3B"
      />
      <path
        id="Vector_7"
        d="M67.3604 8.88396V10.5678V14.2222C67.3604 14.3619 67.2354 14.4648 67.1178 14.4648C66.9781 14.4648 66.8751 14.3619 66.8751 14.2222V13.2075C66.4707 14.009 65.7575 14.5898 64.8457 14.5898C63.3972 14.5898 62.5957 13.3325 62.5957 12.0016V8.87661C62.5957 8.75161 62.6986 8.63396 62.8383 8.63396C62.9781 8.63396 63.081 8.75896 63.081 8.87661V12.0016C63.081 13.0531 63.6766 14.0972 64.8457 14.0972C66.4854 14.0972 66.8751 12.5604 66.8751 10.8619V8.86925C66.8751 8.72219 67.0295 8.57513 67.206 8.64131C67.3016 8.68543 67.3604 8.78102 67.3604 8.88396Z"
        fill="#3B3B3B"
      />
      <path
        id="Vector_8"
        d="M79.7068 11.0623V14.1873C79.7068 14.327 79.5818 14.4299 79.4642 14.4299C79.3244 14.4299 79.2215 14.327 79.2215 14.1873V11.0623C79.2215 10.0108 78.6259 8.98139 77.4568 8.98139C75.9862 8.98139 75.4274 10.5549 75.4274 11.7755V14.1873C75.4274 14.327 75.3024 14.4299 75.1847 14.4299C75.045 14.4299 74.9421 14.327 74.9421 14.1873V11.0623C74.9421 10.0108 74.3465 8.98139 73.1774 8.98139C71.6921 8.98139 71.0818 10.1505 71.1333 11.7093C71.1333 11.7461 71.148 11.8123 71.1333 11.8343V14.1799C71.1333 14.3049 71.0377 14.4226 70.9127 14.4373C70.7583 14.452 70.6406 14.3417 70.6406 14.1946V8.86374C70.6406 8.73874 70.7362 8.62109 70.8612 8.60639C71.0156 8.59168 71.1333 8.70198 71.1333 8.84903V9.73874C71.5524 8.98874 72.3024 8.49609 73.1774 8.49609C74.17 8.49609 74.9421 9.12844 75.2583 10.0476C75.6627 9.1358 76.4495 8.49609 77.4568 8.49609C78.8906 8.49609 79.7068 9.73874 79.7068 11.0623Z"
        fill="#3B3B3B"
      />
    </g>
    <path
      id="Vector_9"
      opacity="0.6"
      d="M6.39786 7.41016L0.294922 10.1822L6.39786 13.7925L12.5082 10.1822L6.39786 7.41016Z"
      fill="black"
    />
    <path
      id="Vector_10"
      opacity="0.45"
      d="M0.294922 10.1831L6.39786 13.7934V7.41107V0.0507812L0.294922 10.1831Z"
      fill="black"
    />
    <path
      id="Vector_11"
      opacity="0.8"
      d="M6.39648 0.0507812V7.41107V13.7934L12.5068 10.1831L6.39648 0.0507812Z"
      fill="black"
    />
    <path
      id="Vector_12"
      opacity="0.45"
      d="M0.294922 11.3438L6.39786 19.9467V14.9467L0.294922 11.3438Z"
      fill="black"
    />
    <path
      id="Vector_13"
      opacity="0.8"
      d="M6.39648 14.9467V19.9467L12.5068 11.3438L6.39648 14.9467Z"
      fill="black"
    />
  </g>
  <defs>
    <clipPath id="clip0_10734_11768">
      <rect
        width="79.5588"
        height="20"
        fill="white"
        transform="translate(0.220703)"
      />
    </clipPath>
  </defs>
</svg>
