<svg
  width="91"
  height="19"
  viewBox="0 0 91 19"
  fill="none"
  xmlns="http://www.w3.org/2000/svg"
>
  <g clip-path="url(#clip0_8366_11765)">
    <path
      d="M16.7792 7.22325L17.8525 8.3007L18.9257 9.37808L14.1947 14.1252C13.6769 14.6458 13.2716 15.0518 12.9401 15.3698C12.4372 15.8549 12.1081 16.1367 11.8259 16.3047C11.1289 16.7183 10.334 16.9364 9.52438 16.9364C8.71475 16.9364 7.91991 16.7183 7.22287 16.3047C6.75437 16.0255 6.043 15.5527 4.73758 14.2454C3.43216 12.9382 2.9612 12.2207 2.68633 11.7496C2.2736 11.0504 2.05582 10.2526 2.05582 9.43983C2.05582 8.62711 2.2736 7.82936 2.68633 7.13018C2.96448 6.65901 3.55196 6.05934 4.85737 4.75129L9.00093 0.586592H6.10043L3.40262 3.29167C1.93475 4.76859 1.32265 5.39461 0.917328 6.07994C0.31685 7.09702 0 8.25756 0 9.43983C0 10.6222 0.31685 11.7827 0.917328 12.7998C1.32265 13.486 1.81988 14.2281 3.28611 15.7018C4.75235 17.1754 5.49736 17.6721 6.17592 18.0798C7.17447 18.6737 8.31203 18.9911 9.47261 18.9998C10.6332 19.0085 11.7753 18.7081 12.7826 18.1292C12.8121 18.1128 12.8416 18.0971 12.8704 18.0798C13.3176 17.8138 13.7393 17.4579 14.39 16.8302C14.7321 16.5007 15.1375 16.0889 15.6445 15.5848L19.3023 11.9127C20.0186 11.1927 20.2253 10.986 20.3977 10.5527C20.7005 9.79007 20.7102 8.94156 20.4248 8.17214C20.2607 7.73396 20.0612 7.52227 19.3581 6.78669C18.6254 6.08406 18.4145 5.8806 17.9788 5.71586C17.2127 5.42944 16.3679 5.43884 15.6084 5.74222C15.1751 5.91602 14.9692 6.12277 14.2521 6.8427L9.3537 11.7661L8.27965 10.6886L7.20565 9.61123L11.9342 4.86413C12.4528 4.34437 12.8572 3.93746 13.1896 3.61951C13.6917 3.13517 14.0215 2.85345 14.303 2.68541C14.9999 2.27127 15.795 2.05277 16.6049 2.05277C17.4148 2.05277 18.2098 2.27127 18.9068 2.68541C19.3745 2.96218 20.0285 3.49595 21.333 4.80648C22.6376 6.11701 23.1677 6.77268 23.4458 7.24549C23.859 7.94493 24.077 8.74317 24.077 9.55645C24.077 10.3696 23.859 11.1679 23.4458 11.8673C23.1677 12.3369 22.581 12.9382 21.2756 14.2454L17.1238 18.4134H20.0243L22.7221 15.705C24.19 14.2314 24.8021 13.6054 25.2075 12.9201C25.8081 11.9029 26.125 10.7422 26.125 9.55969C26.125 8.37726 25.8081 7.21656 25.2075 6.19938C24.8021 5.51405 24.2499 4.83119 22.7804 3.35674C21.3109 1.88229 20.6315 1.32711 19.9488 0.920194C18.9503 0.326323 17.8127 0.00886508 16.6522 0.000182992C15.4916 -0.0084991 14.3494 0.291904 13.3422 0.87077L13.2544 0.920194C12.8072 1.18296 12.3896 1.5388 11.7331 2.16647C11.3902 2.49596 10.9857 2.90288 10.4787 3.41193L6.82986 7.08075C6.11274 7.79656 5.90761 8.00327 5.73367 8.43742C5.43083 9.20012 5.42119 10.0485 5.70659 10.818C5.87069 11.2554 6.0709 11.4671 6.77324 12.2035C7.50677 12.9061 7.71764 13.1095 8.15417 13.2743C8.92026 13.5608 9.76513 13.5511 10.5246 13.247C10.957 13.0733 11.1629 12.8665 11.8792 12.1466L16.7792 7.22325Z"
      fill="#FF9900"
    />
    <path
      d="M88.1333 16.0738C87.2751 16.0738 86.5563 15.9107 85.976 15.5845C85.4076 15.2459 84.9785 14.7817 84.6888 14.1921C84.399 13.5899 84.2533 12.9 84.2533 12.1223V4.125H86.8278V12.047C86.8278 12.5613 86.9672 12.9627 87.2451 13.2513C87.5229 13.5397 87.8982 13.6841 88.3692 13.6841C88.6352 13.6841 88.9194 13.6464 89.2218 13.5712C89.5235 13.4959 89.7831 13.383 90.0008 13.2324V15.6222C89.7713 15.7602 89.4815 15.8668 89.1308 15.9421C88.792 16.0299 88.4603 16.0738 88.1333 16.0738ZM90.0008 8.75396H82.6035V6.49594H90.0008V8.75396Z"
      fill="black"
    />
    <path
      d="M76.0612 16.0562C75.1909 16.0562 74.4234 15.8366 73.7585 15.3976C73.0938 14.9459 72.568 14.35 72.1811 13.6099C71.8064 12.8573 71.6191 12.0293 71.6191 11.1261C71.6191 10.2354 71.8307 9.42002 72.2537 8.67989C72.6888 7.92717 73.2691 7.33132 73.9943 6.89225C74.7316 6.44064 75.5596 6.21484 76.4782 6.21484C77.4089 6.21484 78.2429 6.43437 78.9803 6.87344C79.7173 7.29996 80.2976 7.88328 80.7212 8.62344C81.1439 9.35098 81.3553 10.1852 81.3553 11.1261V15.8115H78.9078V12.4432L79.6873 12.2175C79.6873 12.9451 79.536 13.6037 79.2344 14.1932C78.9319 14.7703 78.515 15.2282 77.9831 15.5669C77.4513 15.8931 76.8106 16.0562 76.0612 16.0562ZM76.4782 13.5535C76.9254 13.5535 77.3183 13.4468 77.6567 13.2336C78.0073 13.0078 78.2792 12.713 78.4726 12.3492C78.6781 11.9854 78.7809 11.584 78.7809 11.1449C78.7809 10.7058 78.6781 10.3044 78.4726 9.94062C78.2792 9.57685 78.0073 9.28828 77.6567 9.07501C77.3183 8.84923 76.9254 8.73633 76.4782 8.73633C76.0431 8.73633 75.6502 8.84923 75.2997 9.07501C74.9612 9.28828 74.6893 9.57685 74.4838 9.94062C74.2904 10.3044 74.1937 10.7058 74.1937 11.1449C74.1937 11.584 74.2904 11.9854 74.4838 12.3492C74.6893 12.713 74.9612 13.0078 75.2997 13.2336C75.6502 13.4468 76.0431 13.5535 76.4782 13.5535Z"
      fill="black"
    />
    <path
      d="M65.5017 16.0601C64.4139 16.0601 63.4469 15.828 62.6008 15.3638C61.7668 14.8871 61.1563 14.1972 60.7695 13.2939L62.9815 12.1461C63.1749 12.5977 63.4831 12.9427 63.9062 13.181C64.3414 13.4194 64.8732 13.5385 65.5017 13.5385C65.8885 13.5385 66.227 13.4884 66.517 13.388C66.8192 13.2752 67.061 13.1183 67.2423 12.9176C67.4236 12.7044 67.5143 12.4471 67.5143 12.1461C67.5143 11.7949 67.4176 11.5314 67.2241 11.3558C67.0307 11.1677 66.7648 11.0297 66.4264 10.9418C66.0879 10.854 65.7072 10.7725 65.2842 10.6972C64.8248 10.6094 64.3414 10.4965 63.8337 10.3585C63.3381 10.208 62.8667 9.99472 62.4194 9.71875C61.9843 9.44277 61.6338 9.07267 61.3679 8.60852C61.102 8.13185 60.969 7.54222 60.969 6.83972C60.969 6.08704 61.1624 5.42218 61.5492 4.84511C61.936 4.25552 62.4678 3.79137 63.1447 3.45266C63.8216 3.1014 64.5771 2.92578 65.4111 2.92578C66.4264 2.92578 67.339 3.16413 68.1488 3.64083C68.9587 4.10498 69.557 4.78867 69.9438 5.69188L67.7318 6.83972C67.5384 6.42575 67.2363 6.09331 66.8253 5.84242C66.4264 5.59152 65.9188 5.46608 65.3023 5.46608C64.9759 5.46608 64.6858 5.51626 64.432 5.61662C64.1781 5.71697 63.9787 5.86123 63.8337 6.04941C63.6886 6.23758 63.6161 6.46338 63.6161 6.72682C63.6161 7.06552 63.7189 7.33524 63.9243 7.53595C64.1298 7.72412 64.4078 7.86839 64.7583 7.96877C65.121 8.06907 65.5198 8.1632 65.955 8.251C66.4143 8.33879 66.8857 8.45802 67.3692 8.60852C67.8648 8.7465 68.3181 8.95352 68.729 9.2295C69.1521 9.50547 69.4965 9.8755 69.7625 10.3397C70.0284 10.8038 70.1614 11.3997 70.1614 12.1273C70.1614 12.88 69.9499 13.5574 69.5268 14.1595C69.1158 14.7492 68.5598 15.2133 67.8587 15.552C67.1576 15.8907 66.372 16.0601 65.5017 16.0601Z"
      fill="black"
    />
    <path
      d="M59.3584 15.8105H56.4755L54.9344 13.2326C54.7531 12.9315 54.6141 12.6054 54.5174 12.2541C54.4328 11.8903 54.3905 11.5391 54.3905 11.2003C54.3905 10.8365 54.4328 10.479 54.5174 10.1278C54.6141 9.764 54.7531 9.42525 54.9344 9.11167L56.4574 6.49609H59.3584L57.2008 10.1654C56.9711 10.5543 56.8563 10.8867 56.8563 11.1627C56.8563 11.4513 56.9892 11.8213 57.2552 12.2729L59.3584 15.8105ZM51.961 15.8105H49.0781L51.1813 12.2729C51.4473 11.8213 51.5802 11.4513 51.5802 11.1627C51.5802 10.8867 51.4654 10.5543 51.2357 10.1654L49.0781 6.49609H51.9791L53.5021 9.11167C53.6834 9.42525 53.8163 9.764 53.901 10.1278C53.9977 10.479 54.046 10.8365 54.046 11.2003C54.046 11.5391 53.9977 11.8903 53.901 12.2541C53.8163 12.6054 53.6834 12.9315 53.5021 13.2326L51.961 15.8105ZM55.8591 12.3106H52.795V9.92083H55.8591V12.3106Z"
      fill="black"
    />
    <path
      d="M43.6864 16.0579C42.7557 16.0579 41.9156 15.8509 41.1662 15.4369C40.4288 15.0105 39.8487 14.4271 39.4256 13.687C39.0026 12.9343 38.791 12.0625 38.791 11.0714C38.791 10.1807 38.9844 9.36532 39.3712 8.62519C39.7701 7.8725 40.32 7.27663 41.0211 6.83756C41.7222 6.38596 42.532 6.16016 43.4507 6.16016C44.4056 6.16016 45.2154 6.37969 45.8802 6.81875C46.545 7.24527 47.0527 7.81605 47.4032 8.53106C47.7658 9.24618 47.9471 10.0302 47.9471 10.8832V11.6735H40.8398L41.2387 11.0149C41.2145 11.5419 41.2991 12.0123 41.4925 12.4262C41.698 12.8402 41.9821 13.1664 42.3446 13.4047C42.7194 13.6305 43.1605 13.7434 43.6682 13.7434C44.1517 13.7434 44.5869 13.6243 44.9737 13.3859C45.3725 13.1475 45.6747 12.8151 45.8802 12.3886L47.8565 13.4235C47.4697 14.264 46.9137 14.9163 46.1884 15.3805C45.4753 15.8321 44.6413 16.0579 43.6864 16.0579ZM41.3837 10.187H45.3907C45.3544 9.86083 45.2456 9.57234 45.0643 9.32138C44.8951 9.058 44.6715 8.85723 44.3935 8.71924C44.1154 8.56875 43.7951 8.49346 43.4326 8.49346C43.0579 8.49346 42.7254 8.56875 42.4354 8.71924C42.1573 8.86982 41.9277 9.07676 41.7464 9.34023C41.5771 9.5911 41.4562 9.87341 41.3837 10.187Z"
      fill="black"
    />
  </g>
  <defs>
    <clipPath id="clip0_8366_11765">
      <rect width="90.25" height="19" fill="white" />
    </clipPath>
  </defs>
</svg>
