<svg
  width="88"
  height="20"
  viewBox="0 0 88 20"
  fill="none"
  xmlns="http://www.w3.org/2000/svg"
>
  <rect width="88" height="20" fill="#1E1E1E" />
  <path
    d="M-1724 -1980C-1724 -1981.1 -1723.1 -1982 -1722 -1982H14234C14235.1 -1982 14236 -1981.1 14236 -1980V1504C14236 1505.1 14235.1 1506 14234 1506H-1722C-1723.1 1506 -1724 1505.1 -1724 1504V-1980Z"
    fill="#444444"
  />
  <path
    d="M-1722 -1981H14234V-1983H-1722V-1981ZM14235 -1980V1504H14237V-1980H14235ZM14234 1505H-1722V1507H14234V1505ZM-1723 1504V-1980H-1725V1504H-1723ZM-1722 1505C-1722.55 1505 -1723 1504.55 -1723 1504H-1725C-1725 1505.66 -1723.66 1507 -1722 1507V1505ZM14235 1504C14235 1504.55 14234.6 1505 14234 1505V1507C14235.7 1507 14237 1505.66 14237 1504H14235ZM14234 -1981C14234.6 -1981 14235 -1980.55 14235 -1980H14237C14237 -1981.66 14235.7 -1983 14234 -1983V-1981ZM-1722 -1983C-1723.66 -1983 -1725 -1981.66 -1725 -1980H-1723C-1723 -1980.55 -1722.55 -1981 -1722 -1981V-1983Z"
    fill="white"
    fill-opacity="0.1"
  />
  <rect x="-64" y="-654" width="746" height="752" rx="16" fill="white" />
  <rect
    x="-63.5"
    y="-653.5"
    width="745"
    height="751"
    rx="15.5"
    stroke="#D4D4D8"
    stroke-opacity="0.56"
  />
  <mask id="path-5-inside-1_2690_5222" fill="white">
    <path d="M0 -14H618V34H0V-14Z" />
  </mask>
  <path
    d="M618 33H0V35H618V33Z"
    fill="#D4D4D8"
    fill-opacity="0.56"
    mask="url(#path-5-inside-1_2690_5222)"
  />
  <path
    d="M12.6261 19.4373C9.21875 19.4366 6.34181 16.9001 5.90623 13.5129C2.41941 13.0641 -0.144131 10.0143 0.00629155 6.49387C0.156714 2.97341 2.97101 0.154468 6.48337 0.00610628C9.99569 -0.142256 13.0366 2.42936 13.482 5.92464C17.0489 6.35344 19.6602 9.50088 19.4304 13.0944C19.2006 16.6879 16.2097 19.4754 12.6174 19.4442L12.6261 19.4373ZM7.67869 12.6549C7.6785 15.2751 9.71194 17.4433 12.3211 17.6048C14.9301 17.7664 17.2144 15.8655 17.5358 13.2652C17.8573 10.6649 16.1051 8.26269 13.5356 7.781V14.8579L7.67869 8.98563V12.6549ZM6.77087 1.82536C4.20496 1.81081 2.05376 3.7649 1.81654 6.32581C1.57932 8.88675 3.33482 11.2044 5.85954 11.6635V4.58135L11.7165 10.4502V6.78437C11.7136 4.04748 9.50131 1.82926 6.77087 1.82536Z"
    fill="url(#paint0_linear_2690_5222)"
  />
  <path
    d="M13.531 7.78365V14.8634L7.6581 8.98878V12.6595C7.66192 15.3977 9.88073 17.6165 12.6189 17.6203V19.4445C9.17529 19.4445 6.14783 16.8695 5.8808 13.5178C5.85133 13.0549 5.83398 11.6677 5.83398 11.6677V4.58282L11.7069 10.454V6.78665C11.704 4.04874 9.48567 1.82967 6.74779 1.82585V0C10.1984 0 13.2189 2.57318 13.479 5.92663C13.5102 6.38959 13.531 7.78365 13.531 7.78365Z"
    fill="url(#paint1_linear_2690_5222)"
  />
  <path
    d="M29.857 14.2687L26.092 9.02561V14.2687H24.1992V5.42578H25.9423L29.7193 10.6809V5.42578H31.6122V14.2687H29.857Z"
    fill="black"
  />
  <path
    d="M37.2845 14.265C36.7841 14.2685 36.2876 14.1762 35.8219 13.9931C35.3832 13.8218 34.9809 13.569 34.6363 13.248C34.3023 12.9347 34.0323 12.5595 33.8413 12.1433C33.4513 11.2861 33.4513 10.3022 33.8413 9.44514C34.034 9.02677 34.3085 8.6512 34.6483 8.34039C34.9956 8.02452 35.3973 7.77439 35.834 7.6022C36.7641 7.23677 37.7981 7.23677 38.7282 7.6022C39.1661 7.77827 39.568 8.03314 39.9138 8.35414C40.2502 8.66789 40.522 9.04433 40.714 9.46233C41.1051 10.3168 41.1051 11.2991 40.714 12.1536C40.5189 12.5675 40.2447 12.9393 39.907 13.248C39.5611 13.5656 39.159 13.816 38.7213 13.9862C38.2647 14.1703 37.7769 14.2649 37.2845 14.265ZM37.2845 9.04764C37.0259 9.04314 36.7693 9.09483 36.5326 9.19908C36.3175 9.29264 36.1242 9.42977 35.9647 9.6017C35.8098 9.76714 35.6857 9.95883 35.5982 10.1678C35.5116 10.3666 35.4665 10.5809 35.4657 10.7976C35.4638 11.4921 35.876 12.1209 36.5136 12.3962C36.7572 12.5 37.0198 12.5516 37.2845 12.5476C37.547 12.5518 37.8075 12.5001 38.0485 12.3962C38.2624 12.3005 38.4553 12.1637 38.6164 11.9936C38.7695 11.8301 38.8914 11.64 38.976 11.4326C39.0599 11.2314 39.1032 11.0156 39.1033 10.7976C39.1017 10.581 39.0566 10.3668 38.9709 10.1678C38.882 9.95952 38.7581 9.76802 38.6043 9.6017C38.444 9.43002 38.2501 9.29295 38.0348 9.19908C37.8033 9.0972 37.5529 9.04558 37.3 9.04764H37.2845Z"
    fill="black"
  />
  <path
    d="M49.4235 5.17188V14.0148H47.5307V13.4986C47.2593 13.7243 46.9575 13.9108 46.6342 14.0527C46.3157 14.192 45.9717 14.2634 45.6241 14.2627C45.1594 14.2654 44.6991 14.1729 44.2716 13.9907C43.8606 13.8177 43.4871 13.5663 43.1721 13.2508C42.8586 12.932 42.6076 12.5573 42.4321 12.1461C42.2508 11.7232 42.1583 11.2675 42.1602 10.8073C42.156 9.88297 42.5223 8.99547 43.1772 8.34322C43.4964 8.02985 43.8718 7.77941 44.2836 7.60504C44.7063 7.42272 45.1621 7.33016 45.6224 7.33316C45.9721 7.33222 46.3182 7.4031 46.6394 7.54135C46.9593 7.67822 47.2587 7.85891 47.529 8.07822V5.17188H49.4235ZM45.8186 12.5505C46.0551 12.5518 46.2894 12.5043 46.5069 12.411C46.9263 12.2364 47.2609 11.9048 47.4395 11.487C47.6264 11.0472 47.6264 10.5503 47.4395 10.1104C47.3499 9.90404 47.2228 9.7161 47.0644 9.55635C46.9038 9.3986 46.7146 9.27297 46.5069 9.18641C46.0665 9.00204 45.5706 9.00204 45.1303 9.18641C44.7094 9.35904 44.3741 9.69123 44.1976 10.1104C44.0108 10.5503 44.0108 11.0472 44.1976 11.487C44.3762 11.9048 44.7108 12.2364 45.1303 12.411C45.3477 12.5043 45.582 12.5518 45.8186 12.5505Z"
    fill="black"
  />
  <path
    d="M54.4591 7.33229C55.8807 7.3151 57.172 8.15785 57.7285 9.46604C57.9099 9.88954 58.0024 10.3458 58.0004 10.8065C58.0004 10.8977 58.0004 10.9958 57.9867 11.0956C57.9729 11.1954 57.966 11.2935 57.9488 11.3864H52.8416C52.9542 11.7071 53.153 11.9905 53.4164 12.2055C53.7112 12.4419 54.0814 12.564 54.4591 12.5496C54.764 12.5502 55.066 12.4917 55.3487 12.3775C55.6074 12.2826 55.8365 12.1212 56.0129 11.9095L57.541 12.8473C57.3697 13.0696 57.1701 13.2686 56.9473 13.4392C56.7165 13.6149 56.4665 13.7639 56.2022 13.8832C55.9304 14.0071 55.6467 14.1034 55.3556 14.1705C55.0616 14.2379 54.7608 14.272 54.4591 14.2721C53.9721 14.2754 53.4892 14.183 53.0378 14.0002C52.18 13.6564 51.4907 12.9907 51.1174 12.1452C50.7343 11.2867 50.7343 10.3057 51.1174 9.4471C51.3039 9.03135 51.5698 8.65604 51.9004 8.34241C52.2344 8.0271 52.6242 7.77679 53.0498 7.60416C53.4967 7.42023 53.9759 7.32779 54.4591 7.33229ZM54.4591 9.05304C54.1119 9.04273 53.7713 9.14935 53.492 9.35591C53.2359 9.54848 53.0299 9.79991 52.8915 10.089H56.025C55.8944 9.79704 55.6897 9.54435 55.4314 9.35591C55.15 9.14916 54.8081 9.04148 54.4591 9.0496V9.05304Z"
    fill="black"
  />
  <path
    d="M63.5816 5.42199C64.1697 5.41775 64.7528 5.5349 65.2934 5.76614C65.8159 5.99026 66.2916 6.3101 66.6959 6.7091C67.0997 7.11173 67.4234 7.58773 67.6491 8.11154C68.1172 9.21092 68.1172 10.4536 67.6491 11.553C67.4247 12.0767 67.1059 12.5545 66.7078 12.9623C65.8816 13.8004 64.7516 14.2694 63.5747 14.2632H59.9609V5.42199H63.5816ZM63.4559 12.4324C63.8009 12.4339 64.1428 12.3654 64.4609 12.231C65.4191 11.8259 66.0403 10.8849 66.0372 9.84429C66.0378 9.49904 65.9691 9.1571 65.8341 8.83942C65.7041 8.53167 65.5178 8.25092 65.2847 8.01173C64.8016 7.52367 64.1422 7.25073 63.4559 7.25454H61.8641V12.4324H63.4559Z"
    fill="black"
  />
  <path
    d="M74.6843 12.7882H71.3974L70.9212 14.268H68.8887L71.8999 5.49219H74.1955L77.193 14.268H75.1749L74.6843 12.7882ZM74.108 11.0312L73.0412 7.77044L71.9762 11.0312H74.108Z"
    fill="black"
  />
  <path
    d="M82.4488 5.18796C83.0582 5.18408 83.6613 5.30736 84.2201 5.54994C84.7582 5.7822 85.247 6.11538 85.6601 6.53148C86.0676 6.94566 86.3938 7.43285 86.6213 7.96754C87.1026 9.09698 87.1026 10.3737 86.6213 11.5031C86.3895 12.038 86.0563 12.5232 85.6413 12.9325C85.2276 13.3442 84.7388 13.6733 84.202 13.9022C83.0757 14.3814 81.8032 14.3814 80.6776 13.9022C80.1388 13.6694 79.6495 13.3357 79.2363 12.919C78.8263 12.5034 78.4976 12.0145 78.2682 11.4779C77.7882 10.3482 77.7882 9.07198 78.2682 7.94229C78.4995 7.40423 78.8301 6.91466 79.2432 6.49948C79.6563 6.08678 80.1451 5.75753 80.6826 5.52973C81.2413 5.29553 81.8426 5.17918 82.4488 5.18796ZM82.4488 12.5655C82.8107 12.5665 83.1676 12.4865 83.4945 12.3314C83.8188 12.1794 84.1107 11.9668 84.3551 11.7051C84.6045 11.4395 84.802 11.1294 84.9376 10.7909C85.2157 10.106 85.2157 9.33941 84.9376 8.65448C84.667 7.98548 84.152 7.44398 83.4976 7.13923C82.8351 6.82941 82.0695 6.82941 81.4063 7.13923C81.0832 7.2906 80.7913 7.50066 80.5445 7.75879C80.297 8.02035 80.1007 8.32654 79.967 8.66123C79.6888 9.34616 79.6888 10.1127 79.967 10.7977C80.1013 11.1334 80.2976 11.4412 80.5445 11.7051C80.7888 11.9639 81.0795 12.1742 81.4013 12.3247C81.7288 12.48 82.087 12.56 82.4488 12.5587V12.5655Z"
    fill="black"
  />
  <defs>
    <linearGradient
      id="paint0_linear_2690_5222"
      x1="9.72225"
      y1="-8.56384e-09"
      x2="9.72225"
      y2="19.4444"
      gradientUnits="userSpaceOnUse"
    >
      <stop stop-color="#2D73FF" />
      <stop offset="1" stop-color="#2D73FF" />
    </linearGradient>
    <linearGradient
      id="paint1_linear_2690_5222"
      x1="9.68248"
      y1="0"
      x2="9.68248"
      y2="19.4445"
      gradientUnits="userSpaceOnUse"
    >
      <stop offset="0.0916667" stop-color="#2D73FF" />
      <stop offset="0.322917" stop-color="#3DCCFF" />
      <stop offset="0.564583" stop-color="#60F5FF" />
      <stop offset="0.752083" stop-color="#3BC3FF" />
      <stop offset="0.897917" stop-color="#2D73FF" />
    </linearGradient>
  </defs>
</svg>
