<svg
  width="108"
  height="10"
  viewBox="0 0 108 10"
  fill="none"
  xmlns="http://www.w3.org/2000/svg"
>
  <g clip-path="url(#clip0_10604_11733)">
    <mask
      id="mask0_10604_11733"
      style="mask-type: luminance"
      maskUnits="userSpaceOnUse"
      x="0"
      y="0"
      width="108"
      height="10"
    >
      <path
        d="M107.765 0.613281H0.611328V9.78892H107.765V0.613281Z"
        fill="white"
      />
    </mask>
    <g mask="url(#mask0_10604_11733)">
      <path
        d="M103.115 7.71471H101.396V2.68758H103.118C104.915 2.68758 105.732 2.8504 105.732 5.21367C105.732 7.38814 104.927 7.71857 103.118 7.71857L103.115 7.71471ZM103.357 9.60399C106.386 9.60399 107.769 8.64921 107.769 5.21752C107.769 1.52184 106.247 0.806016 103.357 0.806016H99.4474V9.60399H103.357ZM97.8767 7.65592H92.9081V0.806016H90.9603V9.60399H97.8724L97.8767 7.65592ZM84.7674 7.90742C82.9067 7.90742 82.1903 7.53071 82.1903 5.21752C82.1903 2.81667 82.9067 2.5026 84.7674 2.5026C86.6274 2.5026 87.356 2.8292 87.356 5.21752C87.356 7.52971 86.6274 7.90742 84.7674 7.90742ZM84.7674 9.79278C87.9217 9.79278 89.3917 8.7745 89.3917 5.21752C89.3917 1.52184 87.7824 0.617188 84.7674 0.617188C81.7517 0.617188 80.1546 1.52184 80.1546 5.21752C80.1546 8.7745 81.6117 9.79278 84.7674 9.79278ZM78.5831 9.60014V0.802166H76.636V4.23772H72.236V0.802166H70.2878V9.60014H72.236V6.16939H76.636V9.60014H78.5831ZM64.4803 9.79278C67.6856 9.79278 68.5778 8.76192 68.5778 6.99022C68.5778 5.36878 67.7107 4.80325 65.9881 4.47569L63.5796 4.01132C62.8011 3.86007 62.5111 3.63366 62.5111 3.18085C62.5111 2.75406 62.8387 2.37736 64.4851 2.37736C65.8051 2.37736 66.412 2.64037 66.4833 3.80997H68.4949C68.4063 1.43417 67.1625 0.617188 64.4601 0.617188C61.4812 0.617188 60.4879 1.74824 60.4879 3.21842C60.4879 4.68861 61.2047 5.4343 62.7626 5.74452L65.3523 6.27247C66.018 6.41024 66.5334 6.49887 66.5334 7.10198C66.5334 7.70507 66.1481 8.03171 64.4726 8.03171C63.0901 8.03171 62.4494 7.70507 62.3984 6.5114H60.2741C60.2991 8.89971 61.5438 9.78707 64.4851 9.78707L64.4803 9.79278ZM58.854 7.65014H53.0002V6.16939H58.7162V4.23772H53.0002V2.7502H58.7807V0.802166H51.0521V9.60014H58.8453L58.854 7.65014ZM39.1741 9.60014V0.802166H37.2261V4.23772H32.8271V0.802166H30.8791V9.60014H32.8271V6.16939H37.2261V9.60014H39.1741ZM29.4956 0.802166H21.6523V2.7502H24.5937V9.60014H26.5378V2.7502H29.4956V0.802166ZM43.2591 4.61057V2.7502H46.1917C46.9085 2.7502 47.3353 3.17699 47.3353 3.69243C47.3353 4.20786 46.9085 4.61057 46.1917 4.61057H43.2591ZM43.2591 6.55861H45.7476L47.369 9.60014H49.6071L47.7592 6.20696C48.7775 5.70405 49.2804 4.71077 49.2804 3.66738C49.2804 2.17214 48.2206 0.802166 46.1503 0.802166H41.311V9.60014H43.2591V6.55861Z"
        fill="#0A0A0A"
      />
      <path
        d="M13.8093 0.804688H9.41026V2.27102H13.8093V0.804688ZM6.47761 2.27102H5.01128V3.73734H6.47761V2.27102ZM5.01128 9.60269H6.47761V5.20367H5.01128V9.60269ZM7.9439 2.27102V3.73734H9.41026V2.27102H7.9439ZM7.9439 9.60269H9.41026V5.20367H7.9439V9.60269ZM7.9439 0.804688H6.47761V2.27102H7.9439V0.804688ZM0.611328 0.804688V2.27102H5.01128V0.804688H0.611328ZM13.8102 5.20367V3.73734H9.41026V5.20367H13.8102ZM6.47857 3.73734V5.20367H7.9439V3.73734H6.47857ZM0.61229 3.73734V5.20367H5.01224V3.73734H0.61229Z"
        fill="#0A0A0A"
      />
    </g>
  </g>
  <defs>
    <clipPath id="clip0_10604_11733">
      <rect width="107.857" height="10" fill="white" />
    </clipPath>
  </defs>
</svg>
