<svg
  width="73"
  height="18"
  viewBox="0 0 73 18"
  fill="none"
  xmlns="http://www.w3.org/2000/svg"
>
  <g clip-path="url(#clip0_10551_11746)">
    <mask
      id="mask0_10551_11746"
      style="mask-type: luminance"
      maskUnits="userSpaceOnUse"
      x="0"
      y="0"
      width="73"
      height="18"
    >
      <path d="M72.135 0H0V17.7829H72.135V0Z" fill="white" />
    </mask>
    <g mask="url(#mask0_10551_11746)">
      <path
        d="M67.7677 2.6292C67.5545 2.89841 67.4493 3.23722 67.4718 3.57982V11.8559C67.4718 12.0112 67.3458 12.1371 67.1905 12.1371H65.3062C65.1509 12.1371 65.0249 12.0112 65.0249 11.8559V3.5247C64.9872 3.05118 65.0536 2.57522 65.219 2.12993C65.3844 1.68463 65.6448 1.28073 65.9823 0.946308C66.3192 0.611891 66.7254 0.355004 67.172 0.193531C67.6192 0.032059 68.0956 -0.0301188 68.5687 0.0113237H71.7575C71.9465 0.0113237 72.082 0.194011 72.0264 0.374758L71.5015 2.0932C71.4655 2.21147 71.3564 2.29226 71.2327 2.29226H68.8173C68.6283 2.27142 68.4376 2.29065 68.2565 2.34871C68.0754 2.40677 67.9089 2.50235 67.7677 2.6292ZM17.5662 7.21413C17.504 7.21413 17.4537 7.26453 17.4537 7.32663V8.56413C17.4308 8.90691 17.5363 9.24593 17.7496 9.51532C17.8906 9.64188 18.0567 9.73739 18.237 9.7955C18.4174 9.85366 18.608 9.87318 18.7964 9.85282H24.764C24.9592 9.85282 25.095 10.0468 25.0284 10.2302L24.4043 11.9464C24.3639 12.0575 24.2582 12.1315 24.14 12.1315H18.5477C18.0746 12.1727 17.5982 12.1105 17.1516 11.9489C16.705 11.7874 16.2989 11.5305 15.9616 11.1961C15.6244 10.8617 15.364 10.4579 15.1986 10.0127C15.0332 9.56746 14.9668 9.09158 15.004 8.61813V3.5247C14.9668 3.05123 15.0332 2.57535 15.1986 2.13015C15.364 1.68495 15.6244 1.28112 15.9616 0.946747C16.2989 0.612369 16.705 0.35548 17.1516 0.193937C17.5982 0.0323944 18.0746 -0.0299213 18.5477 0.0113237H21.6235C22.0991 -0.0150398 22.5751 0.0558614 23.0225 0.219697C23.4698 0.383533 23.8789 0.63686 24.2251 0.964201C24.5451 1.3065 24.7933 1.70953 24.9548 2.14943C25.1164 2.58933 25.188 3.05717 25.1656 3.52526V6.93288C25.1656 7.08824 25.0396 7.21413 24.8843 7.21413H17.5662ZM17.4537 4.9332H22.7181V3.58038C22.7408 3.23787 22.6356 2.89911 22.4228 2.62976C22.2817 2.50311 22.1155 2.4076 21.9351 2.34945C21.7546 2.2913 21.5639 2.27182 21.3754 2.29226H18.7964C18.6079 2.27182 18.4172 2.2913 18.2367 2.34945C18.0563 2.4076 17.8901 2.50311 17.749 2.62976C17.5362 2.89911 17.431 3.23787 17.4537 3.58038V4.9332ZM49.8942 8.62263C49.9312 9.09608 49.8648 9.57196 49.6993 10.0171C49.534 10.4623 49.2736 10.8662 48.9364 11.2005C48.5991 11.5349 48.1931 11.7919 47.7466 11.9535C47.3 12.1152 46.8235 12.1776 46.3504 12.1366L42.4011 12.1309V17.5028C42.4011 17.6582 42.2752 17.7841 42.1199 17.7841H40.2349C40.0796 17.7841 39.9537 17.6582 39.9537 17.5028V0.282868C39.9537 0.127374 40.0798 0.00138643 40.2353 0.00161888L46.3499 0.0107594C46.8255 -0.0155379 47.3015 0.0553971 47.7488 0.219229C48.1961 0.383061 48.6053 0.636354 48.9514 0.963633C49.2714 1.30597 49.5196 1.709 49.6811 2.1489C49.8427 2.58879 49.9143 3.05662 49.8919 3.5247L49.8942 8.62263ZM47.4467 3.57982C47.4697 3.23719 47.3642 2.89828 47.1509 2.6292C47.0098 2.50262 46.8437 2.40715 46.6634 2.34901C46.483 2.29086 46.2924 2.27133 46.104 2.2917H42.4028V9.85056H46.1963C46.3699 9.86277 46.5442 9.8396 46.7086 9.78245C46.8729 9.72535 47.024 9.63541 47.1525 9.51813C47.3655 9.24886 47.4707 8.91007 47.4479 8.5675L47.4467 3.57982ZM36.6338 11.1786C37.2135 10.5672 37.5448 9.76192 37.5631 8.91963L37.5664 8.85438V8.44713C37.6038 7.97362 37.5375 7.49763 37.3722 7.0523C37.2069 6.60697 36.9465 6.20303 36.6092 5.86857C36.2719 5.53412 35.8658 5.27718 35.4191 5.11564C34.9724 4.9541 34.4959 4.89185 34.0227 4.9332L31.2046 4.91913C31.0162 4.9395 30.8256 4.91998 30.6452 4.86183C30.4649 4.80368 30.2988 4.70821 30.1577 4.58163C29.9447 4.31242 29.8392 3.97361 29.8619 3.63101V3.56913C29.8393 3.22672 29.9447 2.88811 30.1577 2.61907C30.2988 2.49242 30.465 2.39691 30.6455 2.33876C30.8259 2.28061 31.0166 2.26113 31.2051 2.28157H36.2367C36.3603 2.28157 36.4695 2.20078 36.5056 2.08251L37.0307 0.36407C37.0859 0.183323 36.9507 0.000635625 36.7617 0.000635625H30.9576C30.4845 -0.0406094 30.0081 0.0217064 29.5614 0.183249C29.1149 0.344792 28.7088 0.601681 28.3715 0.93606C28.0342 1.27043 27.7739 1.67426 27.6085 2.11946C27.4431 2.56466 27.3767 3.04054 27.4139 3.51401L27.4212 3.87513C27.4159 4.75597 27.7497 5.60507 28.3532 6.24663C28.6993 6.57395 29.1085 6.8273 29.5559 6.99115C30.0032 7.15495 30.4792 7.22588 30.9548 7.1995L33.7746 7.21413C33.9629 7.19388 34.1534 7.2134 34.3336 7.27156C34.5139 7.32972 34.6799 7.42512 34.8209 7.55163C35.0343 7.8209 35.14 8.15997 35.1173 8.50282V8.68788C35.118 8.98735 35.0164 9.27811 34.8293 9.51194C34.6882 9.63862 34.522 9.73413 34.3416 9.79223C34.1611 9.8504 33.9704 9.86992 33.7819 9.84944H28.3848C28.2611 9.84944 28.1519 9.93022 28.1158 10.0485L27.5907 11.7669C27.5355 11.9477 27.6707 12.1304 27.8597 12.1304H34.0345C34.5097 12.1566 34.9852 12.0857 35.4321 11.9221C35.879 11.7585 36.2879 11.5055 36.6338 11.1786ZM54.8267 7.21356V8.56357C54.8042 8.90635 54.9096 9.24526 55.1226 9.51475C55.2637 9.64143 55.4299 9.73694 55.6104 9.79505C55.7908 9.85321 55.9815 9.87273 56.17 9.85225H62.1376C62.3328 9.85225 62.4684 10.0463 62.402 10.2297L61.7095 12.1315H55.9214C55.4482 12.1727 54.9719 12.1103 54.5253 11.9487C54.0787 11.7871 53.6727 11.5302 53.3355 11.1959C52.9982 10.8615 52.7378 10.4577 52.5725 10.0126C52.407 9.5674 52.3405 9.09158 52.3776 8.61813V3.5247C52.3405 3.05125 52.407 2.57542 52.5725 2.13026C52.7378 1.6851 52.9982 1.28132 53.3355 0.946966C53.6727 0.612611 54.0787 0.355716 54.5253 0.194139C54.9719 0.0325611 55.4482 -0.0298226 55.9214 0.0113237H58.9972C59.4725 -0.0149735 59.9489 0.0559593 60.3961 0.219791C60.8433 0.383624 61.2528 0.636916 61.5987 0.964201C61.9188 1.3065 62.1669 1.70953 62.3283 2.14943C62.4897 2.58933 62.5617 3.05717 62.5392 3.52526V6.93288C62.5392 7.08818 62.4132 7.21413 62.258 7.21413L54.8267 7.21356ZM54.8267 4.93263H60.0918V3.58038C60.1149 3.23776 60.0091 2.8989 59.7959 2.62976C59.6547 2.50311 59.4888 2.4076 59.3082 2.34945C59.1277 2.2913 58.937 2.27182 58.7485 2.29226H56.17C55.9815 2.27182 55.7908 2.2913 55.6104 2.34945C55.4299 2.4076 55.2637 2.50311 55.1226 2.62976C54.9096 2.89903 54.8042 3.23779 54.8267 3.58038V4.93263ZM10.8834 0.00119782C10.7615 0.00119782 10.6534 0.079745 10.6159 0.19572L7.93449 8.46738L5.25811 0.195864C5.22056 0.0798159 5.11249 0.00119782 4.99052 0.00119782H0.400624C0.206614 0.00119782 0.0708678 0.192994 0.135377 0.375965L0.74481 2.10453C0.784472 2.21702 0.890778 2.29226 1.01006 2.29226H3.21512L6.62567 11.944C6.66538 12.0564 6.77164 12.1315 6.89083 12.1315H8.98266C9.10185 12.1315 9.2081 12.0564 9.24782 11.944L13.3358 0.376161C13.4005 0.193155 13.2648 0.00119782 13.0707 0.00119782H10.8834Z"
        fill="#596AEC"
      />
    </g>
  </g>
  <defs>
    <clipPath id="clip0_10551_11746">
      <rect width="72.5625" height="18" fill="white" />
    </clipPath>
  </defs>
</svg>
