<svg
  width="61"
  height="18"
  viewBox="0 0 61 18"
  fill="none"
  xmlns="http://www.w3.org/2000/svg"
>
  <g clip-path="url(#clip0_10592_15441)">
    <path
      d="M31.2509 13.6161H29.074L27.2708 7.44739H27.2322L25.429 13.6161H23.2393L20.6504 4.49609H23.0203L24.4629 10.5627H24.5016L26.1245 4.49609H28.4172L30.0529 10.5627H30.0916L31.5599 4.49609H33.8526L31.2509 13.6161Z"
      fill="black"
    />
    <path
      d="M42.4966 10.962C42.4966 11.4612 42.3979 11.8799 42.2004 12.2182C42.0091 12.5507 41.7394 12.8314 41.4147 13.0358C41.0719 13.249 40.6939 13.3996 40.2984 13.4805C39.8779 13.5711 39.449 13.6166 39.019 13.6161H35.3867V4.49609H39.019C39.3823 4.49737 39.7447 4.53418 40.1008 4.606C40.4544 4.67311 40.7941 4.7994 41.1055 4.97953C41.4047 5.15446 41.6567 5.39969 41.8397 5.69395C42.0286 5.99535 42.1231 6.3809 42.1231 6.84029C42.1231 7.34749 41.9856 7.76625 41.7109 8.09655C41.4266 8.43388 41.0509 8.68194 40.6289 8.81098V8.83674C40.8824 8.87897 41.1279 8.95942 41.3572 9.07548C41.7066 9.25002 41.9992 9.5202 42.2009 9.85468C42.4027 10.1892 42.5052 10.574 42.4966 10.9646V10.962ZM39.9953 7.13654C39.9953 6.82742 39.8773 6.60216 39.6414 6.46076C39.4056 6.31936 39.0556 6.24838 38.5913 6.24781H37.5094V8.12832H38.6943C39.1065 8.12832 39.4265 8.04474 39.6543 7.87759C39.8822 7.71043 39.9958 7.46342 39.9953 7.13654ZM40.2915 10.7559C40.2915 10.3792 40.1484 10.1173 39.8622 9.9702C39.5788 9.82512 39.2009 9.75124 38.7287 9.75124H37.512V11.8378H38.7484C38.9277 11.8374 39.1065 11.8224 39.2834 11.7932C39.4581 11.7658 39.6276 11.7117 39.7857 11.6326C39.934 11.5561 40.0603 11.4429 40.1524 11.3037C40.2531 11.1393 40.3024 10.9486 40.2941 10.7559H40.2915Z"
      fill="black"
    />
    <path
      d="M48.4466 6.37661V13.6161H46.244V6.37661H43.668V4.49609H51.0226V6.37661H48.4466Z"
      fill="black"
    />
    <path
      d="M58.7645 13.4553C58.1191 13.7364 57.4205 13.8747 56.7166 13.8606C56.0499 13.8673 55.388 13.7494 54.7648 13.5128C54.1847 13.2944 53.6559 12.9586 53.2116 12.5265C52.7673 12.0942 52.417 11.575 52.1827 11.0011C51.9279 10.3802 51.801 9.71443 51.8091 9.04332C51.7993 8.36349 51.9285 7.68881 52.1887 7.06064C52.4279 6.48705 52.7859 5.97055 53.2389 5.54506C53.6936 5.1238 54.2278 4.79743 54.8103 4.58505C55.4334 4.35838 56.0921 4.24496 56.7552 4.25017C57.4036 4.2517 58.0467 4.36799 58.6546 4.59364C59.2353 4.79319 59.7561 5.13644 60.1685 5.59143L58.6744 7.08555C58.4685 6.80317 58.1872 6.58446 57.8628 6.45441C57.5362 6.31908 57.1861 6.24907 56.8325 6.24832C56.4671 6.24419 56.1049 6.31673 55.7694 6.46128C55.4555 6.59765 55.1729 6.79697 54.939 7.04691C54.7031 7.3032 54.5193 7.60303 54.3981 7.92963C54.266 8.28679 54.2005 8.66514 54.2049 9.04592C54.2003 9.43234 54.2658 9.81634 54.3981 10.1794C54.5177 10.5054 54.7007 10.8045 54.9365 11.0595C55.1662 11.3059 55.4449 11.5013 55.7548 11.6332C56.0847 11.7727 56.4399 11.8425 56.7981 11.8383C57.1956 11.8481 57.5894 11.7596 57.9444 11.5808C58.2556 11.4228 58.5249 11.1933 58.7302 10.911L60.2603 12.3535C59.8471 12.8244 59.3368 13.2002 58.7645 13.4553Z"
      fill="black"
    />
    <path
      fill-rule="evenodd"
      clip-rule="evenodd"
      d="M10.5235 7.74305C10.5235 8.73397 8.97787 8.61375 8.48755 8.61375V6.86805C8.97876 6.86805 10.5235 6.71262 10.5235 7.74305ZM10.9271 10.4531C10.9271 11.5359 9.07575 11.4122 8.48583 11.4122V9.49478C9.07575 9.49478 10.9271 9.32302 10.9271 10.4574M12.1464 7.35664C12.0476 6.31763 11.1581 5.97416 10.0323 5.86596V4.44141H9.16763V5.83762C8.93837 5.83762 8.70481 5.83762 8.4721 5.84621V4.44141H7.60311V5.87455H5.84023V6.80708C5.84023 6.80708 6.48252 6.79591 6.47308 6.80708C6.589 6.79432 6.70533 6.82714 6.79748 6.89862C6.88963 6.97009 6.95035 7.07461 6.96682 7.19005V11.1151C6.96442 11.1555 6.95406 11.195 6.93635 11.2314C6.91863 11.2678 6.89391 11.3003 6.86358 11.3271C6.83327 11.3539 6.79796 11.3745 6.75969 11.3876C6.7214 11.4007 6.68091 11.4062 6.64052 11.4036C6.65169 11.4139 6.00767 11.4036 6.00767 11.4036L5.83594 12.4452H7.59195V13.905H8.4618V12.4667H9.15644V13.8956H10.0263V12.4555C11.4955 12.3697 12.5165 12.003 12.6487 10.6248C12.7527 9.51448 12.2323 9.01988 11.4003 8.82156C11.906 8.56395 12.2237 8.10971 12.1481 7.35407"
      fill="black"
    />
    <path
      d="M4.27839 3.74455C5.16008 2.94696 6.23042 2.38716 7.38846 2.11793C8.54649 1.8487 9.75398 1.87894 10.8971 2.20579L10.9967 2.23413C11.0466 2.24873 11.0955 2.26418 11.1445 2.2805C11.2148 2.30282 11.2852 2.32686 11.3539 2.35176L11.4226 2.37667C11.5163 2.41101 11.6099 2.44793 11.7017 2.48658L11.7128 2.49173C12.4453 2.80663 13.1259 3.23046 13.7316 3.74884L14.1146 3.33496C14.0631 3.28344 14.0099 3.23621 13.9575 3.18727C12.6316 2.03864 10.9488 1.38448 9.19517 1.33594C9.10159 1.33594 9.00801 1.33594 8.91442 1.33594H8.89467C8.3259 1.34382 7.75962 1.41291 7.20564 1.54202L7.09229 1.56951L6.99784 1.5944C6.44583 1.74241 5.91234 1.95241 5.40755 2.22038C4.85482 2.51714 4.35162 2.89809 3.91602 3.34956L4.27839 3.74455Z"
      fill="#737373"
    />
    <path
      d="M3.79342 4.22384L3.37267 3.85547C0.518398 6.84712 0.933999 11.715 3.37267 14.0352L3.80201 13.6994C2.61499 12.4076 1.95564 10.7175 1.9542 8.96311C1.95277 7.20875 2.60937 5.51763 3.79428 4.22384H3.79342Z"
      fill="#737373"
    />
    <path
      d="M14.8054 4.04469C14.7394 3.97599 14.6724 3.90816 14.6028 3.84375L14.2344 4.24734C16.3983 6.70575 16.8551 10.6085 14.3023 13.613L14.6612 14.0467C15.8876 12.6775 16.578 10.9112 16.6052 9.07328C16.6323 7.23533 15.9943 5.44947 14.8089 4.04469H14.8054Z"
      fill="#737373"
    />
    <path
      d="M13.7601 14.1875C13.5111 14.3739 13.2638 14.5447 13.0157 14.7027C12.1151 15.3392 11.0767 15.7535 9.9853 15.9117C9.42694 16.0008 8.8591 16.0141 8.29716 15.9512C6.88179 15.8139 5.54193 15.2484 4.45626 14.3301C4.39959 14.2889 4.34378 14.2485 4.28453 14.2056L3.88867 14.5602C5.27373 15.928 7.17228 16.5858 9.04079 16.585C9.08198 16.585 9.12667 16.585 9.16446 16.585H9.18416C10.9223 16.5397 12.5921 15.8992 13.9147 14.7706C13.9748 14.7139 14.0357 14.6581 14.0932 14.5988L13.7601 14.1875Z"
      fill="#737373"
    />
    <path
      d="M8.99672 0.628424C10.6493 0.627744 12.2649 1.11722 13.6393 2.03492C15.0136 2.95263 16.085 4.25733 16.7177 5.78399C17.3504 7.31065 17.5162 8.99071 17.194 10.6115C16.8717 12.2324 16.076 13.7213 14.9074 14.8899C13.7389 16.0584 12.25 16.8541 10.6291 17.1763C9.00827 17.4986 7.32823 17.3329 5.80157 16.7001C4.2749 16.0674 2.97021 14.9961 2.0525 13.6217C1.1348 12.2474 0.645325 10.6318 0.646004 8.97916C0.649411 6.76543 1.53031 4.64337 3.09563 3.07805C4.66095 1.51273 6.78301 0.63183 8.99672 0.628424ZM8.99672 0.0273444C7.22553 0.0280239 5.49434 0.553903 4.02203 1.53848C2.54973 2.52305 1.40246 3.92211 0.725287 5.55872C0.0481158 7.19533 -0.128537 8.996 0.217669 10.733C0.563874 12.47 1.41739 14.0654 2.67028 15.3173C3.92317 16.5693 5.51916 17.4215 7.25644 17.7664C8.99367 18.1113 10.7942 17.9332 12.4303 17.2548C14.0664 16.5764 15.4646 15.428 16.4481 13.955C17.4315 12.4819 17.9561 10.7503 17.9553 8.97916C17.9549 7.80312 17.7229 6.6387 17.2724 5.55238C16.8219 4.46605 16.1619 3.47909 15.33 2.64784C14.4981 1.81659 13.5107 1.15733 12.424 0.707705C11.3373 0.258081 10.1727 0.0268933 8.99672 0.0273444Z"
      fill="black"
    />
  </g>
  <defs>
    <clipPath id="clip0_10592_15441">
      <rect width="60.2687" height="18" fill="white" />
    </clipPath>
  </defs>
</svg>
