<svg
  width="32"
  height="32"
  viewBox="0 0 32 32"
  fill="none"
  xmlns="http://www.w3.org/2000/svg"
>
  <rect width="32" height="32" rx="6" fill="#171717" />
  <path
    d="M21.443 26.798C19.4267 27.7264 17.5883 28.11 15.9252 27.973C14.2923 27.8238 12.7557 27.1054 11.337 25.8117C9.91835 24.5209 8.56016 22.5757 7.2591 19.9912C5.99743 17.4859 5.26395 15.3063 5.05867 13.4615C4.85339 11.6167 5.18544 10.0094 6.07594 8.65783C6.98444 7.29709 8.48165 6.13117 10.5764 5.17531C12.5716 4.25902 14.3917 3.88458 16.0248 4.0307C17.6579 4.17987 19.1943 4.89829 20.613 6.19206C22.0317 7.48278 23.3898 9.428 24.6909 12.0125C26.5684 15.7416 27.2625 18.7888 26.7826 21.145C26.3026 23.5011 24.5248 25.3855 21.4338 26.798H21.443ZM20.0636 24.046C21.4912 23.3946 22.4905 22.6366 23.0458 21.766C23.6223 20.8984 23.8095 19.8025 23.5951 18.4905C23.3899 17.148 22.774 15.4433 21.7359 13.3702C20.7004 11.3002 19.6922 9.76894 18.7323 8.80395C17.7847 7.80851 16.7763 7.24534 15.7019 7.13576C14.6453 7.00789 13.4047 7.27272 11.974 7.93332C10.5071 8.60302 9.48066 9.38233 8.89221 10.2499C8.30663 11.0992 8.11935 12.1921 8.34289 13.5254C8.55703 14.8375 9.18487 16.5452 10.2415 18.6335C11.2768 20.7036 12.2758 22.2439 13.2237 23.2394C14.1836 24.2074 15.2008 24.7492 16.2752 24.868C17.3499 24.9867 18.6116 24.7097 20.0696 24.04H20.0605L20.0636 24.046Z"
    fill="url(#paint0_linear_12949_24881)"
  />
  <defs>
    <linearGradient
      id="paint0_linear_12949_24881"
      x1="19.013"
      y1="0.913491"
      x2="12.3248"
      y2="33.5399"
      gradientUnits="userSpaceOnUse"
    >
      <stop offset="0.19" stop-color="#EF2EC5" />
      <stop offset="1" stop-color="#322EEF" />
    </linearGradient>
  </defs>
</svg>
