<svg
  width="32"
  height="32"
  viewBox="0 0 32 32"
  fill="none"
  xmlns="http://www.w3.org/2000/svg"
>
  <rect width="32" height="32" rx="6" fill="#171717" />
  <g clip-path="url(#clip0_15387_18220)">
    <path
      d="M20.1954 15.1582C20.4096 15.1582 20.5511 15.2038 20.6532 15.2608C20.7584 15.3193 20.8413 15.4003 20.9273 15.5018C20.9986 15.5861 21.1125 15.7401 21.2221 15.8418C21.3531 15.9635 21.5283 16.067 21.7689 16.067C21.9876 16.067 22.2042 15.975 22.3762 15.8882C22.544 15.8035 22.75 15.6788 22.8932 15.6007C23.0606 15.5094 23.182 15.4576 23.2686 15.4438C23.2868 15.441 23.2998 15.4405 23.3088 15.4408C23.2946 15.4828 23.2664 15.5463 23.2118 15.6325C23.0811 15.8385 22.8808 16.0764 22.66 16.357C22.4521 16.6212 22.2258 16.9245 22.1003 17.2175C21.9746 17.5114 21.9123 17.8971 22.2071 18.2075C22.5204 18.5372 22.9606 18.4534 23.296 18.296C23.6486 18.1306 24.0302 17.8266 24.3928 17.4611C24.8551 16.995 25.3178 16.396 25.6831 15.7753C25.6848 15.8498 25.6874 15.9244 25.6874 15.9993C25.6874 21.3496 21.3501 25.6874 15.9999 25.6874C10.8176 25.6874 6.5858 21.6179 6.3252 16.5004C6.76523 16.7145 7.24035 16.9578 7.74243 17.2126C8.42056 17.5569 9.14432 17.9204 9.87927 18.2515C11.3397 18.9093 12.8869 19.4588 14.2518 19.4588C15.9437 19.4586 17.1631 18.2751 18.0898 17.1998C18.5728 16.6393 18.958 16.1311 19.3361 15.7326C19.5203 15.5384 19.6854 15.3902 19.8359 15.2919C19.986 15.1939 20.1024 15.1583 20.1954 15.1582Z"
      fill="white"
      stroke="white"
      stroke-width="0.625"
    />
    <path
      d="M15.9999 6.3125C20.1996 6.31254 23.774 8.98584 25.1173 12.7236C24.9896 12.6979 24.8509 12.6803 24.7059 12.6803C24.4893 12.6803 24.2922 12.7729 24.1328 12.8683C23.971 12.9651 23.8038 13.0934 23.6531 13.2064C23.3243 13.453 23.053 13.6359 22.7882 13.6611C22.7124 13.6683 22.5718 13.6303 22.3488 13.4945C22.1372 13.3658 21.9056 13.1836 21.6591 12.9855C21.42 12.7934 21.1641 12.5836 20.9273 12.4246C20.7044 12.2749 20.4305 12.1212 20.1606 12.1212C19.8788 12.1212 19.6269 12.1491 19.3873 12.236C19.1451 12.3238 18.9354 12.4645 18.7269 12.6607C18.3283 13.036 17.8849 13.6652 17.1809 14.6267C15.7546 16.5749 14.8575 17.051 14.1114 17.051C13.7703 17.051 13.3224 16.9641 12.8425 16.827C12.3675 16.6913 11.881 16.5125 11.4698 16.3412C11.0595 16.1702 9.77238 15.5626 8.57678 14.9923C7.98165 14.7084 7.41259 14.4357 6.99231 14.2336C6.7987 14.1406 6.63651 14.0624 6.51807 14.0054C7.43748 9.61206 11.3336 6.3125 15.9999 6.3125Z"
      fill="#01FD6B"
      stroke="#01FD6B"
      stroke-width="0.625"
    />
  </g>
  <defs>
    <clipPath id="clip0_15387_18220">
      <rect width="20" height="20" fill="white" transform="translate(6 6)" />
    </clipPath>
  </defs>
</svg>
