<svg
  width="32"
  height="32"
  viewBox="0 0 32 32"
  fill="none"
  xmlns="http://www.w3.org/2000/svg"
>
  <rect width="32" height="32" rx="6" fill="#06C19E" fill-opacity="0.12" />
  <path
    d="M27.6906 21.8046V12.1414C27.6906 10.5904 26.4332 9.33301 24.8822 9.33301C24.1341 9.33301 23.4169 9.63152 22.8897 10.1623L14.1091 19.0028C13.7739 19.3405 13.7764 19.8862 14.1151 20.2206L14.802 20.8993C16.4827 22.5593 19.1878 22.5526 20.8602 20.8843L24.1832 17.5695C24.3409 17.4121 24.5949 17.4078 24.758 17.5597C24.9275 17.7177 24.9343 17.9844 24.7729 18.1508L23.652 19.3069C23.4871 19.477 23.4908 19.7486 23.6605 19.914L26.2302 22.4204C26.7751 22.9515 27.6906 22.5657 27.6906 21.8046Z"
    fill="url(#paint0_linear_12949_24873)"
  />
  <path
    d="M5.33203 10.2279V19.8487C5.33203 21.4032 6.59213 22.6633 8.14652 22.6633C8.89116 22.6633 9.60547 22.3681 10.133 21.8426L18.907 13.1009C19.2453 12.7638 19.2441 12.2155 18.9044 11.8799L18.2206 11.2045C16.5399 9.54446 13.8348 9.55114 12.1624 11.2195L8.83946 14.5343C8.68172 14.6917 8.42775 14.696 8.26474 14.5441C8.09506 14.3861 8.08828 14.1194 8.24972 13.9529L9.37436 12.793C9.53785 12.6244 9.53579 12.3558 9.36972 12.1897L6.80008 9.61983C6.25836 9.07807 5.33203 9.46172 5.33203 10.2279Z"
    fill="url(#paint1_linear_12949_24873)"
  />
  <defs>
    <linearGradient
      id="paint0_linear_12949_24873"
      x1="-8.45262"
      y1="9.33301"
      x2="28.16"
      y2="10.7787"
      gradientUnits="userSpaceOnUse"
    >
      <stop stop-color="#06C17E" />
      <stop offset="1" stop-color="#06C1A8" />
    </linearGradient>
    <linearGradient
      id="paint1_linear_12949_24873"
      x1="5.33203"
      y1="9.33408"
      x2="28.0028"
      y2="9.88782"
      gradientUnits="userSpaceOnUse"
    >
      <stop stop-color="#06C17E" />
      <stop offset="1" stop-color="#06C1A8" />
    </linearGradient>
  </defs>
</svg>
