<svg
  width="32"
  height="32"
  viewBox="0 0 32 32"
  fill="none"
  xmlns="http://www.w3.org/2000/svg"
>
  <rect width="32" height="32" rx="6" fill="#171717" />
  <path
    d="M28.4529 15.9057C28.407 15.63 28.1466 15.4206 27.8401 15.4206H12.5272C12.379 15.4206 12.3229 15.3032 12.3126 15.2674C12.3025 15.2317 12.2668 15.1091 12.3841 15.0121L20.4007 8.5019C20.6356 8.31298 20.7121 7.98619 20.5692 7.7411C20.4823 7.58792 20.3394 7.4858 20.1658 7.45516C19.9972 7.42452 19.8237 7.46537 19.691 7.57771L11.7102 14.0624C11.5928 14.1594 11.4752 14.0981 11.4446 14.0777C11.414 14.0573 11.3067 13.9807 11.3425 13.8326L12.3381 9.52822C12.4045 9.23206 12.2616 8.93081 12.0063 8.82358C11.8429 8.7572 11.6693 8.76231 11.511 8.84401C11.363 8.9206 11.2506 9.06357 11.2148 9.23206L10.0661 14.2054C10.0354 14.3381 9.92303 14.3688 9.8924 14.379C9.86177 14.3892 9.7444 14.3994 9.66261 14.2922L8.00824 12.1374C7.82448 11.8974 7.49768 11.8157 7.25249 11.9485C7.09936 12.0302 6.99207 12.1732 6.95649 12.3417C6.92073 12.5102 6.95649 12.6838 7.0636 12.8165L8.78435 15.0581C8.84047 15.1296 8.8456 15.2215 8.80984 15.2981C8.76912 15.3798 8.69247 15.4257 8.60572 15.4257H4.0868C3.78053 15.4257 3.52011 15.6351 3.47408 15.9108C3.44345 16.0844 3.48931 16.2529 3.60685 16.3856C3.7191 16.5184 3.87754 16.5899 4.05103 16.5899H7.96735C8.11552 16.5899 8.17164 16.7073 8.18191 16.7431C8.192 16.7788 8.22776 16.9014 8.11039 16.9984L5.54713 19.0817C5.31734 19.2655 5.24583 19.5872 5.37347 19.822C5.45525 19.9752 5.60326 20.0824 5.78206 20.1182C5.95555 20.1539 6.12922 20.1131 6.25686 20.0058L8.78435 17.9481C8.9019 17.8511 9.01927 17.9124 9.0499 17.9328C9.08053 17.9532 9.18781 18.0298 9.15205 18.1779L8.15625 22.4874C8.09003 22.7682 8.21767 23.0542 8.45242 23.1716C8.61069 23.2482 8.79975 23.2533 8.96316 23.1716C9.12656 23.095 9.24393 22.9521 9.28482 22.7836L10.4336 17.8102C10.4642 17.6775 10.5766 17.6468 10.6073 17.6366C10.643 17.6315 10.7553 17.6162 10.837 17.7234L15.9227 24.3358C16.0197 24.4685 16.1779 24.5452 16.3465 24.5553C16.3567 24.5553 16.372 24.5553 16.3822 24.5553C16.5456 24.5553 16.6988 24.489 16.8061 24.3766C17.0001 24.1724 17.0052 23.8405 16.8213 23.6005L11.7102 16.9575C11.654 16.886 11.6489 16.7941 11.6847 16.7175C11.7254 16.6358 11.8021 16.5899 11.8888 16.5899H27.881C28.0547 16.5899 28.213 16.5133 28.3252 16.3856C28.4376 16.2529 28.4835 16.0844 28.458 15.9108L28.4529 15.9057Z"
    fill="#4615C8"
  />
</svg>
