<svg
  width="32"
  height="32"
  viewBox="0 0 32 32"
  fill="none"
  xmlns="http://www.w3.org/2000/svg"
>
  <rect width="32" height="32" fill="black" />
  <g
    id="starateLogo 1"
    clip-path="url(#clip0_7714_14574)"
    transform="translate(6, 6)"
  >
    <g id="Clip path group">
      <mask
        id="mask0_7714_14574"
        style="mask-type: luminance"
        maskUnits="userSpaceOnUse"
        x="0"
        y="0"
        width="20"
        height="20"
      >
        <g id="clip0_3204_147712">
          <path id="Vector" d="M19.6019 0H0V19.6018H19.6019V0Z" fill="white" />
        </g>
      </mask>
      <g mask="url(#mask0_7714_14574)">
        <g id="Group">
          <g id="Clip path group_2">
            <mask
              id="mask1_7714_14574"
              style="mask-type: luminance"
              maskUnits="userSpaceOnUse"
              x="0"
              y="0"
              width="20"
              height="20"
            >
              <g id="clip1_3204_147712">
                <path
                  id="Vector_2"
                  d="M19.6019 0H0V19.6018H19.6019V0Z"
                  fill="white"
                />
              </g>
            </mask>
            <g mask="url(#mask1_7714_14574)">
              <g id="Group_2">
                <path
                  id="Vector_3"
                  d="M11.7426 0.779776L12.2642 2.00162C13.2881 4.40066 15.199 6.31153 17.598 7.33541L18.8199 7.85706C19.1396 7.99341 19.3992 8.18894 19.5996 8.42188C18.9911 4.05905 15.5406 0.608012 11.1777 0C11.4102 0.199906 11.6062 0.459988 11.7426 0.779776Z"
                  fill="#999999"
                />
                <path
                  id="Vector_4"
                  d="M0.779776 7.85706L2.00163 7.33541C4.40067 6.31153 6.31153 4.40066 7.33588 2.00162L7.85706 0.779776C7.99388 0.459988 8.18947 0.199906 8.42188 0C4.05905 0.608012 0.608482 4.05905 0 8.42188C0.200394 8.18894 0.460006 7.99341 0.779776 7.85706Z"
                  fill="#999999"
                />
                <path
                  id="Vector_5"
                  d="M18.8199 11.7435L17.598 12.2652C15.199 13.289 13.2881 15.2004 12.2642 17.5994L11.7426 18.8208C11.6062 19.1406 11.4102 19.4007 11.1777 19.6011C15.5406 18.9926 18.9911 15.5415 19.5996 11.1787C19.3992 11.4117 19.1396 11.6072 18.8199 11.7435Z"
                  fill="#999999"
                />
                <path
                  id="Vector_6"
                  d="M7.85706 18.8208L7.33588 17.5994C6.31153 15.2004 4.40067 13.289 2.00163 12.2652L0.779776 11.7435C0.460006 11.6072 0.200394 11.4117 0 11.1787C0.608482 15.5415 4.05905 18.9926 8.42188 19.6011C8.18947 19.4007 7.99388 19.1406 7.85706 18.8208Z"
                  fill="#999999"
                />
              </g>
            </g>
          </g>
          <path
            id="Vector_7"
            d="M5.35321 8.84364L5.95538 8.58646C7.13744 8.08175 8.07933 7.1404 8.58397 5.95834L8.84068 5.35615C9.20074 4.51279 10.3963 4.51279 10.7564 5.35615L11.0131 5.95834C11.5177 7.1404 12.4596 8.08175 13.6417 8.58646L14.2439 8.84364C15.0872 9.20364 15.0872 10.3988 14.2439 10.7589L13.6417 11.016C12.4596 11.5207 11.5177 12.462 11.0131 13.6446L10.7564 14.2463C10.3963 15.0896 9.20074 15.0896 8.84068 14.2463L8.58397 13.6446C8.07933 12.462 7.13744 11.5207 5.95538 11.016L5.35321 10.7589C4.50987 10.3988 4.50987 9.20364 5.35321 8.84364Z"
            fill="white"
          />
        </g>
      </g>
    </g>
  </g>
  <defs>
    <clipPath id="clip0_7714_14574">
      <rect width="20" height="20" fill="white" />
    </clipPath>
  </defs>
</svg>
