<svg
  fill="none"
  height="14"
  viewBox="0 0 14 14"
  width="14"
  xmlns="http://www.w3.org/2000/svg"
>
  <path
    d="m11.612 2.026-3.997 2.97.739-1.752 3.258-1.218Z"
    fill="#E2761B"
    stroke="#E2761B"
    stroke-linecap="round"
    stroke-linejoin="round"
    stroke-width="0.04"
  />
  <path
    d="M2.384 2.025 6.35 5.023l-.703-1.78-3.263-1.218ZM10.175 8.907 9.11 10.538l2.278.627.655-2.222-1.868-.036ZM1.962 8.943l.651 2.222 2.278-.627-1.064-1.63-1.865.035Z"
    fill="#E4761B"
    stroke="#E4761B"
    stroke-linecap="round"
    stroke-linejoin="round"
    stroke-width="0.04"
  />
  <path
    d="m4.763 6.151-.635.96 2.262.1-.08-2.43-1.547 1.37ZM9.234 6.152 7.667 4.754l-.052 2.459 2.258-.1-.639-.961ZM4.891 10.539l1.358-.663-1.173-.916-.185 1.579ZM7.748 9.876l1.362.663-.19-1.579-1.172.916Z"
    fill="#E4761B"
    stroke="#E4761B"
    stroke-linecap="round"
    stroke-linejoin="round"
    stroke-width="0.04"
  />
  <path
    d="m9.109 10.54-1.362-.663.109.888-.013.373 1.266-.598ZM4.89 10.54l1.266.599-.008-.374.1-.888-1.357.663Z"
    fill="#D7C1B3"
    stroke="#D7C1B3"
    stroke-linecap="round"
    stroke-linejoin="round"
    stroke-width="0.04"
  />
  <path
    d="M6.176 8.374 5.043 8.04l.8-.365.333.699ZM7.82 8.374l.333-.7.804.366-1.137.334Z"
    fill="#233447"
    stroke="#233447"
    stroke-linecap="round"
    stroke-linejoin="round"
    stroke-width="0.04"
  />
  <path
    d="m4.89 10.54.194-1.632-1.258.036 1.065 1.595ZM8.916 8.908l.193 1.631 1.065-1.595-1.258-.036ZM9.873 7.112l-2.258.1.209 1.162.333-.7.804.366.912-.928ZM5.043 8.04l.804-.365.33.699.212-1.161-2.262-.1.916.927Z"
    fill="#CD6116"
    stroke="#CD6116"
    stroke-linecap="round"
    stroke-linejoin="round"
    stroke-width="0.04"
  />
  <path
    d="m4.127 7.112.949 1.848-.033-.92-.916-.928ZM8.96 8.04l-.04.92.953-1.848-.912.928ZM6.39 7.213l-.214 1.161.265 1.37.06-1.804-.112-.727ZM7.615 7.213l-.109.723.049 1.808.269-1.37-.21-1.161Z"
    fill="#E4751F"
    stroke="#E4751F"
    stroke-linecap="round"
    stroke-linejoin="round"
    stroke-width="0.04"
  />
  <path
    d="m7.824 8.373-.27 1.37.194.133L8.92 8.96l.04-.92-1.137.334ZM5.043 8.04l.033.92 1.173.916.193-.133-.266-1.37-1.133-.333Z"
    fill="#F6851B"
    stroke="#F6851B"
    stroke-linecap="round"
    stroke-linejoin="round"
    stroke-width="0.04"
  />
  <path
    d="m7.844 11.138.012-.374-.1-.088H6.24l-.092.088.008.374-1.266-.599.442.362.896.622h1.539l.9-.622.442-.362-1.266.599Z"
    fill="#C0AD9E"
    stroke="#C0AD9E"
    stroke-linecap="round"
    stroke-linejoin="round"
    stroke-width="0.04"
  />
  <path
    d="m7.747 9.877-.192-.133H6.442l-.193.133-.1.888.092-.089h1.514l.1.089-.108-.888Z"
    fill="#161616"
    stroke="#161616"
    stroke-linecap="round"
    stroke-linejoin="round"
    stroke-width="0.04"
  />
  <path
    d="m11.78 5.187.342-1.639-.51-1.523-3.865 2.869L9.234 6.15l2.1.615.467-.542-.201-.145.321-.293-.249-.193.322-.245-.213-.16ZM1.877 3.548l.342 1.64-.217.16.321.245-.245.193.322.293-.201.145.462.542 2.101-.615L6.25 4.894 2.384 2.025l-.507 1.523Z"
    fill="#763D16"
    stroke="#763D16"
    stroke-linecap="round"
    stroke-linejoin="round"
    stroke-width="0.04"
  />
  <path
    d="m11.335 6.766-2.101-.615.639.96L8.92 8.96l1.254-.016h1.868l-.707-2.178ZM4.762 6.151l-2.101.615-.7 2.178h1.865l1.25.016-.949-1.848.635-.96ZM7.615 7.213l.132-2.319.61-1.65H5.647l.603 1.65.14 2.319.048.73.004 1.8h1.113l.008-1.8.053-.73Z"
    fill="#F6851B"
    stroke="#F6851B"
    stroke-linecap="round"
    stroke-linejoin="round"
    stroke-width="0.04"
  />
</svg>
