<svg
  width="48"
  height="48"
  viewBox="0 0 48 48"
  fill="none"
  xmlns="http://www.w3.org/2000/svg"
>
  <rect width="48" height="48" rx="8" fill="#FFEBD4" />
  <rect
    x="0.5"
    y="0.5"
    width="47"
    height="47"
    rx="7.5"
    stroke="#FFB570"
    stroke-opacity="0.56"
  />
  <path
    d="M26.6915 10.0042C26.5474 9.97848 26.4117 10.0729 26.3863 10.2187L24.6485 20.1977H23.3515L21.6137 10.2187C21.5882 10.0729 21.4526 9.97848 21.3085 10.0042C15.1371 11.2141 10.4069 16.5339 10.017 23.0378C10.017 23.0464 10 23.3209 10 23.4582C10 23.4754 10 23.4925 10 23.5011C10 23.5526 10 23.6041 10 23.6556C10 23.6727 10 23.6899 10 23.7156C10 23.7843 10 23.8443 10 23.913C10 30.8116 14.8659 36.5518 21.317 37.8217C21.4611 37.8475 21.5967 37.7531 21.6222 37.6072L23.36 27.6283H24.657L26.3863 37.6158C26.4117 37.7617 26.5474 37.856 26.6915 37.8303C32.8628 36.6119 37.5846 31.2921 37.983 24.7882C37.983 24.7796 38 24.505 38 24.3677C38 24.3506 38 24.3334 38 24.3248C38 24.2733 38 24.2219 38 24.1704C38 24.1532 38 24.1361 38 24.1103C38 24.0417 38 23.9816 38 23.913C38.0085 17.0144 33.1426 11.2741 26.6915 10.0042Z"
    fill="#FF6C15"
  />
  <rect x="28.5" y="28.5" width="15" height="15" rx="3.5" fill="#FFEBD4" />
  <rect x="28.5" y="28.5" width="15" height="15" rx="3.5" stroke="white" />
  <path
    d="M36 41C38.7614 41 41 38.7614 41 36C41 33.2386 38.7614 31 36 31C33.2386 31 31 33.2386 31 36C31 38.7614 33.2386 41 36 41Z"
    fill="#E9983D"
  />
  <path
    d="M38.2997 35.4224C38.4025 34.7874 37.953 34.4935 37.7008 34.3313C37.4497 34.1691 37.0658 34.0524 37.0658 34.0524L37.3114 33.0635L36.7447 32.9213L36.4991 33.9102L36.0464 33.7957L36.2919 32.8068L35.7186 32.6641L35.473 33.653L34.2747 33.3518L34.1291 33.9385C34.1291 33.9385 34.7208 34.0863 34.7858 34.1035C34.8525 34.1196 34.8436 34.1535 34.838 34.1757C34.8325 34.198 34.0936 37.1785 34.0825 37.218C34.0736 37.258 34.0669 37.2807 34.0119 37.268L33.3836 37.1102L33.2219 37.7618L34.3819 38.0524L34.1469 38.998L34.7653 39.153L35.0003 38.2068L35.3853 38.3035L35.1503 39.2496L35.7391 39.3974L35.9747 38.4518L36.418 38.563C36.7125 38.6368 37.8314 38.6507 38.0747 37.668C38.3186 36.6846 37.5125 36.2685 37.5125 36.2685C37.5125 36.2685 38.1958 36.0574 38.2997 35.4224ZM36.9569 37.2457C36.8403 37.7163 36.3153 37.7524 36.1958 37.7218L35.143 37.4585L35.4541 36.2018L36.5458 36.4752C36.7553 36.5285 37.0741 36.7752 36.9569 37.2457ZM37.1514 35.3318C37.0269 35.833 36.5269 35.8102 36.3691 35.7713L35.5997 35.5785L35.8964 34.3824L36.5986 34.558C36.7186 34.588 37.2764 34.8313 37.1514 35.3318Z"
    fill="white"
  />
</svg>
