<svg
  xmlns="http://www.w3.org/2000/svg"
  width="29"
  height="8"
  viewBox="0 0 29 8"
  fill="none"
>
  <g clip-path="url(#clip0_15476_23077)">
    <mask
      id="mask0_15476_23077"
      style="mask-type: luminance"
      maskUnits="userSpaceOnUse"
      x="0"
      y="0"
      width="29"
      height="8"
    >
      <path d="M28.2222 0.108643H0V7.88642H28.2222V0.108643Z" fill="white" />
    </mask>
    <g mask="url(#mask0_15476_23077)">
      <path
        d="M12.4839 2.08032C10.718 2.08032 9.55188 3.23703 9.55188 4.99978C9.55188 6.76256 10.6957 7.88623 12.5728 7.88623C14.1055 7.88623 15.1162 7.00498 15.294 5.92525H13.7389C13.6057 6.43194 13.1502 6.70741 12.5172 6.70741C11.7287 6.70741 11.1732 6.22283 11.1732 5.41858V5.35252H15.3383C15.3493 5.15432 15.3493 4.98887 15.3493 4.82372C15.3493 3.14912 14.1719 2.0806 12.4839 2.0806V2.08032ZM11.1955 4.31674C11.3067 3.65581 11.8176 3.25914 12.4839 3.25914C13.1948 3.25914 13.6723 3.64461 13.7722 4.32765L11.1955 4.31674Z"
        fill="#171717"
      />
      <path
        d="M17.7486 3.00599L17.6041 2.1687H16.2379V7.82035H17.8039V5.04421C17.8039 4.19601 18.1592 3.57901 19.0813 3.57901H19.7143V2.16898H19.3923C18.4925 2.16898 18.0483 2.5105 17.7486 3.00628V3.00599Z"
        fill="#171717"
      />
      <path
        d="M22.0027 0.108643H20.4366L20.4477 7.82036H22.0137L22.0027 4.54845V0.108643Z"
        fill="#171717"
      />
      <path
        d="M28.2222 0.108643H26.6562V7.82036H28.2222V0.108643Z"
        fill="#171717"
      />
      <path
        d="M4.35384 1.69505H5.85582L4.35384 5.76029L2.19908 0.108643H0.0110067L0 4.32729H1.58835V2.65356L3.60962 7.82036H4.96458L6.98613 2.65356V7.82036H8.58549V1.69505V0.108643H4.35384V1.69505Z"
        fill="#171717"
      />
      <path
        d="M23.1738 4.3273H23.1318C23.5438 4.3273 23.9371 4.15653 24.2171 3.85644L25.7909 2.1687H24.6429C24.2278 2.1687 23.8318 2.3417 23.5516 2.6457L22.002 4.3273L23.8744 7.15859C24.1478 7.57148 24.6129 7.82035 25.1118 7.82035H26.1113L24.4449 5.0431C24.1784 4.59939 23.6956 4.3273 23.1738 4.3273Z"
        fill="#171717"
      />
      <path
        d="M0 5.92586V7.82019L0.61214 7.60073C1.19803 7.39077 1.58806 6.8393 1.58806 6.22148V4.32715L0.975924 4.54662C0.390313 4.75657 0 5.30804 0 5.92586Z"
        fill="#171717"
      />
    </g>
  </g>
  <defs>
    <clipPath id="clip0_15476_23077">
      <rect width="28.2222" height="8" fill="white" />
    </clipPath>
  </defs>
</svg>
