<svg
  width="62"
  height="63"
  viewBox="0 0 62 63"
  fill="none"
  xmlns="http://www.w3.org/2000/svg"
>
  <g filter="url(#filter0_d_7963_92896)">
    <rect x="2" y="-20" width="80" height="80" rx="40" fill="white" />
    <rect
      x="2.5"
      y="-19.5"
      width="79"
      height="79"
      rx="39.5"
      stroke="#D4D4D8"
      stroke-opacity="0.56"
    />
    <rect
      x="10"
      y="-12"
      width="64"
      height="64"
      rx="32"
      fill="url(#paint0_linear_7963_92896)"
      fill-opacity="0.08"
    />
    <rect
      x="10.5"
      y="-11.5"
      width="63"
      height="63"
      rx="31.5"
      stroke="black"
      stroke-opacity="0.03"
    />
    <path
      d="M42.001 18.8016C42.9558 18.8016 43.8715 18.4223 44.5466 17.7471C45.2218 17.072 45.601 16.1563 45.601 15.2016C45.601 14.2468 45.2218 13.3311 44.5466 12.656C43.8715 11.9808 42.9558 11.6016 42.001 11.6016C41.0463 11.6016 40.1306 11.9808 39.4555 12.656C38.7803 13.3311 38.401 14.2468 38.401 15.2016C38.401 16.1563 38.7803 17.072 39.4555 17.7471C40.1306 18.4223 41.0463 18.8016 42.001 18.8016ZM37.201 17.6016C37.201 18.2381 36.9482 18.8485 36.4981 19.2986C36.048 19.7487 35.4376 20.0016 34.801 20.0016C34.1645 20.0016 33.5541 19.7487 33.104 19.2986C32.6539 18.8485 32.401 18.2381 32.401 17.6016C32.401 16.965 32.6539 16.3546 33.104 15.9045C33.5541 15.4544 34.1645 15.2016 34.801 15.2016C35.4376 15.2016 36.048 15.4544 36.4981 15.9045C36.9482 16.3546 37.201 16.965 37.201 17.6016ZM31.789 26.3928C31.5842 26.2763 31.4308 26.0869 31.3594 25.8624C31.148 25.1776 31.1458 24.4452 31.3531 23.7592C31.5604 23.0731 31.9677 22.4645 32.5229 22.0113C33.0782 21.5582 33.7561 21.281 34.4698 21.2154C35.1835 21.1499 35.9005 21.2988 36.529 21.6432C35.2374 22.9125 34.429 24.5926 34.243 26.394C34.2154 26.6604 34.2262 26.9244 34.273 27.1788C33.3972 27.103 32.549 26.8346 31.789 26.3928ZM49.729 27.1776C50.6048 27.1022 51.453 26.8342 52.213 26.3928C52.4174 26.2761 52.5704 26.0867 52.6414 25.8624C52.8532 25.1775 52.8557 24.445 52.6485 23.7587C52.4414 23.0724 52.0341 22.4635 51.4788 22.0102C50.9234 21.5568 50.2454 21.2796 49.5315 21.214C48.8177 21.1484 48.1005 21.2974 47.4718 21.642C48.7646 22.9112 49.5739 24.5918 49.7602 26.394C49.787 26.6557 49.7765 26.92 49.729 27.1788V27.1776ZM51.601 17.6016C51.601 18.2381 51.3482 18.8485 50.8981 19.2986C50.448 19.7487 49.8376 20.0016 49.201 20.0016C48.5645 20.0016 47.9541 19.7487 47.504 19.2986C47.0539 18.8485 46.801 18.2381 46.801 17.6016C46.801 16.965 47.0539 16.3546 47.504 15.9045C47.9541 15.4544 48.5645 15.2016 49.201 15.2016C49.8376 15.2016 50.448 15.4544 50.8981 15.9045C51.3482 16.3546 51.601 16.965 51.601 17.6016ZM36.3658 27.4296C36.2475 27.3236 36.1557 27.1912 36.098 27.0432C36.0403 26.8952 36.0181 26.7357 36.0334 26.5776C36.1861 25.1009 36.8807 23.7333 37.983 22.7391C39.0854 21.7448 40.5171 21.1945 42.0016 21.1945C43.4861 21.1945 44.9179 21.7448 46.0202 22.7391C47.1226 23.7333 47.8172 25.1009 47.9698 26.5776C47.9852 26.7357 47.9632 26.8952 47.9054 27.0433C47.8477 27.1913 47.7559 27.3236 47.6374 27.4296C46.0945 28.8299 44.0847 29.6044 42.001 29.6016C39.9178 29.6042 37.9084 28.8297 36.3658 27.4296Z"
      fill="#FF6C15"
    />
  </g>
  <defs>
    <filter
      id="filter0_d_7963_92896"
      x="0"
      y="-21"
      width="84"
      height="84"
      filterUnits="userSpaceOnUse"
      color-interpolation-filters="sRGB"
    >
      <feFlood flood-opacity="0" result="BackgroundImageFix" />
      <feColorMatrix
        in="SourceAlpha"
        type="matrix"
        values="0 0 0 0 0 0 0 0 0 0 0 0 0 0 0 0 0 0 127 0"
        result="hardAlpha"
      />
      <feOffset dy="1" />
      <feGaussianBlur stdDeviation="1" />
      <feColorMatrix
        type="matrix"
        values="0 0 0 0 0.0392157 0 0 0 0 0.0392157 0 0 0 0 0.0392157 0 0 0 0.04 0"
      />
      <feBlend
        mode="normal"
        in2="BackgroundImageFix"
        result="effect1_dropShadow_7963_92896"
      />
      <feBlend
        mode="normal"
        in="SourceGraphic"
        in2="effect1_dropShadow_7963_92896"
        result="shape"
      />
    </filter>
    <linearGradient
      id="paint0_linear_7963_92896"
      x1="10"
      y1="-12"
      x2="74"
      y2="-12"
      gradientUnits="userSpaceOnUse"
    >
      <stop stop-color="#FF6C15" />
      <stop offset="1" stop-color="#FF1814" />
    </linearGradient>
  </defs>
</svg>
