<svg
  fill="none"
  height="16"
  viewBox="0 0 16 16"
  width="16"
  xmlns="http://www.w3.org/2000/svg"
>
  <path
    clip-rule="evenodd"
    d="M9.80794 4.05705C9.86012 3.86521 9.98634 3.70194 10.1589 3.60312C10.3314 3.5043 10.5361 3.47802 10.7279 3.53005L13.8439 4.37905C14.0349 4.43107 14.1975 4.55643 14.2964 4.72782C14.3953 4.8992 14.4224 5.10273 14.3719 5.29405L13.5489 8.41505C13.4942 8.60269 13.3683 8.76153 13.1981 8.85774C13.028 8.95394 12.827 8.97991 12.6379 8.93011C12.4489 8.88031 12.2868 8.75868 12.1861 8.59113C12.0854 8.42357 12.0542 8.22333 12.0989 8.03305L12.4359 6.75205C11.1332 7.64669 9.92405 8.67055 8.82694 9.80805C8.7578 9.87976 8.67507 9.93698 8.58357 9.97637C8.49207 10.0158 8.39365 10.0365 8.29404 10.0374C8.19443 10.0384 8.09563 10.0195 8.00342 9.98179C7.9112 9.94412 7.82741 9.88846 7.75694 9.81805L5.99994 8.06005L2.27994 11.7801C2.21072 11.8517 2.12794 11.9087 2.03641 11.948C1.94489 11.9873 1.84647 12.0079 1.74688 12.0087C1.6473 12.0096 1.54855 11.9905 1.4564 11.9528C1.36424 11.915 1.28053 11.8593 1.21014 11.7888C1.13976 11.7184 1.08411 11.6346 1.04644 11.5424C1.00877 11.4502 0.989842 11.3515 0.990754 11.2519C0.991666 11.1523 1.0124 11.0539 1.05175 10.9624C1.0911 10.8709 1.14828 10.7882 1.21994 10.7191L5.46994 6.46905C5.61057 6.3286 5.80119 6.24971 5.99994 6.24971C6.19869 6.24971 6.38931 6.3286 6.52994 6.46905L8.28594 8.22405C9.36688 7.17014 10.541 6.21625 11.7939 5.37405L10.3339 4.97605C10.1423 4.92365 9.97925 4.79735 9.88063 4.62486C9.78201 4.45237 9.75587 4.2488 9.80794 4.05705Z"
    fill="#A3A3A3"
    fill-rule="evenodd"
  />
</svg>
