<svg
  fill="none"
  height="16"
  viewBox="0 0 16 16"
  width="16"
  xmlns="http://www.w3.org/2000/svg"
>
  <path
    d="M7.99999 8C8.66303 8 9.29892 7.73661 9.76776 7.26777C10.2366 6.79893 10.5 6.16304 10.5 5.5C10.5 4.83696 10.2366 4.20107 9.76776 3.73223C9.29892 3.26339 8.66303 3 7.99999 3C7.33695 3 6.70106 3.26339 6.23222 3.73223C5.76338 4.20107 5.49999 4.83696 5.49999 5.5C5.49999 6.16304 5.76338 6.79893 6.23222 7.26777C6.70106 7.73661 7.33695 8 7.99999 8ZM3.15599 11.763C3.31599 11.134 3.59599 10.553 3.96899 10.043C3.42647 9.93925 2.86486 10.0181 2.37187 10.2672C1.87888 10.5163 1.48228 10.9217 1.24399 11.42C1.10799 11.707 1.34599 12 1.66199 12H3.11099C3.12099 11.923 3.13599 11.844 3.15599 11.763ZM12.847 11.763C12.867 11.843 12.883 11.923 12.893 12H14.339C14.655 12 14.893 11.707 14.756 11.421C14.518 10.9231 14.1219 10.5179 13.6296 10.2686C13.1372 10.0194 12.5762 9.94004 12.034 10.043C12.408 10.553 12.687 11.133 12.847 11.763ZM14 7.5C14 7.69698 13.9612 7.89204 13.8858 8.07403C13.8104 8.25601 13.6999 8.42137 13.5607 8.56066C13.4214 8.69995 13.256 8.81044 13.074 8.88582C12.892 8.9612 12.697 9 12.5 9C12.303 9 12.108 8.9612 11.926 8.88582C11.744 8.81044 11.5786 8.69995 11.4393 8.56066C11.3 8.42137 11.1896 8.25601 11.1142 8.07403C11.0388 7.89204 11 7.69698 11 7.5C11 7.10218 11.158 6.72064 11.4393 6.43934C11.7206 6.15804 12.1022 6 12.5 6C12.8978 6 13.2793 6.15804 13.5607 6.43934C13.842 6.72064 14 7.10218 14 7.5ZM3.49999 9C3.89782 9 4.27935 8.84196 4.56065 8.56066C4.84196 8.27936 4.99999 7.89782 4.99999 7.5C4.99999 7.10218 4.84196 6.72064 4.56065 6.43934C4.27935 6.15804 3.89782 6 3.49999 6C3.10217 6 2.72063 6.15804 2.43933 6.43934C2.15803 6.72064 1.99999 7.10218 1.99999 7.5C1.99999 7.89782 2.15803 8.27936 2.43933 8.56066C2.72063 8.84196 3.10217 9 3.49999 9ZM4.99999 13C4.44799 13 3.98699 12.545 4.12399 12.01C4.34471 11.1495 4.84543 10.387 5.54727 9.84244C6.24911 9.29791 7.11218 9.00236 8.00049 9.00236C8.8888 9.00236 9.75187 9.29791 10.4537 9.84244C11.1556 10.387 11.6563 11.1495 11.877 12.01C12.013 12.545 11.553 13 11 13H4.99999Z"
    fill="#A3A3A3"
  />
</svg>
