<svg
  fill="none"
  height="16"
  viewBox="0 0 16 16"
  width="16"
  xmlns="http://www.w3.org/2000/svg"
>
  <path
    d="M8 1C11.866 1 15 4.13401 15 8C15 11.866 11.866 15 8 15C4.13401 15 1 11.866 1 8C1 4.13401 4.13401 1 8 1ZM7.99609 2.44434C7.65095 2.44437 7.37109 2.72418 7.37109 3.06934V3.58691C6.97442 3.57842 6.56892 3.58361 6.17188 3.58594C5.57879 3.58961 5.0957 4.07107 5.0957 4.66797V11.335C5.09599 11.9316 5.57892 12.4124 6.17188 12.416C6.56894 12.4183 6.97442 12.4226 7.37109 12.4141V12.9297C7.37117 13.2748 7.65102 13.5546 7.99609 13.5547C8.34123 13.5547 8.62102 13.2748 8.62109 12.9297V12.3174C8.844 12.2829 9.05688 12.239 9.25391 12.1777C9.70401 12.0376 10.1328 11.8029 10.4434 11.4004C10.7565 10.9943 10.8974 10.4851 10.8975 9.89746C10.8974 9.2568 10.7182 8.71702 10.3447 8.30371C10.2398 8.18766 10.1229 8.08835 10 8.00098C10.1229 7.9136 10.2398 7.8143 10.3447 7.69824C10.7183 7.28491 10.8974 6.74522 10.8975 6.10449C10.8974 5.51684 10.7564 5.00763 10.4434 4.60156C10.1328 4.19913 9.704 3.96437 9.25391 3.82422C9.05683 3.76289 8.84406 3.71809 8.62109 3.68359V3.06934C8.62109 2.72416 8.34127 2.44434 7.99609 2.44434ZM6.98047 8.62598C7.64254 8.63057 8.2236 8.65639 8.69824 8.77539C9.0583 8.86576 9.28292 8.99318 9.41797 9.14258C9.54188 9.27993 9.64742 9.49837 9.64746 9.89746C9.64744 10.2847 9.55723 10.5028 9.4541 10.6367C9.34834 10.7738 9.17394 10.8934 8.88184 10.9844C8.28428 11.1702 7.43461 11.1721 6.3457 11.166C6.34571 10.4263 6.34571 9.36989 6.3457 8.62891C6.55533 8.63027 6.76819 8.62768 6.98047 8.62598ZM6.3457 4.83496C7.43458 4.82892 8.28428 4.83176 8.88184 5.01758C9.17397 5.10855 9.34835 5.22812 9.4541 5.36523C9.55727 5.49917 9.64745 5.71708 9.64746 6.10449C9.64744 6.50355 9.54185 6.72201 9.41797 6.85938C9.28289 7.00877 9.05836 7.13719 8.69824 7.22754C8.23016 7.34489 7.65851 7.37079 7.00781 7.37598C6.78644 7.37396 6.56433 7.37162 6.3457 7.37305V4.83496Z"
    fill="#A3A3A3"
  />
</svg>
