<?xml version="1.0" encoding="utf-8"?>
<!-- Generator: Adobe Illustrator 28.1.0, SVG Export Plug-In . SVG Version: 6.00 Build 0)  -->
<svg version="1.0" xmlns="http://www.w3.org/2000/svg" xmlns:xlink="http://www.w3.org/1999/xlink" x="0px" y="0px"
	 viewBox="0 0 1080 1080" style="enable-background:new 0 0 1080 1080;" xml:space="preserve">
<style type="text/css">
	.st0{display:none;}
	.st1{display:inline;}
	.st2{fill:#FF5F00;}
	.st3{display:inline;fill:#FFFFFF;}
	.st4{display:inline;fill:none;stroke:#FFFFFF;stroke-width:4;stroke-miterlimit:10;}
</style>
<g id="Layer_1" class="st0">
</g>
<g id="Wordmark">
</g>
<g id="Symbol">
</g>
<g id="Symbol_LG">
	<g>
		<path class="st2" d="M436.2,1069.8c5.5,1.1,10.8-2.6,11.7-8.1L515,681.5h49.9l67,380.2c1,5.5,6.3,9.2,11.7,8.1
			c238-46.3,420.2-248.8,435.3-496.4v0.1c0-0.2,0.6-10.9,0.7-16.1c0-0.6,0-1.2,0.1-1.7c0.1-2,0.1-3.9,0.1-5.9c0-0.7,0-1.4,0-2.2
			c0-2.5,0.1-5,0.1-7.4c0,0,0-0.1,0-0.1c0,0,0,0,0,0c0,0,0,0,0,0c0-262.6-187.7-481.4-436.2-529.8c-5.5-1.1-10.8,2.6-11.7,8.1
			L565,398.5h-49.9l-67-380.2c-1-5.5-6.3-9.2-11.7-8.1C198.3,56.4,16.2,259,1,506.6v-0.1c0,0.2-0.6,10.9-0.7,16.1
			c0,0.6,0,1.2-0.1,1.7c-0.1,2-0.1,3.9-0.1,5.9c0,0.7,0,1.4,0,2.2c0,2.5-0.1,5-0.1,7.4c0,0,0,0.1,0,0.1c0,0,0,0,0,0c0,0,0,0,0,0
			C0,802.6,187.7,1021.4,436.2,1069.8z"/>
	</g>
</g>
<g id="Symbol_Circle">
</g>
<g id="v2" class="st0">
</g>
<g id="v3" class="st0">
</g>
<g id="v4" class="st0">
</g>
<g id="v5" class="st0">
</g>
<g id="v6" class="st0">
</g>
<g id="Layer_9">
</g>
</svg>
