<svg
  width="233"
  height="76"
  viewBox="0 0 233 76"
  fill="none"
  xmlns="http://www.w3.org/2000/svg"
>
  <g clip-path="url(#clip0_15473_22932)">
    <rect width="233" height="76" rx="6" fill="#ECF8F9" />
    <path
      d="M15.4531 35V17.5391H27.582V20.2227H18.5469V24.8164H26.9023V27.4531H18.5469V32.3164H27.582V35H15.4531ZM32.9731 35.1992C31.7388 35.1992 30.7153 34.8906 29.9028 34.2734C29.0981 33.6484 28.6958 32.7188 28.6958 31.4844C28.6958 30.5469 28.9223 29.8242 29.3755 29.3164C29.8364 28.8008 30.4341 28.4258 31.1684 28.1914C31.9106 27.957 32.7075 27.7969 33.5591 27.7109C34.7075 27.5781 35.5083 27.4609 35.9614 27.3594C36.4145 27.2578 36.6411 26.9961 36.6411 26.5742V26.4805C36.6411 25.9492 36.438 25.5156 36.0317 25.1797C35.6333 24.8438 35.0825 24.6758 34.3794 24.6758C33.6606 24.6758 33.0747 24.8438 32.6216 25.1797C32.1763 25.5156 31.9341 25.9453 31.895 26.4688H29.0473C29.1177 25.2422 29.6294 24.2539 30.5825 23.5039C31.5356 22.7539 32.8208 22.3789 34.438 22.3789C36.0473 22.3789 37.3052 22.7539 38.2114 23.5039C39.1177 24.2539 39.5708 25.2734 39.5708 26.5625V35H36.6645V33.2539H36.6177C36.3208 33.8008 35.8911 34.2617 35.3286 34.6367C34.7661 35.0117 33.9809 35.1992 32.9731 35.1992ZM33.6997 33.0078C34.6684 33.0078 35.4028 32.7578 35.9028 32.2578C36.4028 31.75 36.6528 31.1367 36.6528 30.418V29.082C36.4731 29.1992 36.1255 29.3086 35.6098 29.4102C35.0942 29.5039 34.5317 29.5977 33.9223 29.6914C33.2895 29.7852 32.7388 29.9648 32.27 30.2305C31.8091 30.4883 31.5786 30.8984 31.5786 31.4609C31.5786 31.9453 31.77 32.3242 32.1528 32.5977C32.5356 32.8711 33.0513 33.0078 33.6997 33.0078ZM41.7041 35V22.625H44.5517V24.6758H44.5869C44.8134 23.9727 45.1689 23.4375 45.6533 23.0703C46.1455 22.6953 46.79 22.5078 47.5869 22.5078C47.79 22.5078 47.9697 22.5156 48.1259 22.5312C48.29 22.5391 48.4306 22.5469 48.5478 22.5547V25.1797C48.4384 25.1641 48.2509 25.1445 47.9853 25.1211C47.7197 25.0977 47.4423 25.0859 47.1533 25.0859C46.4502 25.0859 45.8564 25.3281 45.372 25.8125C44.8955 26.2969 44.6572 27.0234 44.6572 27.9922V35H41.7041ZM52.8725 28.0039V35H49.9194V22.625H52.8256V24.5234C53.685 23.0938 54.9506 22.3789 56.6225 22.3789C57.9194 22.3789 58.978 22.7969 59.7983 23.6328C60.6264 24.4688 61.0405 25.6797 61.0405 27.2656V35H58.0756V27.7344C58.0756 26.8281 57.8569 26.1406 57.4194 25.6719C56.9819 25.2031 56.3686 24.9688 55.5795 24.9688C54.8061 24.9688 54.1616 25.2109 53.6459 25.6953C53.1303 26.1797 52.8725 26.9492 52.8725 28.0039ZM15.4531 59V41.5391H22.2617C23.543 41.5391 24.6484 41.7656 25.5781 42.2188C26.5156 42.6719 27.2383 43.3164 27.7461 44.1523C28.2539 44.9883 28.5078 45.9766 28.5078 47.1172C28.5078 48.3047 28.2148 49.3242 27.6289 50.1758C27.043 51.0273 26.2305 51.6641 25.1914 52.0859L28.8359 59H25.4258L22.1445 52.6484C22.1211 52.6484 22.0938 52.6484 22.0625 52.6484H18.5469V59H15.4531ZM18.5469 50.0938H22.1094C23.1406 50.0938 23.957 49.8281 24.5586 49.2969C25.1602 48.7578 25.4609 48.0312 25.4609 47.1172C25.4609 46.2109 25.1562 45.4922 24.5469 44.9609C23.9453 44.4297 23.125 44.1641 22.0859 44.1641H18.5469V50.0938ZM35.1997 59.2812C33.9653 59.2812 32.895 59.0039 31.9888 58.4492C31.0825 57.8945 30.3833 57.1328 29.8911 56.1641C29.4067 55.1875 29.1645 54.0742 29.1645 52.8242C29.1645 51.5664 29.4145 50.4531 29.9145 49.4844C30.4223 48.5078 31.1216 47.7422 32.0122 47.1875C32.9028 46.625 33.9263 46.3438 35.0825 46.3438C36.27 46.3438 37.3091 46.6172 38.1997 47.1641C39.0903 47.7109 39.7817 48.4688 40.2739 49.4375C40.7661 50.3984 41.0122 51.5117 41.0122 52.7773V53.5859H32.0591C32.0981 54.5938 32.395 55.4062 32.9497 56.0234C33.5044 56.6406 34.2778 56.9492 35.27 56.9492C36.0122 56.9492 36.6255 56.7891 37.1098 56.4688C37.5942 56.1406 37.9223 55.7109 38.0942 55.1797H40.8598C40.7036 55.9844 40.3598 56.6953 39.8286 57.3125C39.3052 57.9297 38.645 58.4141 37.8481 58.7656C37.0513 59.1094 36.1684 59.2812 35.1997 59.2812ZM32.0825 51.5469H38.1763C38.0825 50.6641 37.7622 49.9688 37.2153 49.4609C36.6763 48.9453 35.9809 48.6875 35.1294 48.6875C34.27 48.6875 33.5708 48.9453 33.0317 49.4609C32.5005 49.9688 32.1841 50.6641 32.0825 51.5469ZM44.8916 59L41.0713 46.625H44.1767L45.4541 51.3242C45.6494 52.0586 45.8369 52.8164 46.0166 53.5977C46.1963 54.3789 46.3798 55.1523 46.5673 55.918C46.7548 55.1523 46.9463 54.3789 47.1416 53.5977C47.3369 52.8164 47.5361 52.0586 47.7392 51.3242L49.0517 46.625H51.7822L53.083 51.3242C53.2783 52.0586 53.4697 52.8125 53.6572 53.5859C53.8525 54.3594 54.0478 55.1289 54.2431 55.8945C54.4228 55.1289 54.6025 54.3594 54.7822 53.5859C54.9619 52.8125 55.1494 52.0586 55.3447 51.3242L56.622 46.625H59.7627L55.9306 59H52.8603L51.3603 53.8438C51.1963 53.2734 51.0361 52.6875 50.8798 52.0859C50.7236 51.4844 50.5673 50.8828 50.4111 50.2812C50.2627 50.8828 50.1103 51.4844 49.9541 52.0859C49.7978 52.6875 49.6338 53.2734 49.4619 53.8438L47.9384 59H44.8916ZM64.3803 59.1992C63.1459 59.1992 62.1225 58.8906 61.31 58.2734C60.5053 57.6484 60.103 56.7188 60.103 55.4844C60.103 54.5469 60.3295 53.8242 60.7827 53.3164C61.2436 52.8008 61.8413 52.4258 62.5756 52.1914C63.3178 51.957 64.1147 51.7969 64.9663 51.7109C66.1147 51.5781 66.9155 51.4609 67.3686 51.3594C67.8217 51.2578 68.0483 50.9961 68.0483 50.5742V50.4805C68.0483 49.9492 67.8452 49.5156 67.4389 49.1797C67.0405 48.8438 66.4897 48.6758 65.7866 48.6758C65.0678 48.6758 64.4819 48.8438 64.0288 49.1797C63.5834 49.5156 63.3413 49.9453 63.3022 50.4688H60.4545C60.5248 49.2422 61.0366 48.2539 61.9897 47.5039C62.9428 46.7539 64.228 46.3789 65.8452 46.3789C67.4545 46.3789 68.7123 46.7539 69.6186 47.5039C70.5248 48.2539 70.978 49.2734 70.978 50.5625V59H68.0717V57.2539H68.0248C67.728 57.8008 67.2983 58.2617 66.7358 58.6367C66.1733 59.0117 65.3881 59.1992 64.3803 59.1992ZM65.1069 57.0078C66.0756 57.0078 66.81 56.7578 67.31 56.2578C67.81 55.75 68.06 55.1367 68.06 54.418V53.082C67.8803 53.1992 67.5327 53.3086 67.017 53.4102C66.5014 53.5039 65.9389 53.5977 65.3295 53.6914C64.6967 53.7852 64.1459 53.9648 63.6772 54.2305C63.2163 54.4883 62.9858 54.8984 62.9858 55.4609C62.9858 55.9453 63.1772 56.3242 63.56 56.5977C63.9428 56.8711 64.4584 57.0078 65.1069 57.0078ZM73.1113 59V46.625H75.9589V48.6758H75.9941C76.2206 47.9727 76.5761 47.4375 77.0605 47.0703C77.5527 46.6953 78.1972 46.5078 78.9941 46.5078C79.1972 46.5078 79.3769 46.5156 79.5331 46.5312C79.6972 46.5391 79.8378 46.5469 79.955 46.5547V49.1797C79.8456 49.1641 79.6581 49.1445 79.3925 49.1211C79.1269 49.0977 78.8495 49.0859 78.5605 49.0859C77.8573 49.0859 77.2636 49.3281 76.7792 49.8125C76.3027 50.2969 76.0644 51.0234 76.0644 51.9922V59H73.1113ZM85.8031 59.2461C84.725 59.2461 83.7836 58.9766 82.9789 58.4375C82.1742 57.8984 81.5492 57.1484 81.1039 56.1875C80.6664 55.2188 80.4477 54.0898 80.4477 52.8008C80.4477 51.5352 80.6703 50.4219 81.1156 49.4609C81.5609 48.4922 82.1859 47.7383 82.9906 47.1992C83.7953 46.6523 84.725 46.3789 85.7797 46.3789C86.5844 46.3789 87.307 46.543 87.9477 46.8711C88.5883 47.1992 89.1078 47.7031 89.5062 48.3828H89.5297V41.5391H92.4828V59H89.5766V57.1133H89.5531C89.1625 57.832 88.6391 58.3672 87.9828 58.7188C87.3344 59.0703 86.6078 59.2461 85.8031 59.2461ZM86.4945 56.7734C87.4633 56.7734 88.2367 56.4141 88.8148 55.6953C89.4008 54.9688 89.6937 54.0039 89.6937 52.8008C89.6937 51.5977 89.4008 50.6367 88.8148 49.918C88.2367 49.1914 87.4633 48.8281 86.4945 48.8281C85.5805 48.8281 84.8422 49.1719 84.2797 49.8594C83.7172 50.5469 83.4359 51.5273 83.4359 52.8008C83.4359 54.082 83.7172 55.0664 84.2797 55.7539C84.8422 56.4336 85.5805 56.7734 86.4945 56.7734ZM99.4794 59.293C97.9716 59.293 96.7098 58.9414 95.6942 58.2383C94.6864 57.5273 94.1356 56.5078 94.0419 55.1797H96.9598C97.0223 55.7812 97.2645 56.25 97.6864 56.5859C98.1083 56.9141 98.6903 57.0781 99.4325 57.0781C100.143 57.0781 100.702 56.9375 101.108 56.6562C101.522 56.375 101.729 56.0156 101.729 55.5781C101.729 55.2031 101.577 54.9023 101.272 54.6758C100.968 54.4492 100.558 54.2812 100.042 54.1719L97.9325 53.7383C95.5263 53.2383 94.3231 52.0469 94.3231 50.1641C94.3231 49.0234 94.7763 48.1055 95.6825 47.4102C96.5888 46.707 97.7958 46.3555 99.3036 46.3555C100.804 46.3555 102.022 46.7266 102.96 47.4688C103.905 48.2031 104.393 49.207 104.425 50.4805H101.647C101.632 49.9258 101.417 49.4688 101.003 49.1094C100.589 48.75 100.046 48.5703 99.3739 48.5703C98.7255 48.5703 98.2138 48.7148 97.8388 49.0039C97.4638 49.293 97.2763 49.6484 97.2763 50.0703C97.2763 50.4375 97.4208 50.7383 97.7098 50.9727C97.9989 51.1992 98.4013 51.3711 98.9169 51.4883L101.143 51.9453C102.37 52.2031 103.272 52.6094 103.85 53.1641C104.436 53.7188 104.729 54.4492 104.729 55.3555C104.729 56.1602 104.503 56.8594 104.05 57.4531C103.604 58.0391 102.987 58.4922 102.198 58.8125C101.409 59.1328 100.503 59.293 99.4794 59.293Z"
      fill="#009CF5"
    />
    <g clip-path="url(#clip1_15473_22932)">
      <path
        d="M285.992 -35.5999H263.044C250.216 -35.5999 237.916 -30.5039 228.848 -21.4359L37.744 169.668"
        stroke="#FF5F00"
        stroke-width="8.8"
      />
      <path
        d="M285.992 35.8679H209.132C196.304 35.8679 184.004 40.9639 174.936 50.0319L54.272 170.696"
        stroke="#2599EE"
        stroke-width="8.8"
      />
      <path
        d="M285.992 -35.5999H245.716C232.888 -35.5999 220.588 -30.5039 211.52 -21.4359L19.668 170.412"
        stroke="#FF5F00"
        stroke-width="8.8"
      />
      <path
        d="M285.992 48.3921H209.332C199.62 48.3921 190.304 52.2521 183.436 59.1201L71.86 170.696"
        stroke="#ECF8F9"
        stroke-width="8.8"
      />
      <circle cx="142.8" cy="64.8" r="4" fill="white" />
      <circle cx="173.6" cy="16.3999" r="4" fill="white" />
      <circle cx="215" cy="36" r="4" fill="white" />
    </g>
  </g>
  <defs>
    <clipPath id="clip0_15473_22932">
      <rect width="233" height="76" rx="6" fill="white" />
    </clipPath>
    <clipPath id="clip1_15473_22932">
      <rect
        width="285.992"
        height="213.808"
        fill="white"
        transform="translate(0 -40)"
      />
    </clipPath>
  </defs>
</svg>
