<svg
  width="233"
  height="76"
  viewBox="0 0 233 76"
  fill="none"
  xmlns="http://www.w3.org/2000/svg"
>
  <g clip-path="url(#clip0_15476_23042)">
    <rect width="233" height="76" rx="6" fill="#ECF8F9" />
    <g clip-path="url(#clip1_15476_23042)">
      <path
        d="M318.992 -35.5999H296.044C283.216 -35.5999 270.916 -30.5039 261.848 -21.4359L70.744 169.668"
        stroke="#FF5F00"
        stroke-width="8.8"
      />
      <path
        d="M318.992 35.8679H242.132C229.304 35.8679 217.004 40.9639 207.936 50.0319L87.272 170.696"
        stroke="#2599EE"
        stroke-width="8.8"
      />
      <path
        d="M318.992 -35.5999H278.716C265.888 -35.5999 253.588 -30.5039 244.52 -21.4359L52.668 170.412"
        stroke="#FF5F00"
        stroke-width="8.8"
      />
      <path
        d="M318.992 48.3921H242.332C232.62 48.3921 223.304 52.2521 216.436 59.1201L104.86 170.696"
        stroke="#ECF8F9"
        stroke-width="8.8"
      />
      <circle cx="175.8" cy="64.8" r="4" fill="white" />
      <circle cx="206.6" cy="16.3999" r="4" fill="white" />
    </g>
    <path
      d="M23.0352 35.2812C21.4258 35.2812 20.0039 34.9023 18.7695 34.1445C17.5352 33.3867 16.5703 32.332 15.875 30.9805C15.1875 29.6289 14.8438 28.0625 14.8438 26.2812C14.8438 24.4531 15.1953 22.8633 15.8984 21.5117C16.6094 20.1602 17.5781 19.1133 18.8047 18.3711C20.0391 17.6289 21.4375 17.2578 23 17.2578C24.3047 17.2578 25.4961 17.5156 26.5742 18.0312C27.6523 18.5391 28.5391 19.25 29.2344 20.1641C29.9375 21.0703 30.375 22.125 30.5469 23.3281H27.3945C27.1758 22.3438 26.6797 21.5508 25.9062 20.9492C25.1406 20.3398 24.1992 20.0352 23.082 20.0352C22.0352 20.0352 21.1289 20.293 20.3633 20.8086C19.5977 21.3242 19.0039 22.0508 18.582 22.9883C18.168 23.918 17.9609 25.0156 17.9609 26.2812C17.9609 27.5391 18.1719 28.6367 18.5938 29.5742C19.0156 30.5039 19.6094 31.2266 20.375 31.7422C21.1484 32.25 22.0586 32.5039 23.1055 32.5039C23.9648 32.5039 24.7305 32.332 25.4023 31.9883C26.082 31.6367 26.6172 31.1484 27.0078 30.5234C27.3984 29.8984 27.5977 29.1758 27.6055 28.3555H23.5508V25.9062H30.6641V28.0156C30.6641 29.4297 30.332 30.6836 29.668 31.7773C29.0117 32.8711 28.1094 33.7305 26.9609 34.3555C25.8125 34.9727 24.5039 35.2812 23.0352 35.2812ZM36.2309 35.1992C34.9966 35.1992 33.9731 34.8906 33.1606 34.2734C32.3559 33.6484 31.9536 32.7188 31.9536 31.4844C31.9536 30.5469 32.1802 29.8242 32.6333 29.3164C33.0942 28.8008 33.6919 28.4258 34.4263 28.1914C35.1684 27.957 35.9653 27.7969 36.8169 27.7109C37.9653 27.5781 38.7661 27.4609 39.2192 27.3594C39.6723 27.2578 39.8989 26.9961 39.8989 26.5742V26.4805C39.8989 25.9492 39.6958 25.5156 39.2895 25.1797C38.8911 24.8438 38.3403 24.6758 37.6372 24.6758C36.9184 24.6758 36.3325 24.8438 35.8794 25.1797C35.4341 25.5156 35.1919 25.9453 35.1528 26.4688H32.3052C32.3755 25.2422 32.8872 24.2539 33.8403 23.5039C34.7934 22.7539 36.0786 22.3789 37.6958 22.3789C39.3052 22.3789 40.563 22.7539 41.4692 23.5039C42.3755 24.2539 42.8286 25.2734 42.8286 26.5625V35H39.9223V33.2539H39.8755C39.5786 33.8008 39.1489 34.2617 38.5864 34.6367C38.0239 35.0117 37.2388 35.1992 36.2309 35.1992ZM36.9575 33.0078C37.9263 33.0078 38.6606 32.7578 39.1606 32.2578C39.6606 31.75 39.9106 31.1367 39.9106 30.418V29.082C39.7309 29.1992 39.3833 29.3086 38.8677 29.4102C38.352 29.5039 37.7895 29.5977 37.1802 29.6914C36.5473 29.7852 35.9966 29.9648 35.5278 30.2305C35.0669 30.4883 34.8364 30.8984 34.8364 31.4609C34.8364 31.9453 35.0278 32.3242 35.4106 32.5977C35.7934 32.8711 36.3091 33.0078 36.9575 33.0078ZM47.915 28.0039V35H44.9619V22.625H47.8681V24.5234C48.7275 23.0938 49.9931 22.3789 51.665 22.3789C52.9619 22.3789 54.0205 22.7969 54.8408 23.6328C55.6689 24.4688 56.083 25.6797 56.083 27.2656V35H53.1181V27.7344C53.1181 26.8281 52.8994 26.1406 52.4619 25.6719C52.0244 25.2031 51.4111 24.9688 50.622 24.9688C49.8486 24.9688 49.2041 25.2109 48.6884 25.6953C48.1728 26.1797 47.915 26.9492 47.915 28.0039ZM63.7006 35.2812C62.4663 35.2812 61.3959 35.0039 60.4897 34.4492C59.5834 33.8945 58.8842 33.1328 58.392 32.1641C57.9077 31.1875 57.6655 30.0742 57.6655 28.8242C57.6655 27.5664 57.9155 26.4531 58.4155 25.4844C58.9233 24.5078 59.6225 23.7422 60.5131 23.1875C61.4038 22.625 62.4272 22.3438 63.5834 22.3438C64.7709 22.3438 65.81 22.6172 66.7006 23.1641C67.5913 23.7109 68.2827 24.4688 68.7748 25.4375C69.267 26.3984 69.5131 27.5117 69.5131 28.7773V29.5859H60.56C60.5991 30.5938 60.8959 31.4062 61.4506 32.0234C62.0053 32.6406 62.7788 32.9492 63.7709 32.9492C64.5131 32.9492 65.1264 32.7891 65.6108 32.4688C66.0952 32.1406 66.4233 31.7109 66.5952 31.1797H69.3608C69.2045 31.9844 68.8608 32.6953 68.3295 33.3125C67.8061 33.9297 67.1459 34.4141 66.3491 34.7656C65.5522 35.1094 64.6694 35.2812 63.7006 35.2812ZM60.5834 27.5469H66.6772C66.5834 26.6641 66.2631 25.9688 65.7163 25.4609C65.1772 24.9453 64.4819 24.6875 63.6303 24.6875C62.7709 24.6875 62.0717 24.9453 61.5327 25.4609C61.0014 25.9688 60.685 26.6641 60.5834 27.5469ZM15.4531 59V41.5391H22.2617C23.543 41.5391 24.6484 41.7656 25.5781 42.2188C26.5156 42.6719 27.2383 43.3164 27.7461 44.1523C28.2539 44.9883 28.5078 45.9766 28.5078 47.1172C28.5078 48.3047 28.2148 49.3242 27.6289 50.1758C27.043 51.0273 26.2305 51.6641 25.1914 52.0859L28.8359 59H25.4258L22.1445 52.6484C22.1211 52.6484 22.0938 52.6484 22.0625 52.6484H18.5469V59H15.4531ZM18.5469 50.0938H22.1094C23.1406 50.0938 23.957 49.8281 24.5586 49.2969C25.1602 48.7578 25.4609 48.0312 25.4609 47.1172C25.4609 46.2109 25.1562 45.4922 24.5469 44.9609C23.9453 44.4297 23.125 44.1641 22.0859 44.1641H18.5469V50.0938ZM35.1997 59.2812C33.9653 59.2812 32.895 59.0039 31.9888 58.4492C31.0825 57.8945 30.3833 57.1328 29.8911 56.1641C29.4067 55.1875 29.1645 54.0742 29.1645 52.8242C29.1645 51.5664 29.4145 50.4531 29.9145 49.4844C30.4223 48.5078 31.1216 47.7422 32.0122 47.1875C32.9028 46.625 33.9263 46.3438 35.0825 46.3438C36.27 46.3438 37.3091 46.6172 38.1997 47.1641C39.0903 47.7109 39.7817 48.4688 40.2739 49.4375C40.7661 50.3984 41.0122 51.5117 41.0122 52.7773V53.5859H32.0591C32.0981 54.5938 32.395 55.4062 32.9497 56.0234C33.5044 56.6406 34.2778 56.9492 35.27 56.9492C36.0122 56.9492 36.6255 56.7891 37.1098 56.4688C37.5942 56.1406 37.9223 55.7109 38.0942 55.1797H40.8598C40.7036 55.9844 40.3598 56.6953 39.8286 57.3125C39.3052 57.9297 38.645 58.4141 37.8481 58.7656C37.0513 59.1094 36.1684 59.2812 35.1997 59.2812ZM32.0825 51.5469H38.1763C38.0825 50.6641 37.7622 49.9688 37.2153 49.4609C36.6763 48.9453 35.9809 48.6875 35.1294 48.6875C34.27 48.6875 33.5708 48.9453 33.0317 49.4609C32.5005 49.9688 32.1841 50.6641 32.0825 51.5469ZM48.0205 59.2812C46.8173 59.2812 45.7588 59.0078 44.8447 58.4609C43.9384 57.9141 43.2314 57.1562 42.7236 56.1875C42.2236 55.2188 41.9736 54.0977 41.9736 52.8242C41.9736 51.5508 42.2236 50.4297 42.7236 49.4609C43.2314 48.4844 43.9384 47.7227 44.8447 47.1758C45.7588 46.6211 46.8173 46.3438 48.0205 46.3438C49.0595 46.3438 49.9853 46.5469 50.7978 46.9531C51.6103 47.3516 52.2627 47.9062 52.7548 48.6172C53.2548 49.3203 53.5478 50.1328 53.6338 51.0547H50.7392C50.6298 50.3906 50.3447 49.8516 49.8838 49.4375C49.4306 49.0156 48.8213 48.8047 48.0556 48.8047C47.0869 48.8047 46.3291 49.168 45.7822 49.8945C45.2353 50.6211 44.9619 51.5977 44.9619 52.8242C44.9619 54.043 45.2353 55.0156 45.7822 55.7422C46.3291 56.4609 47.0869 56.8203 48.0556 56.8203C48.8291 56.8203 49.4306 56.6172 49.8603 56.2109C50.29 55.7969 50.5752 55.2461 50.7158 54.5586H53.6338C53.5634 55.4648 53.2783 56.2734 52.7783 56.9844C52.2861 57.6953 51.6298 58.2578 50.8095 58.6719C49.997 59.0781 49.0673 59.2812 48.0205 59.2812ZM60.6772 59.2812C59.4584 59.2812 58.392 59.0117 57.478 58.4727C56.5639 57.9258 55.8491 57.168 55.3334 56.1992C54.8256 55.2305 54.5717 54.1055 54.5717 52.8242C54.5717 51.543 54.8256 50.418 55.3334 49.4492C55.8491 48.4727 56.5639 47.7109 57.478 47.1641C58.392 46.6172 59.4584 46.3438 60.6772 46.3438C61.8881 46.3438 62.9506 46.6172 63.8647 47.1641C64.7866 47.7109 65.5014 48.4727 66.0092 49.4492C66.5248 50.418 66.7827 51.543 66.7827 52.8242C66.7827 54.1055 66.5248 55.2305 66.0092 56.1992C65.5014 57.168 64.7866 57.9258 63.8647 58.4727C62.9506 59.0117 61.8881 59.2812 60.6772 59.2812ZM60.6772 56.8086C61.6225 56.8086 62.3764 56.4531 62.9389 55.7422C63.5014 55.0312 63.7827 54.0586 63.7827 52.8242C63.7827 51.5898 63.5014 50.6133 62.9389 49.8945C62.3764 49.1758 61.6225 48.8164 60.6772 48.8164C59.7241 48.8164 58.9663 49.1758 58.4038 49.8945C57.8413 50.6055 57.56 51.582 57.56 52.8242C57.56 54.0586 57.8413 55.0312 58.4038 55.7422C58.9663 56.4531 59.7241 56.8086 60.6772 56.8086ZM68.3534 59V46.625H71.2128V48.7695C71.5878 47.9727 72.1073 47.375 72.7714 46.9766C73.4355 46.5781 74.1581 46.3789 74.9394 46.3789C75.7753 46.3789 76.5136 46.5938 77.1542 47.0234C77.7948 47.4453 78.2441 48.0117 78.5019 48.7227C78.83 48.0117 79.3417 47.4453 80.037 47.0234C80.7323 46.5938 81.5331 46.3789 82.4394 46.3789C83.6113 46.3789 84.5956 46.7578 85.3925 47.5156C86.1894 48.2734 86.5878 49.3789 86.5878 50.832V59H83.623V51.2539C83.623 50.4336 83.3964 49.8359 82.9433 49.4609C82.498 49.0781 81.9589 48.8867 81.3261 48.8867C80.5761 48.8867 79.9823 49.1211 79.5448 49.5898C79.1152 50.0586 78.9003 50.6641 78.9003 51.4062V59H76.0292V51.1133C76.0292 50.4414 75.8183 49.9023 75.3964 49.4961C74.9745 49.0898 74.4355 48.8867 73.7792 48.8867C73.1152 48.8867 72.537 49.1211 72.0448 49.5898C71.5527 50.0508 71.3066 50.7266 71.3066 51.6172V59H68.3534ZM88.7328 63.8984V46.625H91.6391V48.3477H91.6742C92.0648 47.6914 92.5883 47.1992 93.2445 46.8711C93.9008 46.543 94.6273 46.3789 95.4242 46.3789C96.4867 46.3789 97.4164 46.6523 98.2133 47.1992C99.018 47.7383 99.643 48.4922 100.088 49.4609C100.541 50.4219 100.768 51.5352 100.768 52.8008C100.768 54.0898 100.545 55.2188 100.1 56.1875C99.6625 57.1484 99.0414 57.8984 98.2367 58.4375C97.432 58.9766 96.4906 59.2461 95.4125 59.2461C94.6 59.2461 93.8773 59.0703 93.2445 58.7188C92.6195 58.3672 92.1117 57.8398 91.7211 57.1367H91.6859V63.8984H88.7328ZM94.7211 56.7734C95.6352 56.7734 96.3734 56.4336 96.9359 55.7539C97.4984 55.0664 97.7797 54.082 97.7797 52.8008C97.7797 51.5273 97.4984 50.5469 96.9359 49.8594C96.3734 49.1719 95.6352 48.8281 94.7211 48.8281C93.7523 48.8281 92.975 49.1914 92.3891 49.918C91.8109 50.6367 91.5219 51.5977 91.5219 52.8008C91.5219 54.0039 91.8109 54.9688 92.3891 55.6953C92.975 56.4141 93.7523 56.7734 94.7211 56.7734ZM107.8 59.2812C106.565 59.2812 105.495 59.0039 104.589 58.4492C103.683 57.8945 102.983 57.1328 102.491 56.1641C102.007 55.1875 101.765 54.0742 101.765 52.8242C101.765 51.5664 102.015 50.4531 102.515 49.4844C103.022 48.5078 103.722 47.7422 104.612 47.1875C105.503 46.625 106.526 46.3438 107.683 46.3438C108.87 46.3438 109.909 46.6172 110.8 47.1641C111.69 47.7109 112.382 48.4688 112.874 49.4375C113.366 50.3984 113.612 51.5117 113.612 52.7773V53.5859H104.659C104.698 54.5938 104.995 55.4062 105.55 56.0234C106.104 56.6406 106.878 56.9492 107.87 56.9492C108.612 56.9492 109.225 56.7891 109.71 56.4688C110.194 56.1406 110.522 55.7109 110.694 55.1797H113.46C113.304 55.9844 112.96 56.6953 112.429 57.3125C111.905 57.9297 111.245 58.4141 110.448 58.7656C109.651 59.1094 108.768 59.2812 107.8 59.2812ZM104.683 51.5469H110.776C110.683 50.6641 110.362 49.9688 109.815 49.4609C109.276 48.9453 108.581 48.6875 107.729 48.6875C106.87 48.6875 106.171 48.9453 105.632 49.4609C105.1 49.9688 104.784 50.6641 104.683 51.5469ZM119.999 59.293C118.492 59.293 117.23 58.9414 116.214 58.2383C115.206 57.5273 114.656 56.5078 114.562 55.1797H117.48C117.542 55.7812 117.785 56.25 118.206 56.5859C118.628 56.9141 119.21 57.0781 119.952 57.0781C120.663 57.0781 121.222 56.9375 121.628 56.6562C122.042 56.375 122.249 56.0156 122.249 55.5781C122.249 55.2031 122.097 54.9023 121.792 54.6758C121.488 54.4492 121.077 54.2812 120.562 54.1719L118.452 53.7383C116.046 53.2383 114.843 52.0469 114.843 50.1641C114.843 49.0234 115.296 48.1055 116.202 47.4102C117.109 46.707 118.316 46.3555 119.824 46.3555C121.324 46.3555 122.542 46.7266 123.48 47.4688C124.425 48.2031 124.913 49.207 124.945 50.4805H122.167C122.152 49.9258 121.937 49.4688 121.523 49.1094C121.109 48.75 120.566 48.5703 119.894 48.5703C119.245 48.5703 118.734 48.7148 118.359 49.0039C117.984 49.293 117.796 49.6484 117.796 50.0703C117.796 50.4375 117.941 50.7383 118.23 50.9727C118.519 51.1992 118.921 51.3711 119.437 51.4883L121.663 51.9453C122.89 52.2031 123.792 52.6094 124.37 53.1641C124.956 53.7188 125.249 54.4492 125.249 55.3555C125.249 56.1602 125.023 56.8594 124.57 57.4531C124.124 58.0391 123.507 58.4922 122.718 58.8125C121.929 59.1328 121.023 59.293 119.999 59.293ZM130.558 59.1992C129.324 59.1992 128.301 58.8906 127.488 58.2734C126.683 57.6484 126.281 56.7188 126.281 55.4844C126.281 54.5469 126.508 53.8242 126.961 53.3164C127.422 52.8008 128.019 52.4258 128.754 52.1914C129.496 51.957 130.293 51.7969 131.144 51.7109C132.293 51.5781 133.094 51.4609 133.547 51.3594C134 51.2578 134.226 50.9961 134.226 50.5742V50.4805C134.226 49.9492 134.023 49.5156 133.617 49.1797C133.219 48.8438 132.668 48.6758 131.965 48.6758C131.246 48.6758 130.66 48.8438 130.207 49.1797C129.762 49.5156 129.519 49.9453 129.48 50.4688H126.633C126.703 49.2422 127.215 48.2539 128.168 47.5039C129.121 46.7539 130.406 46.3789 132.023 46.3789C133.633 46.3789 134.89 46.7539 135.797 47.5039C136.703 48.2539 137.156 49.2734 137.156 50.5625V59H134.25V57.2539H134.203C133.906 57.8008 133.476 58.2617 132.914 58.6367C132.351 59.0117 131.566 59.1992 130.558 59.1992ZM131.285 57.0078C132.254 57.0078 132.988 56.7578 133.488 56.2578C133.988 55.75 134.238 55.1367 134.238 54.418V53.082C134.058 53.1992 133.711 53.3086 133.195 53.4102C132.68 53.5039 132.117 53.5977 131.508 53.6914C130.875 53.7852 130.324 53.9648 129.855 54.2305C129.394 54.4883 129.164 54.8984 129.164 55.4609C129.164 55.9453 129.355 56.3242 129.738 56.5977C130.121 56.8711 130.637 57.0078 131.285 57.0078ZM144.141 59.293C142.633 59.293 141.371 58.9414 140.356 58.2383C139.348 57.5273 138.797 56.5078 138.703 55.1797H141.621C141.684 55.7812 141.926 56.25 142.348 56.5859C142.77 56.9141 143.352 57.0781 144.094 57.0781C144.805 57.0781 145.364 56.9375 145.77 56.6562C146.184 56.375 146.391 56.0156 146.391 55.5781C146.391 55.2031 146.239 54.9023 145.934 54.6758C145.629 54.4492 145.219 54.2812 144.703 54.1719L142.594 53.7383C140.188 53.2383 138.985 52.0469 138.985 50.1641C138.985 49.0234 139.438 48.1055 140.344 47.4102C141.25 46.707 142.457 46.3555 143.965 46.3555C145.465 46.3555 146.684 46.7266 147.621 47.4688C148.567 48.2031 149.055 49.207 149.086 50.4805H146.309C146.293 49.9258 146.078 49.4688 145.664 49.1094C145.25 48.75 144.707 48.5703 144.035 48.5703C143.387 48.5703 142.875 48.7148 142.5 49.0039C142.125 49.293 141.938 49.6484 141.938 50.0703C141.938 50.4375 142.082 50.7383 142.371 50.9727C142.66 51.1992 143.063 51.3711 143.578 51.4883L145.805 51.9453C147.032 52.2031 147.934 52.6094 148.512 53.1641C149.098 53.7188 149.391 54.4492 149.391 55.3555C149.391 56.1602 149.164 56.8594 148.711 57.4531C148.266 58.0391 147.649 58.4922 146.86 58.8125C146.071 59.1328 145.164 59.293 144.141 59.293Z"
      fill="#009CF5"
    />
  </g>
  <defs>
    <clipPath id="clip0_15476_23042">
      <rect width="233" height="76" rx="6" fill="white" />
    </clipPath>
    <clipPath id="clip1_15476_23042">
      <rect
        width="285.992"
        height="213.808"
        fill="white"
        transform="translate(33 -40)"
      />
    </clipPath>
  </defs>
</svg>
