<svg
  width="48"
  height="48"
  viewBox="0 0 48 48"
  fill="none"
  xmlns="http://www.w3.org/2000/svg"
>
  <rect width="48" height="48" rx="8" fill="#FFEBD4" />
  <rect
    x="0.5"
    y="0.5"
    width="47"
    height="47"
    rx="7.5"
    stroke="#FFB570"
    stroke-opacity="0.56"
  />
  <path
    d="M26.6915 10.0042C26.5474 9.97848 26.4117 10.0729 26.3863 10.2187L24.6485 20.1977H23.3515L21.6137 10.2187C21.5882 10.0729 21.4526 9.97848 21.3085 10.0042C15.1371 11.2141 10.4069 16.5339 10.017 23.0378C10.017 23.0464 10 23.3209 10 23.4582C10 23.4754 10 23.4925 10 23.5011C10 23.5526 10 23.6041 10 23.6556C10 23.6727 10 23.6899 10 23.7156C10 23.7843 10 23.8443 10 23.913C10 30.8116 14.8659 36.5518 21.317 37.8217C21.4611 37.8475 21.5967 37.7531 21.6222 37.6072L23.36 27.6283H24.657L26.3863 37.6158C26.4117 37.7617 26.5474 37.856 26.6915 37.8303C32.8628 36.6119 37.5846 31.2921 37.983 24.7882C37.983 24.7796 38 24.505 38 24.3677C38 24.3506 38 24.3334 38 24.3248C38 24.2733 38 24.2219 38 24.1704C38 24.1532 38 24.1361 38 24.1103C38 24.0417 38 23.9816 38 23.913C38.0085 17.0144 33.1426 11.2741 26.6915 10.0042Z"
    fill="#FF4600"
  />
</svg>
