<svg
  fill="none"
  height="16"
  viewBox="0 0 16 16"
  width="16"
  xmlns="http://www.w3.org/2000/svg"
>
  <path
    d="M7 1C7.19891 1 7.38968 1.07902 7.53033 1.21967C7.67098 1.36032 7.75 1.55109 7.75 1.75V6H6.25V1.75C6.25 1.55109 6.32902 1.36032 6.46967 1.21967C6.61032 1.07902 6.80109 1 7 1ZM6.25 6V8.94L5.03 7.72C4.88783 7.58752 4.69978 7.5154 4.50548 7.51883C4.31118 7.52225 4.12579 7.60097 3.98838 7.73838C3.85097 7.87579 3.77225 8.06118 3.76883 8.25548C3.7654 8.44978 3.83752 8.63783 3.97 8.78L6.47 11.28C6.61063 11.4205 6.80125 11.4993 7 11.4993C7.19875 11.4993 7.38937 11.4205 7.53 11.28L10.03 8.78C10.1037 8.71134 10.1628 8.62854 10.2038 8.53654C10.2448 8.44454 10.2668 8.34522 10.2686 8.24452C10.2704 8.14382 10.2518 8.04379 10.2141 7.9504C10.1764 7.85701 10.1203 7.77218 10.049 7.70096C9.97782 7.62974 9.89299 7.5736 9.7996 7.53588C9.70621 7.49816 9.60618 7.47963 9.50548 7.48141C9.40478 7.48319 9.30546 7.50523 9.21346 7.54622C9.12146 7.58721 9.03866 7.64631 8.97 7.72L7.75 8.94V6H10C10.5304 6 11.0391 6.21071 11.4142 6.58579C11.7893 6.96086 12 7.46957 12 8V11C12 11.5304 11.7893 12.0391 11.4142 12.4142C11.0391 12.7893 10.5304 13 10 13H4C3.46957 13 2.96086 12.7893 2.58579 12.4142C2.21071 12.0391 2 11.5304 2 11V8C2 7.46957 2.21071 6.96086 2.58579 6.58579C2.96086 6.21071 3.46957 6 4 6H6.25Z"
    fill="#A3A3A3"
  />
  <path
    d="M4.26801 13.9996C4.44354 14.3036 4.69601 14.5561 5.00003 14.7316C5.30406 14.9072 5.64894 14.9996 6.00001 14.9996H12C12.5304 14.9996 13.0391 14.7889 13.4142 14.4138C13.7893 14.0387 14 13.53 14 12.9996V9.99958C14 9.64851 13.9076 9.30364 13.732 8.99961C13.5565 8.69558 13.304 8.44311 13 8.26758V10.9996C13 11.7952 12.6839 12.5583 12.1213 13.1209C11.5587 13.6835 10.7957 13.9996 10 13.9996H4.26801Z"
    fill="#A3A3A3"
  />
</svg>
